<ttFont>
    <TTGlyph name="A" xMin="-102" yMin="6" xMax="721" yMax="702">
      <contour>
        <pt x="162" y="677" on="1"/>
        <pt x="212" y="674" on="0"/>
        <pt x="281" y="671" on="0"/>
        <pt x="304" y="670" on="1"/>
        <pt x="330" y="669" on="0"/>
        <pt x="348" y="670" on="1"/>
        <pt x="366" y="671" on="0"/>
        <pt x="397" y="675" on="1"/>
        <pt x="423" y="678" on="0"/>
        <pt x="510" y="691" on="0"/>
        <pt x="575" y="702" on="1"/>
        <pt x="552" y="679" on="0"/>
        <pt x="527" y="642" on="0"/>
        <pt x="520" y="629" on="1"/>
        <pt x="512" y="613" on="0"/>
        <pt x="509" y="602" on="1"/>
        <pt x="507" y="592" on="0"/>
        <pt x="519" y="512" on="0"/>
        <pt x="541" y="403" on="0"/>
        <pt x="567" y="280" on="0"/>
        <pt x="593" y="173" on="0"/>
        <pt x="614" y="98" on="0"/>
        <pt x="619" y="91" on="1"/>
        <pt x="634" y="70" on="0"/>
        <pt x="642" y="57" on="0"/>
        <pt x="652" y="52" on="1"/>
        <pt x="656" y="50" on="0"/>
        <pt x="665" y="46" on="1"/>
        <pt x="673" y="42" on="0"/>
        <pt x="700" y="30" on="0"/>
        <pt x="721" y="22" on="1"/>
        <pt x="682" y="20" on="0"/>
        <pt x="626" y="19" on="0"/>
        <pt x="608" y="18" on="1"/>
        <pt x="587" y="17" on="0"/>
        <pt x="572" y="16" on="1"/>
        <pt x="557" y="16" on="0"/>
        <pt x="536" y="14" on="1"/>
        <pt x="518" y="12" on="0"/>
        <pt x="461" y="8" on="0"/>
        <pt x="423" y="6" on="1"/>
        <pt x="443" y="20" on="0"/>
        <pt x="468" y="43" on="0"/>
        <pt x="475" y="51" on="1"/>
        <pt x="483" y="61" on="0"/>
        <pt x="486" y="69" on="1"/>
        <pt x="488" y="78" on="0"/>
        <pt x="489" y="96" on="1"/>
        <pt x="490" y="112" on="0"/>
        <pt x="488" y="165" on="0"/>
        <pt x="484" y="208" on="1"/>
        <pt x="221" y="181" on="1"/>
        <pt x="211" y="164" on="0"/>
        <pt x="201" y="139" on="0"/>
        <pt x="199" y="130" on="1"/>
        <pt x="196" y="119" on="0"/>
        <pt x="197" y="112" on="1"/>
        <pt x="199" y="104" on="0"/>
        <pt x="204" y="93" on="1"/>
        <pt x="209" y="83" on="0"/>
        <pt x="228" y="56" on="0"/>
        <pt x="247" y="38" on="1"/>
        <pt x="222" y="39" on="0"/>
        <pt x="170" y="39" on="0"/>
        <pt x="148" y="38" on="1"/>
        <pt x="122" y="37" on="0"/>
        <pt x="97" y="36" on="1"/>
        <pt x="72" y="35" on="0"/>
        <pt x="40" y="33" on="1"/>
        <pt x="13" y="31" on="0"/>
        <pt x="-60" y="26" on="0"/>
        <pt x="-102" y="22" on="1"/>
        <pt x="-76" y="34" on="0"/>
        <pt x="-40" y="59" on="0"/>
        <pt x="-28" y="70" on="1"/>
        <pt x="-14" y="82" on="0"/>
        <pt x="-4" y="93" on="1"/>
        <pt x="3" y="103" on="0"/>
        <pt x="45" y="176" on="0"/>
        <pt x="98" y="276" on="0"/>
        <pt x="157" y="390" on="0"/>
        <pt x="205" y="491" on="0"/>
        <pt x="235" y="565" on="0"/>
        <pt x="235" y="576" on="1"/>
        <pt x="233" y="589" on="0"/>
        <pt x="225" y="605" on="1"/>
        <pt x="218" y="619" on="0"/>
        <pt x="189" y="655" on="0"/>
      </contour>
      <contour>
        <pt x="472" y="282" on="1"/>
        <pt x="466" y="317" on="0"/>
        <pt x="456" y="368" on="0"/>
        <pt x="453" y="385" on="1"/>
        <pt x="449" y="405" on="0"/>
        <pt x="447" y="420" on="1"/>
        <pt x="444" y="434" on="0"/>
        <pt x="440" y="456" on="1"/>
        <pt x="436" y="475" on="0"/>
        <pt x="425" y="532" on="0"/>
        <pt x="417" y="572" on="1"/>
        <pt x="360" y="458" on="0"/>
        <pt x="297" y="333" on="0"/>
        <pt x="283" y="304" on="1"/>
        <pt x="266" y="270" on="0"/>
        <pt x="264" y="264" on="1"/>
      </contour>
    </TTGlyph>
    <TTGlyph name="AE" xMin="-102" yMin="2" xMax="886" yMax="768">
      <contour>
        <pt x="569" y="723" on="1"/>
        <pt x="599" y="725" on="0"/>
        <pt x="642" y="730" on="1"/>
        <pt x="679" y="735" on="0"/>
        <pt x="791" y="753" on="0"/>
        <pt x="868" y="768" on="1"/>
        <pt x="861" y="736" on="0"/>
        <pt x="853" y="684" on="0"/>
        <pt x="851" y="666" on="1"/>
        <pt x="848" y="645" on="0"/>
        <pt x="848" y="628" on="1"/>
        <pt x="847" y="611" on="0"/>
        <pt x="845" y="589" on="1"/>
        <pt x="843" y="570" on="0"/>
        <pt x="839" y="514" on="0"/>
        <pt x="834" y="478" on="1"/>
        <pt x="812" y="521" on="0"/>
        <pt x="775" y="573" on="0"/>
        <pt x="761" y="587" on="1"/>
        <pt x="744" y="604" on="0"/>
        <pt x="731" y="611" on="1"/>
        <pt x="717" y="615" on="0"/>
        <pt x="693" y="619" on="1"/>
        <pt x="673" y="622" on="0"/>
        <pt x="610" y="624" on="0"/>
        <pt x="565" y="621" on="1"/>
        <pt x="543" y="404" on="1"/>
        <pt x="557" y="402" on="0"/>
        <pt x="584" y="404" on="0"/>
        <pt x="595" y="406" on="1"/>
        <pt x="608" y="408" on="0"/>
        <pt x="621" y="411" on="1"/>
        <pt x="633" y="414" on="0"/>
        <pt x="646" y="423" on="1"/>
        <pt x="657" y="431" on="0"/>
        <pt x="686" y="456" on="0"/>
        <pt x="701" y="477" on="1"/>
        <pt x="692" y="437" on="0"/>
        <pt x="680" y="382" on="0"/>
        <pt x="676" y="364" on="1"/>
        <pt x="672" y="343" on="0"/>
        <pt x="670" y="329" on="1"/>
        <pt x="669" y="316" on="0"/>
        <pt x="666" y="299" on="1"/>
        <pt x="664" y="285" on="0"/>
        <pt x="657" y="245" on="0"/>
        <pt x="653" y="220" on="1"/>
        <pt x="643" y="240" on="0"/>
        <pt x="625" y="267" on="0"/>
        <pt x="617" y="276" on="1"/>
        <pt x="608" y="287" on="0"/>
        <pt x="600" y="293" on="1"/>
        <pt x="592" y="298" on="0"/>
        <pt x="582" y="301" on="1"/>
        <pt x="574" y="303" on="0"/>
        <pt x="554" y="303" on="0"/>
        <pt x="543" y="298" on="1"/>
        <pt x="533" y="132" on="1"/>
        <pt x="575" y="125" on="0"/>
        <pt x="644" y="129" on="0"/>
        <pt x="669" y="134" on="1"/>
        <pt x="698" y="139" on="0"/>
        <pt x="720" y="148" on="1"/>
        <pt x="742" y="159" on="0"/>
        <pt x="768" y="178" on="1"/>
        <pt x="791" y="195" on="0"/>
        <pt x="851" y="251" on="0"/>
        <pt x="886" y="293" on="1"/>
        <pt x="875" y="258" on="0"/>
        <pt x="861" y="208" on="0"/>
        <pt x="857" y="191" on="1"/>
        <pt x="852" y="172" on="0"/>
        <pt x="850" y="158" on="1"/>
        <pt x="847" y="144" on="0"/>
        <pt x="843" y="126" on="1"/>
        <pt x="840" y="110" on="0"/>
        <pt x="831" y="64" on="0"/>
        <pt x="825" y="34" on="1"/>
        <pt x="764" y="36" on="0"/>
        <pt x="676" y="35" on="0"/>
        <pt x="647" y="35" on="1"/>
        <pt x="613" y="34" on="0"/>
        <pt x="590" y="34" on="1"/>
        <pt x="566" y="33" on="0"/>
        <pt x="531" y="31" on="1"/>
        <pt x="500" y="29" on="0"/>
        <pt x="406" y="25" on="0"/>
        <pt x="340" y="22" on="1"/>
        <pt x="345" y="42" on="0"/>
        <pt x="356" y="79" on="0"/>
        <pt x="360" y="93" on="1"/>
        <pt x="364" y="109" on="0"/>
        <pt x="368" y="122" on="1"/>
        <pt x="372" y="136" on="0"/>
        <pt x="376" y="158" on="1"/>
        <pt x="380" y="177" on="0"/>
        <pt x="390" y="234" on="0"/>
        <pt x="397" y="275" on="1"/>
        <pt x="249" y="268" on="1"/>
        <pt x="220" y="205" on="0"/>
        <pt x="189" y="128" on="0"/>
        <pt x="182" y="107" on="1"/>
        <pt x="173" y="82" on="0"/>
        <pt x="173" y="72" on="1"/>
        <pt x="173" y="61" on="0"/>
        <pt x="188" y="39" on="0"/>
        <pt x="207" y="21" on="0"/>
        <pt x="224" y="10" on="0"/>
        <pt x="226" y="10" on="1"/>
        <pt x="228" y="10" on="0"/>
        <pt x="191" y="8" on="0"/>
        <pt x="137" y="6" on="0"/>
        <pt x="80" y="3" on="0"/>
        <pt x="63" y="3" on="1"/>
        <pt x="25" y="3" on="1"/>
        <pt x="5" y="3" on="0"/>
        <pt x="-57" y="2" on="0"/>
        <pt x="-102" y="2" on="1"/>
        <pt x="-83" y="16" on="0"/>
        <pt x="-45" y="48" on="0"/>
        <pt x="-30" y="62" on="1"/>
        <pt x="-12" y="79" on="0"/>
        <pt x="4" y="96" on="1"/>
        <pt x="14" y="107" on="0"/>
        <pt x="49" y="162" on="0"/>
        <pt x="91" y="238" on="0"/>
        <pt x="138" y="329" on="0"/>
        <pt x="184" y="422" on="0"/>
        <pt x="226" y="511" on="0"/>
        <pt x="259" y="585" on="0"/>
        <pt x="279" y="636" on="0"/>
        <pt x="280" y="645" on="1"/>
        <pt x="280" y="659" on="0"/>
        <pt x="274" y="673" on="1"/>
        <pt x="269" y="685" on="0"/>
        <pt x="243" y="713" on="0"/>
        <pt x="218" y="726" on="1"/>
        <pt x="281" y="721" on="0"/>
        <pt x="405" y="719" on="0"/>
        <pt x="456" y="720" on="1"/>
        <pt x="515" y="721" on="0"/>
      </contour>
      <contour>
        <pt x="312" y="398" on="1"/>
        <pt x="411" y="406" on="1"/>
        <pt x="426" y="590" on="1"/>
        <pt x="395" y="589" on="1"/>
      </contour>
    </TTGlyph>
    <TTGlyph name="Aacute" xMin="-102" yMin="6" xMax="721" yMax="873">
      <component glyphName="A" x="0" y="0" flags="0x204"/>
      <component glyphName="acute" x="41" y="82" flags="0x4"/>
    </TTGlyph>
    <TTGlyph name="Acircumflex" xMin="-102" yMin="6" xMax="721" yMax="918">
      <component glyphName="A" x="0" y="0" flags="0x204"/>
      <component glyphName="circumflex" x="-19" y="133" flags="0x4"/>
    </TTGlyph>
    <TTGlyph name="Adieresis" xMin="-102" yMin="6" xMax="721" yMax="900">
      <component glyphName="A" x="0" y="0" flags="0x204"/>
      <component glyphName="dieresis" x="-9" y="123" flags="0x4"/>
    </TTGlyph>
    <TTGlyph name="Agrave" xMin="-102" yMin="6" xMax="721" yMax="903">
      <component glyphName="A" x="0" y="0" flags="0x204"/>
      <component glyphName="grave" x="-9" y="102" flags="0x4"/>
    </TTGlyph>
    <TTGlyph name="Aring" xMin="-102" yMin="6" xMax="721" yMax="838">
      <contour>
        <pt x="472" y="282" on="1"/>
        <pt x="466" y="317" on="0"/>
        <pt x="456" y="368" on="0"/>
        <pt x="453" y="385" on="1"/>
        <pt x="449" y="405" on="0"/>
        <pt x="447" y="420" on="1"/>
        <pt x="444" y="434" on="0"/>
        <pt x="440" y="456" on="1"/>
        <pt x="436" y="475" on="0"/>
        <pt x="425" y="532" on="0"/>
        <pt x="417" y="572" on="1"/>
        <pt x="360" y="458" on="0"/>
        <pt x="297" y="333" on="0"/>
        <pt x="283" y="304" on="1"/>
        <pt x="266" y="270" on="0"/>
        <pt x="264" y="264" on="1"/>
      </contour>
      <contour>
        <pt x="261" y="751" on="1"/>
        <pt x="262" y="767" on="0"/>
        <pt x="286" y="799" on="0"/>
        <pt x="320" y="824" on="0"/>
        <pt x="358" y="838" on="0"/>
        <pt x="375" y="835" on="1"/>
        <pt x="391" y="832" on="0"/>
        <pt x="425" y="819" on="0"/>
        <pt x="451" y="796" on="0"/>
        <pt x="468" y="764" on="0"/>
        <pt x="468" y="742" on="1"/>
        <pt x="468" y="721" on="0"/>
        <pt x="452" y="691" on="0"/>
        <pt x="438" y="680" on="1"/>
        <pt x="464" y="684" on="0"/>
        <pt x="530" y="694" on="0"/>
        <pt x="575" y="702" on="1"/>
        <pt x="552" y="679" on="0"/>
        <pt x="527" y="642" on="0"/>
        <pt x="520" y="629" on="1"/>
        <pt x="512" y="613" on="0"/>
        <pt x="509" y="602" on="1"/>
        <pt x="507" y="592" on="0"/>
        <pt x="519" y="512" on="0"/>
        <pt x="541" y="403" on="0"/>
        <pt x="567" y="280" on="0"/>
        <pt x="593" y="173" on="0"/>
        <pt x="614" y="98" on="0"/>
        <pt x="619" y="91" on="1"/>
        <pt x="634" y="70" on="0"/>
        <pt x="642" y="57" on="0"/>
        <pt x="652" y="52" on="1"/>
        <pt x="656" y="50" on="0"/>
        <pt x="665" y="46" on="1"/>
        <pt x="673" y="42" on="0"/>
        <pt x="700" y="30" on="0"/>
        <pt x="721" y="22" on="1"/>
        <pt x="682" y="20" on="0"/>
        <pt x="626" y="19" on="0"/>
        <pt x="608" y="18" on="1"/>
        <pt x="587" y="17" on="0"/>
        <pt x="572" y="16" on="1"/>
        <pt x="557" y="16" on="0"/>
        <pt x="536" y="14" on="1"/>
        <pt x="518" y="12" on="0"/>
        <pt x="461" y="8" on="0"/>
        <pt x="423" y="6" on="1"/>
        <pt x="443" y="20" on="0"/>
        <pt x="468" y="43" on="0"/>
        <pt x="475" y="51" on="1"/>
        <pt x="483" y="61" on="0"/>
        <pt x="486" y="69" on="1"/>
        <pt x="488" y="78" on="0"/>
        <pt x="489" y="96" on="1"/>
        <pt x="490" y="112" on="0"/>
        <pt x="488" y="165" on="0"/>
        <pt x="484" y="208" on="1"/>
        <pt x="221" y="181" on="1"/>
        <pt x="211" y="164" on="0"/>
        <pt x="201" y="139" on="0"/>
        <pt x="199" y="130" on="1"/>
        <pt x="196" y="119" on="0"/>
        <pt x="197" y="112" on="1"/>
        <pt x="199" y="104" on="0"/>
        <pt x="204" y="93" on="1"/>
        <pt x="209" y="83" on="0"/>
        <pt x="228" y="56" on="0"/>
        <pt x="247" y="38" on="1"/>
        <pt x="222" y="39" on="0"/>
        <pt x="170" y="39" on="0"/>
        <pt x="148" y="38" on="1"/>
        <pt x="122" y="37" on="0"/>
        <pt x="97" y="36" on="1"/>
        <pt x="72" y="35" on="0"/>
        <pt x="40" y="33" on="1"/>
        <pt x="13" y="31" on="0"/>
        <pt x="-60" y="26" on="0"/>
        <pt x="-102" y="22" on="1"/>
        <pt x="-76" y="34" on="0"/>
        <pt x="-40" y="59" on="0"/>
        <pt x="-28" y="70" on="1"/>
        <pt x="-14" y="82" on="0"/>
        <pt x="-4" y="93" on="1"/>
        <pt x="3" y="103" on="0"/>
        <pt x="45" y="176" on="0"/>
        <pt x="98" y="276" on="0"/>
        <pt x="157" y="390" on="0"/>
        <pt x="205" y="491" on="0"/>
        <pt x="235" y="565" on="0"/>
        <pt x="235" y="576" on="1"/>
        <pt x="233" y="589" on="0"/>
        <pt x="225" y="605" on="1"/>
        <pt x="218" y="619" on="0"/>
        <pt x="189" y="655" on="0"/>
        <pt x="162" y="677" on="1"/>
        <pt x="217" y="674" on="0"/>
        <pt x="291" y="671" on="0"/>
        <pt x="314" y="670" on="1"/>
        <pt x="290" y="681" on="0"/>
        <pt x="257" y="722" on="0"/>
      </contour>
      <contour>
        <pt x="371" y="694" on="1"/>
        <pt x="396" y="694" on="0"/>
        <pt x="419" y="728" on="0"/>
        <pt x="419" y="767" on="0"/>
        <pt x="394" y="798" on="0"/>
        <pt x="371" y="795" on="1"/>
        <pt x="353" y="793" on="0"/>
        <pt x="330" y="761" on="0"/>
        <pt x="327" y="724" on="0"/>
        <pt x="346" y="694" on="0"/>
      </contour>
    </TTGlyph>
    <TTGlyph name="Atilde" xMin="-102" yMin="6" xMax="721" yMax="910">
      <component glyphName="A" x="0" y="0" flags="0x204"/>
      <component glyphName="tilde" x="-19" y="123" flags="0x4"/>
    </TTGlyph>
    <TTGlyph name="B" xMin="-15" yMin="22" xMax="616" yMax="717">
      <contour>
        <pt x="-15" y="715" on="1"/>
        <pt x="17" y="707" on="0"/>
        <pt x="75" y="699" on="0"/>
        <pt x="97" y="697" on="1"/>
        <pt x="123" y="694" on="0"/>
        <pt x="145" y="695" on="1"/>
        <pt x="173" y="695" on="0"/>
        <pt x="258" y="705" on="0"/>
        <pt x="348" y="714" on="0"/>
        <pt x="431" y="717" on="0"/>
        <pt x="457" y="710" on="1"/>
        <pt x="483" y="704" on="0"/>
        <pt x="538" y="679" on="0"/>
        <pt x="584" y="642" on="0"/>
        <pt x="614" y="593" on="0"/>
        <pt x="616" y="562" on="1"/>
        <pt x="615" y="523" on="0"/>
        <pt x="598" y="489" on="1"/>
        <pt x="584" y="460" on="0"/>
        <pt x="518" y="399" on="0"/>
        <pt x="456" y="383" on="1"/>
        <pt x="487" y="379" on="0"/>
        <pt x="532" y="360" on="0"/>
        <pt x="565" y="335" on="0"/>
        <pt x="586" y="305" on="0"/>
        <pt x="592" y="290" on="1"/>
        <pt x="607" y="255" on="0"/>
        <pt x="606" y="212" on="1"/>
        <pt x="600" y="156" on="0"/>
        <pt x="567" y="90" on="0"/>
        <pt x="525" y="54" on="0"/>
        <pt x="481" y="40" on="0"/>
        <pt x="463" y="36" on="1"/>
        <pt x="445" y="32" on="0"/>
        <pt x="393" y="32" on="0"/>
        <pt x="334" y="35" on="0"/>
        <pt x="272" y="38" on="0"/>
        <pt x="244" y="36" on="1"/>
        <pt x="221" y="34" on="0"/>
        <pt x="188" y="32" on="1"/>
        <pt x="160" y="30" on="0"/>
        <pt x="76" y="25" on="0"/>
        <pt x="20" y="22" on="1"/>
        <pt x="31" y="30" on="0"/>
        <pt x="46" y="51" on="0"/>
        <pt x="51" y="59" on="1"/>
        <pt x="56" y="69" on="0"/>
        <pt x="60" y="78" on="1"/>
        <pt x="63" y="86" on="0"/>
        <pt x="67" y="158" on="0"/>
        <pt x="69" y="259" on="0"/>
        <pt x="70" y="376" on="0"/>
        <pt x="67" y="485" on="0"/>
        <pt x="62" y="570" on="0"/>
        <pt x="58" y="589" on="1"/>
        <pt x="52" y="610" on="0"/>
        <pt x="42" y="632" on="1"/>
        <pt x="34" y="651" on="0"/>
        <pt x="5" y="695" on="0"/>
      </contour>
      <contour>
        <pt x="196" y="613" on="1"/>
        <pt x="196" y="609" on="0"/>
        <pt x="197" y="586" on="1"/>
        <pt x="198" y="566" on="0"/>
        <pt x="201" y="483" on="0"/>
        <pt x="204" y="407" on="1"/>
        <pt x="229" y="396" on="0"/>
        <pt x="277" y="395" on="0"/>
        <pt x="296" y="397" on="1"/>
        <pt x="318" y="400" on="0"/>
        <pt x="338" y="407" on="1"/>
        <pt x="365" y="418" on="0"/>
        <pt x="396" y="468" on="0"/>
        <pt x="407" y="523" on="0"/>
        <pt x="401" y="572" on="0"/>
        <pt x="391" y="583" on="1"/>
        <pt x="372" y="600" on="0"/>
        <pt x="344" y="611" on="1"/>
        <pt x="320" y="620" on="0"/>
        <pt x="247" y="627" on="0"/>
      </contour>
      <contour>
        <pt x="191" y="139" on="1"/>
        <pt x="228" y="120" on="0"/>
        <pt x="284" y="108" on="0"/>
        <pt x="303" y="108" on="1"/>
        <pt x="325" y="108" on="0"/>
        <pt x="341" y="114" on="1"/>
        <pt x="360" y="123" on="0"/>
        <pt x="397" y="154" on="0"/>
        <pt x="416" y="197" on="0"/>
        <pt x="412" y="250" on="0"/>
        <pt x="391" y="282" on="1"/>
        <pt x="372" y="305" on="0"/>
        <pt x="345" y="318" on="1"/>
        <pt x="321" y="329" on="0"/>
        <pt x="248" y="335" on="0"/>
        <pt x="195" y="315" on="1"/>
      </contour>
    </TTGlyph>
    <TTGlyph name="C" xMin="-23" yMin="-8" xMax="658" yMax="739">
      <contour>
        <pt x="303" y="739" on="1"/>
        <pt x="338" y="739" on="0"/>
        <pt x="395" y="716" on="0"/>
        <pt x="444" y="688" on="0"/>
        <pt x="488" y="665" on="0"/>
        <pt x="511" y="665" on="1"/>
        <pt x="529" y="666" on="0"/>
        <pt x="552" y="670" on="1"/>
        <pt x="572" y="674" on="0"/>
        <pt x="625" y="691" on="0"/>
        <pt x="658" y="708" on="1"/>
        <pt x="625" y="676" on="0"/>
        <pt x="584" y="633" on="0"/>
        <pt x="573" y="619" on="1"/>
        <pt x="560" y="603" on="0"/>
        <pt x="554" y="594" on="1"/>
        <pt x="548" y="583" on="0"/>
        <pt x="536" y="561" on="1"/>
        <pt x="525" y="541" on="0"/>
        <pt x="487" y="474" on="0"/>
        <pt x="458" y="420" on="1"/>
        <pt x="458" y="489" on="0"/>
        <pt x="431" y="565" on="0"/>
        <pt x="415" y="585" on="1"/>
        <pt x="396" y="608" on="0"/>
        <pt x="372" y="614" on="1"/>
        <pt x="350" y="617" on="0"/>
        <pt x="306" y="596" on="0"/>
        <pt x="263" y="556" on="0"/>
        <pt x="224" y="501" on="0"/>
        <pt x="193" y="441" on="0"/>
        <pt x="173" y="380" on="0"/>
        <pt x="170" y="354" on="1"/>
        <pt x="167" y="331" on="0"/>
        <pt x="171" y="270" on="0"/>
        <pt x="185" y="207" on="0"/>
        <pt x="207" y="147" on="0"/>
        <pt x="240" y="100" on="0"/>
        <pt x="282" y="71" on="0"/>
        <pt x="309" y="72" on="1"/>
        <pt x="339" y="74" on="0"/>
        <pt x="368" y="90" on="1"/>
        <pt x="393" y="103" on="0"/>
        <pt x="445" y="158" on="0"/>
        <pt x="464" y="209" on="1"/>
        <pt x="612" y="182" on="1"/>
        <pt x="548" y="104" on="0"/>
        <pt x="427" y="26" on="0"/>
        <pt x="379" y="10" on="1"/>
        <pt x="323" y="-8" on="0"/>
        <pt x="273" y="-7" on="1"/>
        <pt x="210" y="0" on="0"/>
        <pt x="100" y="62" on="0"/>
        <pt x="21" y="151" on="0"/>
        <pt x="-23" y="257" on="0"/>
        <pt x="-20" y="308" on="1"/>
        <pt x="-18" y="342" on="0"/>
        <pt x="6" y="433" on="0"/>
        <pt x="47" y="529" on="0"/>
        <pt x="105" y="621" on="0"/>
        <pt x="175" y="694" on="0"/>
        <pt x="258" y="739" on="0"/>
      </contour>
    </TTGlyph>
    <TTGlyph name="Ccedilla" xMin="-23" yMin="-228" xMax="658" yMax="739">
      <contour>
        <pt x="328" y="-3" on="1"/>
        <pt x="316" y="-64" on="1"/>
        <pt x="348" y="-69" on="0"/>
        <pt x="377" y="-93" on="0"/>
        <pt x="382" y="-107" on="1"/>
        <pt x="388" y="-123" on="0"/>
        <pt x="385" y="-142" on="1"/>
        <pt x="378" y="-161" on="0"/>
        <pt x="360" y="-178" on="1"/>
        <pt x="344" y="-192" on="0"/>
        <pt x="283" y="-220" on="0"/>
        <pt x="230" y="-228" on="1"/>
        <pt x="232" y="-182" on="1"/>
        <pt x="261" y="-176" on="0"/>
        <pt x="294" y="-160" on="0"/>
        <pt x="302" y="-153" on="1"/>
        <pt x="311" y="-145" on="0"/>
        <pt x="313" y="-136" on="1"/>
        <pt x="313" y="-127" on="0"/>
        <pt x="303" y="-120" on="1"/>
        <pt x="295" y="-114" on="0"/>
        <pt x="258" y="-102" on="0"/>
        <pt x="223" y="-98" on="1"/>
        <pt x="239" y="-1" on="1"/>
        <pt x="182" y="12" on="0"/>
        <pt x="85" y="75" on="0"/>
        <pt x="15" y="161" on="0"/>
        <pt x="-23" y="260" on="0"/>
        <pt x="-20" y="308" on="1"/>
        <pt x="-18" y="342" on="0"/>
        <pt x="6" y="433" on="0"/>
        <pt x="47" y="529" on="0"/>
        <pt x="105" y="621" on="0"/>
        <pt x="175" y="694" on="0"/>
        <pt x="258" y="739" on="0"/>
        <pt x="303" y="739" on="1"/>
        <pt x="338" y="739" on="0"/>
        <pt x="395" y="716" on="0"/>
        <pt x="444" y="688" on="0"/>
        <pt x="488" y="665" on="0"/>
        <pt x="511" y="665" on="1"/>
        <pt x="529" y="666" on="0"/>
        <pt x="552" y="670" on="1"/>
        <pt x="572" y="674" on="0"/>
        <pt x="625" y="691" on="0"/>
        <pt x="658" y="708" on="1"/>
        <pt x="625" y="676" on="0"/>
        <pt x="584" y="633" on="0"/>
        <pt x="573" y="619" on="1"/>
        <pt x="560" y="603" on="0"/>
        <pt x="554" y="594" on="1"/>
        <pt x="548" y="583" on="0"/>
        <pt x="536" y="561" on="1"/>
        <pt x="525" y="541" on="0"/>
        <pt x="487" y="474" on="0"/>
        <pt x="458" y="420" on="1"/>
        <pt x="458" y="489" on="0"/>
        <pt x="431" y="565" on="0"/>
        <pt x="415" y="585" on="1"/>
        <pt x="396" y="608" on="0"/>
        <pt x="372" y="614" on="1"/>
        <pt x="350" y="617" on="0"/>
        <pt x="306" y="596" on="0"/>
        <pt x="263" y="556" on="0"/>
        <pt x="224" y="501" on="0"/>
        <pt x="193" y="441" on="0"/>
        <pt x="173" y="380" on="0"/>
        <pt x="170" y="354" on="1"/>
        <pt x="167" y="331" on="0"/>
        <pt x="171" y="270" on="0"/>
        <pt x="185" y="207" on="0"/>
        <pt x="207" y="147" on="0"/>
        <pt x="240" y="100" on="0"/>
        <pt x="282" y="71" on="0"/>
        <pt x="309" y="72" on="1"/>
        <pt x="339" y="74" on="0"/>
        <pt x="368" y="90" on="1"/>
        <pt x="393" y="103" on="0"/>
        <pt x="445" y="158" on="0"/>
        <pt x="464" y="209" on="1"/>
        <pt x="612" y="182" on="1"/>
        <pt x="571" y="131" on="0"/>
        <pt x="490" y="64" on="0"/>
        <pt x="416" y="22" on="0"/>
        <pt x="352" y="1" on="0"/>
      </contour>
    </TTGlyph>
    <TTGlyph name="D" xMin="-31" yMin="13" xMax="611" yMax="718">
      <contour>
        <pt x="-21" y="713" on="1"/>
        <pt x="14" y="708" on="0"/>
        <pt x="66" y="702" on="0"/>
        <pt x="83" y="700" on="1"/>
        <pt x="103" y="698" on="0"/>
        <pt x="117" y="697" on="1"/>
        <pt x="133" y="695" on="0"/>
        <pt x="180" y="703" on="0"/>
        <pt x="234" y="712" on="0"/>
        <pt x="292" y="718" on="0"/>
        <pt x="319" y="715" on="1"/>
        <pt x="337" y="713" on="0"/>
        <pt x="393" y="701" on="0"/>
        <pt x="456" y="675" on="0"/>
        <pt x="520" y="633" on="0"/>
        <pt x="572" y="569" on="0"/>
        <pt x="606" y="481" on="0"/>
        <pt x="608" y="422" on="1"/>
        <pt x="611" y="334" on="0"/>
        <pt x="573" y="190" on="0"/>
        <pt x="494" y="88" on="0"/>
        <pt x="374" y="30" on="0"/>
        <pt x="294" y="27" on="1"/>
        <pt x="233" y="22" on="0"/>
        <pt x="174" y="18" on="1"/>
        <pt x="149" y="16" on="0"/>
        <pt x="94" y="14" on="0"/>
        <pt x="40" y="13" on="0"/>
        <pt x="-10" y="15" on="0"/>
        <pt x="-31" y="17" on="1"/>
        <pt x="-8" y="28" on="0"/>
        <pt x="21" y="50" on="0"/>
        <pt x="29" y="58" on="1"/>
        <pt x="38" y="68" on="0"/>
        <pt x="42" y="76" on="1"/>
        <pt x="44" y="87" on="0"/>
        <pt x="48" y="119" on="1"/>
        <pt x="51" y="146" on="0"/>
        <pt x="61" y="246" on="0"/>
        <pt x="68" y="332" on="1"/>
        <pt x="74" y="403" on="1"/>
        <pt x="79" y="469" on="0"/>
        <pt x="78" y="553" on="0"/>
        <pt x="76" y="577" on="1"/>
        <pt x="73" y="605" on="0"/>
        <pt x="68" y="618" on="1"/>
        <pt x="64" y="629" on="0"/>
        <pt x="53" y="644" on="1"/>
        <pt x="43" y="656" on="0"/>
        <pt x="8" y="691" on="0"/>
      </contour>
      <contour>
        <pt x="190" y="345" on="1"/>
        <pt x="192" y="256" on="0"/>
        <pt x="207" y="161" on="0"/>
        <pt x="216" y="138" on="1"/>
        <pt x="227" y="112" on="0"/>
        <pt x="240" y="107" on="1"/>
        <pt x="259" y="107" on="0"/>
        <pt x="307" y="140" on="0"/>
        <pt x="354" y="208" on="0"/>
        <pt x="393" y="310" on="0"/>
        <pt x="402" y="378" on="1"/>
        <pt x="411" y="446" on="0"/>
        <pt x="383" y="550" on="0"/>
        <pt x="337" y="621" on="0"/>
        <pt x="289" y="658" on="0"/>
        <pt x="277" y="658" on="1"/>
        <pt x="263" y="658" on="0"/>
        <pt x="241" y="643" on="0"/>
        <pt x="221" y="617" on="1"/>
        <pt x="211" y="603" on="0"/>
        <pt x="203" y="577" on="1"/>
        <pt x="196" y="554" on="0"/>
        <pt x="186" y="478" on="0"/>
        <pt x="188" y="418" on="1"/>
      </contour>
    </TTGlyph>
    <TTGlyph name="E" xMin="-41" yMin="10" xMax="581" yMax="683">
      <contour>
        <pt x="-41" y="683" on="1"/>
        <pt x="29" y="681" on="0"/>
        <pt x="122" y="680" on="0"/>
        <pt x="151" y="680" on="1"/>
        <pt x="204" y="680" on="1"/>
        <pt x="502" y="680" on="1"/>
        <pt x="504" y="660" on="0"/>
        <pt x="507" y="623" on="0"/>
        <pt x="507" y="609" on="1"/>
        <pt x="507" y="592" on="0"/>
        <pt x="506" y="578" on="1"/>
        <pt x="505" y="564" on="0"/>
        <pt x="503" y="548" on="1"/>
        <pt x="501" y="534" on="0"/>
        <pt x="497" y="502" on="0"/>
        <pt x="492" y="485" on="1"/>
        <pt x="478" y="539" on="0"/>
        <pt x="431" y="595" on="0"/>
        <pt x="407" y="608" on="1"/>
        <pt x="379" y="623" on="0"/>
        <pt x="348" y="624" on="1"/>
        <pt x="307" y="622" on="0"/>
        <pt x="261" y="612" on="0"/>
        <pt x="235" y="594" on="0"/>
        <pt x="222" y="571" on="0"/>
        <pt x="215" y="557" on="1"/>
        <pt x="209" y="545" on="0"/>
        <pt x="204" y="520" on="1"/>
        <pt x="199" y="499" on="0"/>
        <pt x="190" y="427" on="0"/>
        <pt x="185" y="370" on="1"/>
        <pt x="212" y="378" on="0"/>
        <pt x="245" y="392" on="0"/>
        <pt x="255" y="397" on="1"/>
        <pt x="266" y="403" on="0"/>
        <pt x="271" y="408" on="1"/>
        <pt x="275" y="414" on="0"/>
        <pt x="283" y="430" on="1"/>
        <pt x="289" y="444" on="0"/>
        <pt x="310" y="492" on="0"/>
        <pt x="325" y="534" on="1"/>
        <pt x="327" y="488" on="0"/>
        <pt x="327" y="427" on="0"/>
        <pt x="328" y="408" on="1"/>
        <pt x="328" y="386" on="0"/>
        <pt x="329" y="373" on="1"/>
        <pt x="329" y="335" on="1"/>
        <pt x="329" y="314" on="0"/>
        <pt x="330" y="243" on="0"/>
        <pt x="332" y="189" on="1"/>
        <pt x="320" y="226" on="0"/>
        <pt x="301" y="269" on="0"/>
        <pt x="294" y="280" on="1"/>
        <pt x="286" y="293" on="0"/>
        <pt x="280" y="298" on="1"/>
        <pt x="273" y="300" on="0"/>
        <pt x="261" y="302" on="1"/>
        <pt x="250" y="303" on="0"/>
        <pt x="217" y="303" on="0"/>
        <pt x="192" y="298" on="1"/>
        <pt x="189" y="243" on="0"/>
        <pt x="194" y="176" on="0"/>
        <pt x="199" y="158" on="1"/>
        <pt x="204" y="137" on="0"/>
        <pt x="211" y="128" on="1"/>
        <pt x="220" y="119" on="0"/>
        <pt x="274" y="108" on="0"/>
        <pt x="343" y="111" on="0"/>
        <pt x="415" y="131" on="0"/>
        <pt x="443" y="154" on="1"/>
        <pt x="464" y="173" on="0"/>
        <pt x="488" y="202" on="1"/>
        <pt x="508" y="227" on="0"/>
        <pt x="557" y="303" on="0"/>
        <pt x="581" y="357" on="1"/>
        <pt x="577" y="312" on="0"/>
        <pt x="574" y="253" on="0"/>
        <pt x="572" y="235" on="1"/>
        <pt x="570" y="214" on="0"/>
        <pt x="569" y="203" on="1"/>
        <pt x="569" y="191" on="0"/>
        <pt x="566" y="169" on="1"/>
        <pt x="564" y="150" on="0"/>
        <pt x="555" y="85" on="0"/>
        <pt x="548" y="35" on="1"/>
        <pt x="501" y="34" on="0"/>
        <pt x="417" y="33" on="0"/>
        <pt x="385" y="32" on="1"/>
        <pt x="347" y="31" on="0"/>
        <pt x="315" y="30" on="1"/>
        <pt x="282" y="30" on="0"/>
        <pt x="242" y="27" on="1"/>
        <pt x="207" y="25" on="0"/>
        <pt x="112" y="17" on="0"/>
        <pt x="55" y="10" on="1"/>
        <pt x="60" y="78" on="0"/>
        <pt x="65" y="199" on="0"/>
        <pt x="66" y="245" on="1"/>
        <pt x="67" y="299" on="0"/>
        <pt x="66" y="345" on="1"/>
        <pt x="71" y="460" on="0"/>
        <pt x="53" y="602" on="0"/>
        <pt x="41" y="622" on="1"/>
        <pt x="35" y="629" on="0"/>
        <pt x="24" y="639" on="1"/>
        <pt x="15" y="647" on="0"/>
        <pt x="-17" y="669" on="0"/>
      </contour>
    </TTGlyph>
    <TTGlyph name="Eacute" xMin="-41" yMin="10" xMax="581" yMax="883">
      <component glyphName="E" x="0" y="0" flags="0x204"/>
      <component glyphName="acute" x="-91" y="92" flags="0x4"/>
    </TTGlyph>
    <TTGlyph name="Ecircumflex" xMin="-41" yMin="10" xMax="581" yMax="908">
      <component glyphName="E" x="0" y="0" flags="0x204"/>
      <component glyphName="circumflex" x="-101" y="123" flags="0x4"/>
    </TTGlyph>
    <TTGlyph name="Edieresis" xMin="-41" yMin="10" xMax="581" yMax="879">
      <component glyphName="E" x="0" y="0" flags="0x204"/>
      <component glyphName="dieresis" x="-101" y="102" flags="0x4"/>
    </TTGlyph>
    <TTGlyph name="Egrave" xMin="-41" yMin="10" xMax="581" yMax="903">
      <component glyphName="E" x="0" y="0" flags="0x204"/>
      <component glyphName="grave" x="-122" y="102" flags="0x4"/>
    </TTGlyph>
    <TTGlyph name="Eth" xMin="10" yMin="-7" xMax="652" yMax="699">
      <contour>
        <pt x="20" y="693" on="1"/>
        <pt x="55" y="688" on="0"/>
        <pt x="107" y="682" on="0"/>
        <pt x="124" y="680" on="1"/>
        <pt x="144" y="678" on="0"/>
        <pt x="158" y="677" on="1"/>
        <pt x="174" y="675" on="0"/>
        <pt x="221" y="683" on="0"/>
        <pt x="274" y="692" on="0"/>
        <pt x="332" y="699" on="0"/>
        <pt x="359" y="696" on="1"/>
        <pt x="377" y="694" on="0"/>
        <pt x="433" y="682" on="0"/>
        <pt x="496" y="656" on="0"/>
        <pt x="560" y="613" on="0"/>
        <pt x="613" y="549" on="0"/>
        <pt x="647" y="461" on="0"/>
        <pt x="649" y="402" on="1"/>
        <pt x="652" y="314" on="0"/>
        <pt x="613" y="171" on="0"/>
        <pt x="534" y="68" on="0"/>
        <pt x="414" y="10" on="0"/>
        <pt x="335" y="7" on="1"/>
        <pt x="274" y="2" on="0"/>
        <pt x="215" y="-2" on="1"/>
        <pt x="190" y="-4" on="0"/>
        <pt x="135" y="-6" on="0"/>
        <pt x="81" y="-7" on="0"/>
        <pt x="31" y="-5" on="0"/>
        <pt x="10" y="-3" on="1"/>
        <pt x="33" y="8" on="0"/>
        <pt x="62" y="30" on="0"/>
        <pt x="70" y="38" on="1"/>
        <pt x="79" y="48" on="0"/>
        <pt x="83" y="56" on="1"/>
        <pt x="87" y="67" on="0"/>
        <pt x="91" y="99" on="1"/>
        <pt x="95" y="126" on="0"/>
        <pt x="104" y="226" on="0"/>
        <pt x="109" y="312" on="1"/>
        <pt x="32" y="317" on="1"/>
        <pt x="29" y="382" on="1"/>
        <pt x="113" y="392" on="1"/>
        <pt x="115" y="455" on="0"/>
        <pt x="116" y="536" on="0"/>
        <pt x="114" y="559" on="1"/>
        <pt x="112" y="586" on="0"/>
        <pt x="109" y="599" on="1"/>
        <pt x="105" y="611" on="0"/>
        <pt x="94" y="625" on="1"/>
        <pt x="84" y="637" on="0"/>
        <pt x="49" y="671" on="0"/>
      </contour>
      <contour>
        <pt x="324" y="402" on="1"/>
        <pt x="324" y="332" on="1"/>
        <pt x="231" y="325" on="1"/>
        <pt x="230" y="236" on="0"/>
        <pt x="245" y="141" on="0"/>
        <pt x="255" y="118" on="1"/>
        <pt x="266" y="92" on="0"/>
        <pt x="281" y="88" on="1"/>
        <pt x="300" y="87" on="0"/>
        <pt x="348" y="120" on="0"/>
        <pt x="395" y="188" on="0"/>
        <pt x="433" y="290" on="0"/>
        <pt x="442" y="358" on="1"/>
        <pt x="451" y="426" on="0"/>
        <pt x="424" y="531" on="0"/>
        <pt x="378" y="602" on="0"/>
        <pt x="330" y="639" on="0"/>
        <pt x="318" y="639" on="1"/>
        <pt x="304" y="639" on="0"/>
        <pt x="282" y="624" on="0"/>
        <pt x="262" y="597" on="1"/>
        <pt x="254" y="583" on="0"/>
        <pt x="247" y="557" on="1"/>
        <pt x="241" y="534" on="0"/>
        <pt x="231" y="458" on="0"/>
        <pt x="229" y="398" on="1"/>
      </contour>
    </TTGlyph>
    <TTGlyph name="Euro" xMin="0" yMin="42" xMax="647" yMax="608">
      <contour>
        <pt x="647" y="580" on="1"/>
        <pt x="647" y="566" on="0"/>
        <pt x="646" y="546" on="0"/>
        <pt x="646" y="539" on="1"/>
        <pt x="645" y="531" on="0"/>
        <pt x="645" y="525" on="1"/>
        <pt x="645" y="519" on="0"/>
        <pt x="643" y="509" on="1"/>
        <pt x="641" y="501" on="0"/>
        <pt x="634" y="474" on="0"/>
        <pt x="629" y="454" on="1"/>
        <pt x="581" y="477" on="0"/>
        <pt x="488" y="498" on="0"/>
        <pt x="452" y="503" on="1"/>
        <pt x="410" y="508" on="0"/>
        <pt x="372" y="507" on="1"/>
        <pt x="340" y="503" on="0"/>
        <pt x="308" y="491" on="1"/>
        <pt x="281" y="480" on="0"/>
        <pt x="222" y="436" on="0"/>
        <pt x="201" y="397" on="1"/>
        <pt x="443" y="392" on="1"/>
        <pt x="440" y="340" on="1"/>
        <pt x="416" y="338" on="0"/>
        <pt x="375" y="337" on="0"/>
        <pt x="360" y="335" on="1"/>
        <pt x="342" y="333" on="0"/>
        <pt x="327" y="332" on="1"/>
        <pt x="312" y="330" on="0"/>
        <pt x="292" y="328" on="1"/>
        <pt x="275" y="326" on="0"/>
        <pt x="226" y="322" on="0"/>
        <pt x="194" y="319" on="1"/>
        <pt x="194" y="305" on="0"/>
        <pt x="195" y="301" on="1"/>
        <pt x="196" y="297" on="0"/>
        <pt x="197" y="295" on="1"/>
        <pt x="200" y="289" on="1"/>
        <pt x="202" y="286" on="0"/>
        <pt x="205" y="276" on="0"/>
        <pt x="207" y="270" on="1"/>
        <pt x="451" y="275" on="1"/>
        <pt x="456" y="233" on="1"/>
        <pt x="238" y="205" on="1"/>
        <pt x="241" y="182" on="0"/>
        <pt x="275" y="158" on="0"/>
        <pt x="295" y="151" on="1"/>
        <pt x="318" y="143" on="0"/>
        <pt x="347" y="141" on="1"/>
        <pt x="378" y="141" on="0"/>
        <pt x="420" y="145" on="1"/>
        <pt x="456" y="149" on="0"/>
        <pt x="563" y="168" on="0"/>
        <pt x="632" y="188" on="1"/>
        <pt x="629" y="171" on="0"/>
        <pt x="629" y="160" on="1"/>
        <pt x="629" y="148" on="1"/>
        <pt x="629" y="142" on="0"/>
        <pt x="630" y="132" on="1"/>
        <pt x="631" y="124" on="0"/>
        <pt x="631" y="98" on="0"/>
        <pt x="632" y="80" on="1"/>
        <pt x="578" y="66" on="0"/>
        <pt x="487" y="51" on="0"/>
        <pt x="455" y="47" on="1"/>
        <pt x="417" y="43" on="0"/>
        <pt x="387" y="42" on="1"/>
        <pt x="324" y="43" on="0"/>
        <pt x="269" y="58" on="1"/>
        <pt x="246" y="64" on="0"/>
        <pt x="199" y="84" on="0"/>
        <pt x="158" y="114" on="0"/>
        <pt x="125" y="154" on="0"/>
        <pt x="116" y="180" on="1"/>
        <pt x="24" y="173" on="1"/>
        <pt x="22" y="241" on="1"/>
        <pt x="82" y="249" on="1"/>
        <pt x="79" y="253" on="0"/>
        <pt x="76" y="263" on="0"/>
        <pt x="74" y="268" on="1"/>
        <pt x="72" y="273" on="0"/>
        <pt x="72" y="278" on="1"/>
        <pt x="71" y="280" on="0"/>
        <pt x="71" y="284" on="1"/>
        <pt x="71" y="303" on="1"/>
        <pt x="6" y="302" on="1"/>
        <pt x="0" y="385" on="1"/>
        <pt x="72" y="382" on="1"/>
        <pt x="83" y="425" on="0"/>
        <pt x="120" y="484" on="0"/>
        <pt x="139" y="504" on="1"/>
        <pt x="161" y="526" on="0"/>
        <pt x="185" y="541" on="1"/>
        <pt x="309" y="608" on="0"/>
        <pt x="430" y="596" on="1"/>
        <pt x="490" y="590" on="0"/>
        <pt x="576" y="580" on="0"/>
        <pt x="605" y="580" on="1"/>
        <pt x="625" y="580" on="1"/>
      </contour>
    </TTGlyph>
    <TTGlyph name="F" xMin="20" yMin="-2" xMax="584" yMax="729">
      <contour>
        <pt x="20" y="690" on="1"/>
        <pt x="80" y="685" on="0"/>
        <pt x="171" y="683" on="0"/>
        <pt x="203" y="683" on="1"/>
        <pt x="240" y="683" on="0"/>
        <pt x="267" y="685" on="1"/>
        <pt x="295" y="688" on="0"/>
        <pt x="340" y="693" on="1"/>
        <pt x="378" y="698" on="0"/>
        <pt x="498" y="715" on="0"/>
        <pt x="584" y="729" on="1"/>
        <pt x="573" y="712" on="0"/>
        <pt x="558" y="675" on="0"/>
        <pt x="553" y="660" on="1"/>
        <pt x="548" y="642" on="0"/>
        <pt x="544" y="625" on="1"/>
        <pt x="541" y="606" on="0"/>
        <pt x="537" y="578" on="1"/>
        <pt x="533" y="554" on="0"/>
        <pt x="522" y="481" on="0"/>
        <pt x="514" y="431" on="1"/>
        <pt x="484" y="509" on="0"/>
        <pt x="423" y="593" on="0"/>
        <pt x="397" y="613" on="1"/>
        <pt x="367" y="636" on="0"/>
        <pt x="340" y="639" on="1"/>
        <pt x="301" y="639" on="0"/>
        <pt x="251" y="609" on="0"/>
        <pt x="220" y="562" on="0"/>
        <pt x="204" y="507" on="0"/>
        <pt x="198" y="456" on="0"/>
        <pt x="196" y="417" on="0"/>
        <pt x="195" y="410" on="1"/>
        <pt x="230" y="412" on="0"/>
        <pt x="278" y="418" on="0"/>
        <pt x="292" y="421" on="1"/>
        <pt x="309" y="425" on="0"/>
        <pt x="319" y="429" on="1"/>
        <pt x="334" y="437" on="0"/>
        <pt x="349" y="448" on="1"/>
        <pt x="362" y="458" on="0"/>
        <pt x="391" y="486" on="0"/>
        <pt x="402" y="506" on="1"/>
        <pt x="396" y="470" on="0"/>
        <pt x="387" y="422" on="0"/>
        <pt x="384" y="408" on="1"/>
        <pt x="380" y="391" on="0"/>
        <pt x="379" y="382" on="1"/>
        <pt x="377" y="373" on="0"/>
        <pt x="374" y="357" on="1"/>
        <pt x="371" y="343" on="0"/>
        <pt x="363" y="299" on="0"/>
        <pt x="358" y="266" on="1"/>
        <pt x="346" y="287" on="0"/>
        <pt x="320" y="314" on="0"/>
        <pt x="309" y="322" on="1"/>
        <pt x="296" y="331" on="0"/>
        <pt x="284" y="336" on="1"/>
        <pt x="271" y="340" on="0"/>
        <pt x="256" y="344" on="1"/>
        <pt x="243" y="347" on="0"/>
        <pt x="208" y="354" on="0"/>
        <pt x="188" y="357" on="1"/>
        <pt x="190" y="303" on="0"/>
        <pt x="198" y="226" on="0"/>
        <pt x="201" y="200" on="1"/>
        <pt x="205" y="170" on="0"/>
        <pt x="209" y="150" on="1"/>
        <pt x="214" y="130" on="0"/>
        <pt x="225" y="107" on="1"/>
        <pt x="234" y="87" on="0"/>
        <pt x="267" y="36" on="0"/>
        <pt x="293" y="7" on="1"/>
        <pt x="273" y="12" on="0"/>
        <pt x="229" y="16" on="0"/>
        <pt x="212" y="17" on="1"/>
        <pt x="191" y="18" on="0"/>
        <pt x="172" y="17" on="1"/>
        <pt x="152" y="16" on="0"/>
        <pt x="128" y="13" on="1"/>
        <pt x="108" y="11" on="0"/>
        <pt x="56" y="3" on="0"/>
        <pt x="27" y="-2" on="1"/>
        <pt x="44" y="15" on="0"/>
        <pt x="66" y="49" on="0"/>
        <pt x="71" y="62" on="1"/>
        <pt x="77" y="77" on="0"/>
        <pt x="79" y="91" on="1"/>
        <pt x="80" y="103" on="0"/>
        <pt x="80" y="184" on="0"/>
        <pt x="78" y="293" on="0"/>
        <pt x="74" y="415" on="0"/>
        <pt x="70" y="522" on="0"/>
        <pt x="65" y="598" on="0"/>
        <pt x="62" y="606" on="1"/>
        <pt x="58" y="616" on="0"/>
        <pt x="53" y="629" on="1"/>
        <pt x="45" y="650" on="0"/>
      </contour>
    </TTGlyph>
    <TTGlyph name="G" xMin="-6" yMin="5" xMax="673" yMax="723">
      <contour>
        <pt x="391" y="722" on="1"/>
        <pt x="455" y="723" on="0"/>
        <pt x="538" y="675" on="0"/>
        <pt x="590" y="609" on="0"/>
        <pt x="618" y="542" on="0"/>
        <pt x="626" y="523" on="1"/>
        <pt x="628" y="518" on="0"/>
        <pt x="634" y="510" on="1"/>
        <pt x="639" y="503" on="0"/>
        <pt x="658" y="484" on="0"/>
        <pt x="673" y="472" on="1"/>
        <pt x="642" y="471" on="0"/>
        <pt x="594" y="470" on="0"/>
        <pt x="577" y="469" on="1"/>
        <pt x="558" y="468" on="0"/>
        <pt x="543" y="467" on="1"/>
        <pt x="528" y="466" on="0"/>
        <pt x="506" y="464" on="1"/>
        <pt x="486" y="462" on="0"/>
        <pt x="428" y="458" on="0"/>
        <pt x="386" y="454" on="1"/>
        <pt x="411" y="484" on="0"/>
        <pt x="440" y="531" on="0"/>
        <pt x="455" y="568" on="0"/>
        <pt x="458" y="596" on="0"/>
        <pt x="455" y="606" on="1"/>
        <pt x="449" y="629" on="0"/>
        <pt x="424" y="639" on="1"/>
        <pt x="352" y="659" on="0"/>
        <pt x="245" y="556" on="0"/>
        <pt x="222" y="439" on="1"/>
        <pt x="211" y="381" on="0"/>
        <pt x="192" y="256" on="0"/>
        <pt x="196" y="153" on="0"/>
        <pt x="232" y="89" on="0"/>
        <pt x="276" y="91" on="1"/>
        <pt x="319" y="93" on="0"/>
        <pt x="379" y="118" on="0"/>
        <pt x="415" y="153" on="0"/>
        <pt x="430" y="194" on="0"/>
        <pt x="428" y="212" on="1"/>
        <pt x="424" y="226" on="0"/>
        <pt x="407" y="242" on="1"/>
        <pt x="392" y="256" on="0"/>
        <pt x="332" y="291" on="0"/>
        <pt x="276" y="310" on="1"/>
        <pt x="329" y="313" on="0"/>
        <pt x="398" y="316" on="0"/>
        <pt x="418" y="318" on="1"/>
        <pt x="442" y="320" on="0"/>
        <pt x="455" y="321" on="1"/>
        <pt x="467" y="322" on="0"/>
        <pt x="490" y="323" on="1"/>
        <pt x="510" y="324" on="0"/>
        <pt x="573" y="324" on="0"/>
        <pt x="621" y="325" on="1"/>
        <pt x="603" y="307" on="0"/>
        <pt x="593" y="292" on="1"/>
        <pt x="588" y="284" on="0"/>
        <pt x="584" y="278" on="1"/>
        <pt x="580" y="268" on="0"/>
        <pt x="581" y="237" on="1"/>
        <pt x="581" y="211" on="0"/>
        <pt x="589" y="110" on="0"/>
        <pt x="600" y="23" on="1"/>
        <pt x="467" y="5" on="1"/>
        <pt x="473" y="140" on="1"/>
        <pt x="450" y="85" on="0"/>
        <pt x="381" y="31" on="0"/>
        <pt x="350" y="20" on="1"/>
        <pt x="313" y="7" on="0"/>
        <pt x="273" y="8" on="1"/>
        <pt x="221" y="13" on="0"/>
        <pt x="117" y="51" on="0"/>
        <pt x="37" y="130" on="0"/>
        <pt x="-6" y="256" on="0"/>
        <pt x="2" y="349" on="1"/>
        <pt x="11" y="442" on="0"/>
        <pt x="82" y="581" on="0"/>
        <pt x="188" y="673" on="0"/>
        <pt x="321" y="720" on="0"/>
      </contour>
    </TTGlyph>
    <TTGlyph name="H" xMin="-31" yMin="5" xMax="594" yMax="714">
      <contour>
        <pt x="-31" y="710" on="1"/>
        <pt x="4" y="706" on="0"/>
        <pt x="52" y="703" on="0"/>
        <pt x="66" y="702" on="1"/>
        <pt x="83" y="701" on="0"/>
        <pt x="93" y="701" on="1"/>
        <pt x="110" y="701" on="0"/>
        <pt x="132" y="702" on="1"/>
        <pt x="151" y="703" on="0"/>
        <pt x="202" y="708" on="0"/>
        <pt x="232" y="714" on="1"/>
        <pt x="218" y="699" on="0"/>
        <pt x="200" y="672" on="0"/>
        <pt x="195" y="661" on="1"/>
        <pt x="189" y="649" on="0"/>
        <pt x="185" y="639" on="1"/>
        <pt x="181" y="626" on="0"/>
        <pt x="176" y="599" on="1"/>
        <pt x="171" y="576" on="0"/>
        <pt x="160" y="492" on="0"/>
        <pt x="152" y="424" on="1"/>
        <pt x="186" y="423" on="0"/>
        <pt x="236" y="424" on="0"/>
        <pt x="253" y="424" on="1"/>
        <pt x="286" y="424" on="1"/>
        <pt x="300" y="425" on="0"/>
        <pt x="318" y="426" on="1"/>
        <pt x="348" y="427" on="0"/>
        <pt x="409" y="432" on="1"/>
        <pt x="414" y="478" on="0"/>
        <pt x="415" y="545" on="0"/>
        <pt x="413" y="568" on="1"/>
        <pt x="411" y="594" on="0"/>
        <pt x="407" y="612" on="1"/>
        <pt x="404" y="622" on="0"/>
        <pt x="398" y="636" on="1"/>
        <pt x="393" y="648" on="0"/>
        <pt x="376" y="683" on="0"/>
        <pt x="362" y="708" on="1"/>
        <pt x="388" y="704" on="0"/>
        <pt x="429" y="701" on="0"/>
        <pt x="443" y="700" on="1"/>
        <pt x="459" y="699" on="0"/>
        <pt x="470" y="699" on="1"/>
        <pt x="481" y="699" on="0"/>
        <pt x="499" y="700" on="1"/>
        <pt x="514" y="701" on="0"/>
        <pt x="558" y="702" on="0"/>
        <pt x="590" y="704" on="1"/>
        <pt x="582" y="690" on="0"/>
        <pt x="570" y="660" on="0"/>
        <pt x="566" y="648" on="1"/>
        <pt x="562" y="634" on="0"/>
        <pt x="558" y="620" on="1"/>
        <pt x="553" y="599" on="0"/>
        <pt x="546" y="519" on="0"/>
        <pt x="541" y="421" on="0"/>
        <pt x="538" y="315" on="0"/>
        <pt x="537" y="221" on="0"/>
        <pt x="539" y="148" on="0"/>
        <pt x="542" y="133" on="1"/>
        <pt x="545" y="115" on="0"/>
        <pt x="552" y="96" on="1"/>
        <pt x="558" y="79" on="0"/>
        <pt x="578" y="40" on="0"/>
        <pt x="594" y="23" on="1"/>
        <pt x="353" y="5" on="1"/>
        <pt x="368" y="19" on="0"/>
        <pt x="386" y="46" on="0"/>
        <pt x="391" y="56" on="1"/>
        <pt x="396" y="67" on="0"/>
        <pt x="398" y="77" on="1"/>
        <pt x="399" y="89" on="0"/>
        <pt x="401" y="119" on="1"/>
        <pt x="403" y="144" on="0"/>
        <pt x="407" y="236" on="0"/>
        <pt x="409" y="312" on="1"/>
        <pt x="395" y="312" on="0"/>
        <pt x="356" y="311" on="0"/>
        <pt x="339" y="310" on="1"/>
        <pt x="319" y="309" on="0"/>
        <pt x="297" y="309" on="1"/>
        <pt x="275" y="308" on="0"/>
        <pt x="251" y="307" on="1"/>
        <pt x="231" y="305" on="0"/>
        <pt x="182" y="302" on="0"/>
        <pt x="158" y="300" on="1"/>
        <pt x="156" y="258" on="0"/>
        <pt x="160" y="195" on="0"/>
        <pt x="164" y="173" on="1"/>
        <pt x="168" y="147" on="0"/>
        <pt x="174" y="128" on="1"/>
        <pt x="180" y="110" on="0"/>
        <pt x="187" y="92" on="1"/>
        <pt x="193" y="76" on="0"/>
        <pt x="210" y="40" on="0"/>
        <pt x="219" y="26" on="1"/>
        <pt x="200" y="28" on="0"/>
        <pt x="168" y="31" on="0"/>
        <pt x="156" y="33" on="1"/>
        <pt x="142" y="34" on="0"/>
        <pt x="129" y="35" on="1"/>
        <pt x="116" y="35" on="0"/>
        <pt x="98" y="36" on="1"/>
        <pt x="82" y="37" on="0"/>
        <pt x="34" y="38" on="0"/>
        <pt x="2" y="38" on="1"/>
        <pt x="21" y="57" on="0"/>
        <pt x="44" y="94" on="0"/>
        <pt x="49" y="109" on="1"/>
        <pt x="55" y="127" on="0"/>
        <pt x="57" y="142" on="1"/>
        <pt x="58" y="155" on="0"/>
        <pt x="59" y="227" on="0"/>
        <pt x="58" y="320" on="0"/>
        <pt x="56" y="423" on="0"/>
        <pt x="53" y="513" on="0"/>
        <pt x="50" y="578" on="0"/>
        <pt x="49" y="586" on="1"/>
        <pt x="44" y="604" on="0"/>
        <pt x="34" y="625" on="1"/>
        <pt x="25" y="642" on="0"/>
        <pt x="-5" y="687" on="0"/>
      </contour>
    </TTGlyph>
    <TTGlyph name="I" xMin="10" yMin="-2" xMax="317" yMax="693">
      <contour>
        <pt x="10" y="689" on="1"/>
        <pt x="44" y="685" on="0"/>
        <pt x="91" y="682" on="0"/>
        <pt x="106" y="680" on="1"/>
        <pt x="124" y="678" on="0"/>
        <pt x="134" y="678" on="1"/>
        <pt x="145" y="677" on="0"/>
        <pt x="167" y="679" on="1"/>
        <pt x="186" y="681" on="0"/>
        <pt x="251" y="687" on="0"/>
        <pt x="302" y="693" on="1"/>
        <pt x="279" y="673" on="0"/>
        <pt x="252" y="636" on="0"/>
        <pt x="245" y="622" on="1"/>
        <pt x="236" y="605" on="0"/>
        <pt x="234" y="590" on="1"/>
        <pt x="230" y="566" on="0"/>
        <pt x="225" y="483" on="0"/>
        <pt x="221" y="385" on="0"/>
        <pt x="221" y="281" on="0"/>
        <pt x="224" y="188" on="0"/>
        <pt x="233" y="116" on="0"/>
        <pt x="240" y="100" on="1"/>
        <pt x="250" y="82" on="0"/>
        <pt x="261" y="64" on="1"/>
        <pt x="271" y="49" on="0"/>
        <pt x="299" y="17" on="0"/>
        <pt x="317" y="7" on="1"/>
        <pt x="258" y="10" on="0"/>
        <pt x="223" y="10" on="1"/>
        <pt x="187" y="10" on="1"/>
        <pt x="171" y="10" on="0"/>
        <pt x="146" y="8" on="1"/>
        <pt x="125" y="6" on="0"/>
        <pt x="61" y="2" on="0"/>
        <pt x="16" y="-2" on="1"/>
        <pt x="39" y="23" on="0"/>
        <pt x="65" y="69" on="0"/>
        <pt x="73" y="86" on="1"/>
        <pt x="82" y="106" on="0"/>
        <pt x="85" y="124" on="1"/>
        <pt x="89" y="150" on="0"/>
        <pt x="94" y="227" on="0"/>
        <pt x="96" y="316" on="0"/>
        <pt x="95" y="409" on="0"/>
        <pt x="91" y="495" on="0"/>
        <pt x="84" y="565" on="0"/>
        <pt x="79" y="586" on="1"/>
        <pt x="76" y="599" on="0"/>
        <pt x="67" y="615" on="1"/>
        <pt x="59" y="629" on="0"/>
        <pt x="32" y="666" on="0"/>
      </contour>
    </TTGlyph>
    <TTGlyph name="Iacute" xMin="10" yMin="-2" xMax="317" yMax="904">
      <component glyphName="I" x="0" y="0" flags="0x204"/>
      <component glyphName="acute" x="-163" y="113" flags="0x4"/>
    </TTGlyph>
    <TTGlyph name="Icircumflex" xMin="-12" yMin="-2" xMax="336" yMax="918">
      <component glyphName="I" x="0" y="0" flags="0x204"/>
      <component glyphName="circumflex" x="-204" y="133" flags="0x4"/>
    </TTGlyph>
    <TTGlyph name="Idieresis" xMin="10" yMin="-2" xMax="317" yMax="890">
      <component glyphName="I" x="0" y="0" flags="0x204"/>
      <component glyphName="dieresis" x="-204" y="113" flags="0x4"/>
    </TTGlyph>
    <TTGlyph name="Igrave" xMin="10" yMin="-2" xMax="317" yMax="924">
      <component glyphName="I" x="0" y="0" flags="0x204"/>
      <component glyphName="grave" x="-235" y="123" flags="0x4"/>
    </TTGlyph>
    <TTGlyph name="J" xMin="-77" yMin="-10" xMax="464" yMax="732">
      <contour>
        <pt x="214" y="723" on="1"/>
        <pt x="259" y="717" on="0"/>
        <pt x="290" y="717" on="1"/>
        <pt x="307" y="717" on="0"/>
        <pt x="321" y="718" on="1"/>
        <pt x="335" y="719" on="0"/>
        <pt x="356" y="721" on="1"/>
        <pt x="374" y="723" on="0"/>
        <pt x="428" y="727" on="0"/>
        <pt x="464" y="732" on="1"/>
        <pt x="451" y="722" on="0"/>
        <pt x="437" y="696" on="0"/>
        <pt x="433" y="684" on="1"/>
        <pt x="429" y="670" on="0"/>
        <pt x="427" y="655" on="1"/>
        <pt x="426" y="646" on="0"/>
        <pt x="427" y="590" on="0"/>
        <pt x="428" y="510" on="0"/>
        <pt x="427" y="412" on="0"/>
        <pt x="423" y="311" on="0"/>
        <pt x="415" y="212" on="0"/>
        <pt x="400" y="129" on="0"/>
        <pt x="377" y="68" on="0"/>
        <pt x="361" y="56" on="1"/>
        <pt x="328" y="31" on="0"/>
        <pt x="250" y="0" on="0"/>
        <pt x="174" y="-10" on="0"/>
        <pt x="107" y="-1" on="0"/>
        <pt x="84" y="15" on="1"/>
        <pt x="69" y="26" on="0"/>
        <pt x="43" y="66" on="0"/>
        <pt x="22" y="115" on="0"/>
        <pt x="5" y="168" on="0"/>
        <pt x="-8" y="213" on="0"/>
        <pt x="-17" y="248" on="0"/>
        <pt x="-19" y="254" on="1"/>
        <pt x="-23" y="263" on="0"/>
        <pt x="-41" y="281" on="0"/>
        <pt x="-61" y="295" on="0"/>
        <pt x="-76" y="302" on="0"/>
        <pt x="-77" y="300" on="1"/>
        <pt x="-77" y="298" on="0"/>
        <pt x="-46" y="301" on="0"/>
        <pt x="-2" y="305" on="0"/>
        <pt x="46" y="308" on="0"/>
        <pt x="62" y="307" on="1"/>
        <pt x="75" y="307" on="0"/>
        <pt x="96" y="306" on="1"/>
        <pt x="114" y="305" on="0"/>
        <pt x="170" y="304" on="0"/>
        <pt x="211" y="302" on="1"/>
        <pt x="185" y="294" on="0"/>
        <pt x="154" y="275" on="0"/>
        <pt x="146" y="267" on="1"/>
        <pt x="136" y="257" on="0"/>
        <pt x="132" y="247" on="1"/>
        <pt x="129" y="238" on="0"/>
        <pt x="126" y="183" on="0"/>
        <pt x="136" y="125" on="0"/>
        <pt x="164" y="77" on="0"/>
        <pt x="194" y="74" on="1"/>
        <pt x="226" y="71" on="0"/>
        <pt x="267" y="100" on="0"/>
        <pt x="291" y="150" on="0"/>
        <pt x="303" y="212" on="0"/>
        <pt x="307" y="242" on="1"/>
        <pt x="310" y="262" on="0"/>
        <pt x="308" y="334" on="0"/>
        <pt x="300" y="418" on="0"/>
        <pt x="289" y="508" on="0"/>
        <pt x="279" y="584" on="0"/>
        <pt x="270" y="638" on="0"/>
        <pt x="269" y="645" on="1"/>
        <pt x="265" y="658" on="0"/>
        <pt x="258" y="672" on="1"/>
        <pt x="252" y="683" on="0"/>
        <pt x="231" y="711" on="0"/>
      </contour>
    </TTGlyph>
    <TTGlyph name="K" xMin="0" yMin="-6" xMax="785" yMax="714">
      <contour>
        <pt x="23" y="714" on="1"/>
        <pt x="57" y="709" on="0"/>
        <pt x="110" y="705" on="0"/>
        <pt x="128" y="703" on="1"/>
        <pt x="149" y="701" on="0"/>
        <pt x="164" y="701" on="1"/>
        <pt x="203" y="701" on="1"/>
        <pt x="242" y="701" on="0"/>
        <pt x="332" y="704" on="1"/>
        <pt x="310" y="697" on="0"/>
        <pt x="281" y="671" on="0"/>
        <pt x="272" y="657" on="1"/>
        <pt x="261" y="641" on="0"/>
        <pt x="256" y="624" on="1"/>
        <pt x="250" y="603" on="0"/>
        <pt x="245" y="568" on="1"/>
        <pt x="240" y="537" on="0"/>
        <pt x="231" y="437" on="0"/>
        <pt x="227" y="362" on="1"/>
        <pt x="270" y="411" on="0"/>
        <pt x="335" y="487" on="0"/>
        <pt x="383" y="545" on="0"/>
        <pt x="416" y="587" on="0"/>
        <pt x="427" y="602" on="1"/>
        <pt x="453" y="636" on="0"/>
        <pt x="457" y="648" on="1"/>
        <pt x="458" y="655" on="0"/>
        <pt x="456" y="665" on="1"/>
        <pt x="454" y="673" on="0"/>
        <pt x="446" y="696" on="0"/>
        <pt x="438" y="710" on="1"/>
        <pt x="478" y="708" on="0"/>
        <pt x="535" y="706" on="0"/>
        <pt x="554" y="705" on="1"/>
        <pt x="576" y="704" on="0"/>
        <pt x="590" y="704" on="1"/>
        <pt x="632" y="704" on="1"/>
        <pt x="655" y="704" on="0"/>
        <pt x="729" y="705" on="0"/>
        <pt x="785" y="706" on="1"/>
        <pt x="748" y="697" on="0"/>
        <pt x="682" y="667" on="0"/>
        <pt x="656" y="653" on="1"/>
        <pt x="626" y="636" on="0"/>
        <pt x="600" y="618" on="1"/>
        <pt x="574" y="598" on="0"/>
        <pt x="542" y="571" on="1"/>
        <pt x="515" y="548" on="0"/>
        <pt x="443" y="481" on="0"/>
        <pt x="401" y="437" on="1"/>
        <pt x="446" y="349" on="0"/>
        <pt x="513" y="236" on="0"/>
        <pt x="536" y="202" on="1"/>
        <pt x="562" y="162" on="0"/>
        <pt x="580" y="141" on="1"/>
        <pt x="598" y="122" on="0"/>
        <pt x="622" y="102" on="1"/>
        <pt x="642" y="85" on="0"/>
        <pt x="702" y="44" on="0"/>
        <pt x="741" y="25" on="1"/>
        <pt x="456" y="11" on="1"/>
        <pt x="462" y="19" on="0"/>
        <pt x="465" y="42" on="0"/>
        <pt x="465" y="52" on="1"/>
        <pt x="465" y="63" on="0"/>
        <pt x="463" y="76" on="1"/>
        <pt x="459" y="92" on="0"/>
        <pt x="442" y="128" on="1"/>
        <pt x="428" y="159" on="0"/>
        <pt x="370" y="272" on="0"/>
        <pt x="319" y="365" on="1"/>
        <pt x="234" y="276" on="1"/>
        <pt x="229" y="244" on="0"/>
        <pt x="229" y="192" on="0"/>
        <pt x="231" y="175" on="1"/>
        <pt x="234" y="154" on="0"/>
        <pt x="239" y="139" on="1"/>
        <pt x="245" y="124" on="0"/>
        <pt x="256" y="105" on="1"/>
        <pt x="265" y="88" on="0"/>
        <pt x="295" y="42" on="0"/>
        <pt x="318" y="14" on="1"/>
        <pt x="295" y="20" on="0"/>
        <pt x="249" y="25" on="0"/>
        <pt x="230" y="26" on="1"/>
        <pt x="208" y="27" on="0"/>
        <pt x="188" y="25" on="1"/>
        <pt x="167" y="23" on="0"/>
        <pt x="139" y="19" on="1"/>
        <pt x="115" y="15" on="0"/>
        <pt x="45" y="3" on="0"/>
        <pt x="0" y="-6" on="1"/>
        <pt x="22" y="7" on="0"/>
        <pt x="48" y="37" on="0"/>
        <pt x="56" y="51" on="1"/>
        <pt x="65" y="67" on="0"/>
        <pt x="68" y="82" on="1"/>
        <pt x="70" y="95" on="0"/>
        <pt x="73" y="181" on="0"/>
        <pt x="74" y="296" on="0"/>
        <pt x="72" y="424" on="0"/>
        <pt x="70" y="536" on="0"/>
        <pt x="67" y="615" on="0"/>
        <pt x="66" y="624" on="1"/>
        <pt x="63" y="638" on="0"/>
        <pt x="58" y="654" on="1"/>
        <pt x="53" y="668" on="0"/>
        <pt x="36" y="699" on="0"/>
      </contour>
    </TTGlyph>
    <TTGlyph name="L" xMin="20" yMin="28" xMax="529" yMax="731">
      <contour>
        <pt x="20" y="725" on="1"/>
        <pt x="49" y="720" on="0"/>
        <pt x="94" y="716" on="0"/>
        <pt x="109" y="715" on="1"/>
        <pt x="127" y="714" on="0"/>
        <pt x="140" y="714" on="1"/>
        <pt x="153" y="714" on="0"/>
        <pt x="177" y="716" on="1"/>
        <pt x="197" y="718" on="0"/>
        <pt x="262" y="724" on="0"/>
        <pt x="310" y="731" on="1"/>
        <pt x="296" y="727" on="0"/>
        <pt x="273" y="690" on="0"/>
        <pt x="264" y="669" on="1"/>
        <pt x="253" y="644" on="0"/>
        <pt x="245" y="614" on="1"/>
        <pt x="238" y="587" on="0"/>
        <pt x="217" y="493" on="0"/>
        <pt x="198" y="383" on="0"/>
        <pt x="188" y="270" on="0"/>
        <pt x="195" y="176" on="0"/>
        <pt x="225" y="115" on="0"/>
        <pt x="256" y="113" on="1"/>
        <pt x="303" y="109" on="0"/>
        <pt x="366" y="116" on="0"/>
        <pt x="406" y="130" on="0"/>
        <pt x="428" y="149" on="0"/>
        <pt x="434" y="158" on="1"/>
        <pt x="450" y="181" on="0"/>
        <pt x="484" y="253" on="0"/>
        <pt x="511" y="319" on="0"/>
        <pt x="529" y="365" on="0"/>
        <pt x="529" y="364" on="1"/>
        <pt x="529" y="362" on="0"/>
        <pt x="528" y="321" on="0"/>
        <pt x="527" y="264" on="0"/>
        <pt x="526" y="202" on="0"/>
        <pt x="525" y="180" on="1"/>
        <pt x="524" y="162" on="0"/>
        <pt x="523" y="140" on="1"/>
        <pt x="522" y="121" on="0"/>
        <pt x="521" y="69" on="0"/>
        <pt x="519" y="38" on="1"/>
        <pt x="477" y="41" on="0"/>
        <pt x="401" y="43" on="0"/>
        <pt x="372" y="43" on="1"/>
        <pt x="338" y="43" on="0"/>
        <pt x="309" y="42" on="1"/>
        <pt x="278" y="41" on="0"/>
        <pt x="237" y="39" on="1"/>
        <pt x="202" y="37" on="0"/>
        <pt x="98" y="32" on="0"/>
        <pt x="30" y="28" on="1"/>
        <pt x="38" y="42" on="0"/>
        <pt x="49" y="66" on="0"/>
        <pt x="52" y="74" on="1"/>
        <pt x="56" y="84" on="0"/>
        <pt x="57" y="91" on="1"/>
        <pt x="63" y="123" on="0"/>
        <pt x="71" y="222" on="0"/>
        <pt x="76" y="334" on="0"/>
        <pt x="77" y="451" on="0"/>
        <pt x="75" y="551" on="0"/>
        <pt x="70" y="625" on="0"/>
        <pt x="66" y="639" on="1"/>
        <pt x="61" y="655" on="0"/>
        <pt x="54" y="671" on="1"/>
        <pt x="48" y="685" on="0"/>
        <pt x="31" y="714" on="0"/>
      </contour>
    </TTGlyph>
    <TTGlyph name="Lslash" xMin="-77" yMin="28" xMax="529" yMax="731">
      <contour>
        <pt x="-77" y="307" on="1"/>
        <pt x="-19" y="335" on="0"/>
        <pt x="62" y="377" on="0"/>
        <pt x="76" y="385" on="1"/>
        <pt x="76" y="429" on="0"/>
        <pt x="76" y="511" on="0"/>
        <pt x="73" y="579" on="0"/>
        <pt x="69" y="628" on="0"/>
        <pt x="66" y="639" on="1"/>
        <pt x="61" y="655" on="0"/>
        <pt x="54" y="671" on="1"/>
        <pt x="48" y="685" on="0"/>
        <pt x="31" y="714" on="0"/>
        <pt x="20" y="725" on="1"/>
        <pt x="49" y="720" on="0"/>
        <pt x="94" y="716" on="0"/>
        <pt x="109" y="715" on="1"/>
        <pt x="127" y="714" on="0"/>
        <pt x="140" y="714" on="1"/>
        <pt x="153" y="714" on="0"/>
        <pt x="177" y="716" on="1"/>
        <pt x="197" y="718" on="0"/>
        <pt x="262" y="724" on="0"/>
        <pt x="310" y="731" on="1"/>
        <pt x="296" y="727" on="0"/>
        <pt x="273" y="690" on="0"/>
        <pt x="264" y="669" on="1"/>
        <pt x="253" y="644" on="0"/>
        <pt x="245" y="614" on="1"/>
        <pt x="239" y="590" on="0"/>
        <pt x="220" y="509" on="0"/>
        <pt x="211" y="460" on="1"/>
        <pt x="232" y="472" on="0"/>
        <pt x="280" y="499" on="0"/>
        <pt x="309" y="515" on="1"/>
        <pt x="351" y="423" on="1"/>
        <pt x="289" y="396" on="0"/>
        <pt x="215" y="361" on="0"/>
        <pt x="195" y="351" on="1"/>
        <pt x="190" y="306" on="0"/>
        <pt x="189" y="222" on="0"/>
        <pt x="202" y="156" on="0"/>
        <pt x="231" y="115" on="0"/>
        <pt x="256" y="113" on="1"/>
        <pt x="303" y="109" on="0"/>
        <pt x="366" y="116" on="0"/>
        <pt x="406" y="130" on="0"/>
        <pt x="428" y="149" on="0"/>
        <pt x="434" y="158" on="1"/>
        <pt x="450" y="181" on="0"/>
        <pt x="484" y="253" on="0"/>
        <pt x="511" y="319" on="0"/>
        <pt x="529" y="365" on="0"/>
        <pt x="529" y="364" on="1"/>
        <pt x="529" y="362" on="0"/>
        <pt x="528" y="321" on="0"/>
        <pt x="527" y="264" on="0"/>
        <pt x="526" y="202" on="0"/>
        <pt x="525" y="180" on="1"/>
        <pt x="524" y="162" on="0"/>
        <pt x="523" y="140" on="1"/>
        <pt x="522" y="121" on="0"/>
        <pt x="521" y="69" on="0"/>
        <pt x="519" y="38" on="1"/>
        <pt x="477" y="41" on="0"/>
        <pt x="401" y="43" on="0"/>
        <pt x="372" y="43" on="1"/>
        <pt x="338" y="43" on="0"/>
        <pt x="309" y="42" on="1"/>
        <pt x="278" y="41" on="0"/>
        <pt x="237" y="39" on="1"/>
        <pt x="202" y="37" on="0"/>
        <pt x="98" y="32" on="0"/>
        <pt x="30" y="28" on="1"/>
        <pt x="38" y="42" on="0"/>
        <pt x="49" y="66" on="0"/>
        <pt x="52" y="74" on="1"/>
        <pt x="56" y="84" on="0"/>
        <pt x="57" y="91" on="1"/>
        <pt x="63" y="124" on="0"/>
        <pt x="72" y="224" on="0"/>
        <pt x="74" y="281" on="1"/>
        <pt x="54" y="269" on="0"/>
        <pt x="4" y="239" on="0"/>
        <pt x="-27" y="220" on="1"/>
      </contour>
    </TTGlyph>
    <TTGlyph name="M" xMin="-46" yMin="-10" xMax="822" yMax="718">
      <contour>
        <pt x="-5" y="717" on="1"/>
        <pt x="27" y="716" on="0"/>
        <pt x="75" y="717" on="0"/>
        <pt x="90" y="717" on="1"/>
        <pt x="119" y="717" on="1"/>
        <pt x="130" y="718" on="0"/>
        <pt x="146" y="718" on="1"/>
        <pt x="160" y="718" on="0"/>
        <pt x="200" y="718" on="0"/>
        <pt x="226" y="717" on="1"/>
        <pt x="234" y="689" on="0"/>
        <pt x="255" y="636" on="0"/>
        <pt x="263" y="615" on="1"/>
        <pt x="273" y="590" on="0"/>
        <pt x="283" y="568" on="1"/>
        <pt x="293" y="546" on="0"/>
        <pt x="307" y="515" on="1"/>
        <pt x="319" y="489" on="0"/>
        <pt x="353" y="414" on="0"/>
        <pt x="376" y="366" on="1"/>
        <pt x="387" y="397" on="0"/>
        <pt x="406" y="449" on="0"/>
        <pt x="413" y="468" on="1"/>
        <pt x="421" y="490" on="0"/>
        <pt x="426" y="508" on="1"/>
        <pt x="431" y="526" on="0"/>
        <pt x="437" y="552" on="1"/>
        <pt x="442" y="574" on="0"/>
        <pt x="455" y="636" on="0"/>
        <pt x="462" y="677" on="1"/>
        <pt x="491" y="677" on="0"/>
        <pt x="537" y="677" on="0"/>
        <pt x="554" y="678" on="1"/>
        <pt x="573" y="678" on="0"/>
        <pt x="588" y="679" on="1"/>
        <pt x="604" y="679" on="0"/>
        <pt x="631" y="681" on="1"/>
        <pt x="654" y="683" on="0"/>
        <pt x="731" y="686" on="0"/>
        <pt x="788" y="689" on="1"/>
        <pt x="767" y="674" on="0"/>
        <pt x="742" y="645" on="0"/>
        <pt x="735" y="634" on="1"/>
        <pt x="727" y="621" on="0"/>
        <pt x="725" y="609" on="1"/>
        <pt x="723" y="599" on="0"/>
        <pt x="720" y="527" on="0"/>
        <pt x="717" y="428" on="0"/>
        <pt x="716" y="316" on="0"/>
        <pt x="718" y="216" on="0"/>
        <pt x="723" y="143" on="0"/>
        <pt x="728" y="133" on="1"/>
        <pt x="735" y="121" on="0"/>
        <pt x="747" y="105" on="1"/>
        <pt x="758" y="91" on="0"/>
        <pt x="793" y="55" on="0"/>
        <pt x="822" y="33" on="1"/>
        <pt x="776" y="31" on="0"/>
        <pt x="715" y="29" on="0"/>
        <pt x="695" y="28" on="1"/>
        <pt x="672" y="27" on="0"/>
        <pt x="658" y="27" on="1"/>
        <pt x="643" y="27" on="0"/>
        <pt x="617" y="26" on="1"/>
        <pt x="594" y="25" on="0"/>
        <pt x="518" y="22" on="0"/>
        <pt x="458" y="19" on="1"/>
        <pt x="472" y="35" on="0"/>
        <pt x="496" y="67" on="0"/>
        <pt x="504" y="80" on="1"/>
        <pt x="514" y="95" on="0"/>
        <pt x="521" y="109" on="1"/>
        <pt x="528" y="128" on="0"/>
        <pt x="532" y="178" on="1"/>
        <pt x="536" y="221" on="0"/>
        <pt x="540" y="382" on="0"/>
        <pt x="538" y="518" on="1"/>
        <pt x="519" y="487" on="0"/>
        <pt x="490" y="426" on="0"/>
        <pt x="479" y="401" on="1"/>
        <pt x="467" y="372" on="0"/>
        <pt x="457" y="345" on="1"/>
        <pt x="447" y="317" on="0"/>
        <pt x="436" y="283" on="1"/>
        <pt x="426" y="254" on="0"/>
        <pt x="399" y="174" on="0"/>
        <pt x="382" y="126" on="1"/>
        <pt x="344" y="124" on="1"/>
        <pt x="336" y="164" on="0"/>
        <pt x="320" y="229" on="0"/>
        <pt x="312" y="252" on="1"/>
        <pt x="303" y="279" on="0"/>
        <pt x="294" y="300" on="1"/>
        <pt x="284" y="321" on="0"/>
        <pt x="272" y="347" on="1"/>
        <pt x="261" y="369" on="0"/>
        <pt x="230" y="429" on="0"/>
        <pt x="210" y="466" on="1"/>
        <pt x="200" y="364" on="0"/>
        <pt x="196" y="237" on="0"/>
        <pt x="198" y="202" on="1"/>
        <pt x="200" y="160" on="0"/>
        <pt x="204" y="141" on="1"/>
        <pt x="210" y="124" on="0"/>
        <pt x="223" y="103" on="1"/>
        <pt x="234" y="85" on="0"/>
        <pt x="273" y="36" on="0"/>
        <pt x="304" y="6" on="1"/>
        <pt x="282" y="6" on="0"/>
        <pt x="234" y="6" on="0"/>
        <pt x="214" y="5" on="1"/>
        <pt x="190" y="4" on="0"/>
        <pt x="167" y="4" on="1"/>
        <pt x="143" y="3" on="0"/>
        <pt x="111" y="1" on="1"/>
        <pt x="83" y="-1" on="0"/>
        <pt x="5" y="-5" on="0"/>
        <pt x="-46" y="-10" on="1"/>
        <pt x="-24" y="4" on="0"/>
        <pt x="4" y="31" on="0"/>
        <pt x="12" y="42" on="1"/>
        <pt x="22" y="55" on="0"/>
        <pt x="27" y="68" on="1"/>
        <pt x="30" y="76" on="0"/>
        <pt x="35" y="130" on="0"/>
        <pt x="40" y="208" on="0"/>
        <pt x="43" y="304" on="0"/>
        <pt x="46" y="403" on="0"/>
        <pt x="48" y="498" on="0"/>
        <pt x="49" y="575" on="0"/>
        <pt x="49" y="627" on="0"/>
        <pt x="49" y="634" on="1"/>
        <pt x="46" y="649" on="0"/>
        <pt x="40" y="664" on="1"/>
        <pt x="35" y="677" on="0"/>
        <pt x="13" y="705" on="0"/>
      </contour>
    </TTGlyph>
    <TTGlyph name="N" xMin="-5" yMin="5" xMax="674" yMax="709">
      <contour>
        <pt x="-5" y="709" on="1"/>
        <pt x="40" y="701" on="0"/>
        <pt x="98" y="695" on="0"/>
        <pt x="116" y="693" on="1"/>
        <pt x="137" y="691" on="0"/>
        <pt x="149" y="692" on="1"/>
        <pt x="179" y="692" on="1"/>
        <pt x="195" y="692" on="0"/>
        <pt x="244" y="693" on="0"/>
        <pt x="281" y="693" on="1"/>
        <pt x="302" y="644" on="0"/>
        <pt x="337" y="562" on="0"/>
        <pt x="349" y="533" on="1"/>
        <pt x="363" y="498" on="0"/>
        <pt x="375" y="470" on="1"/>
        <pt x="389" y="435" on="0"/>
        <pt x="421" y="351" on="0"/>
        <pt x="448" y="277" on="0"/>
        <pt x="466" y="229" on="0"/>
        <pt x="466" y="231" on="1"/>
        <pt x="466" y="232" on="0"/>
        <pt x="468" y="271" on="0"/>
        <pt x="470" y="330" on="0"/>
        <pt x="473" y="401" on="0"/>
        <pt x="474" y="468" on="0"/>
        <pt x="474" y="524" on="0"/>
        <pt x="472" y="538" on="1"/>
        <pt x="469" y="555" on="0"/>
        <pt x="460" y="577" on="1"/>
        <pt x="452" y="596" on="0"/>
        <pt x="424" y="649" on="0"/>
        <pt x="399" y="683" on="1"/>
        <pt x="440" y="682" on="0"/>
        <pt x="492" y="682" on="0"/>
        <pt x="508" y="682" on="1"/>
        <pt x="526" y="682" on="0"/>
        <pt x="536" y="683" on="1"/>
        <pt x="549" y="683" on="0"/>
        <pt x="568" y="685" on="1"/>
        <pt x="585" y="687" on="0"/>
        <pt x="636" y="690" on="0"/>
        <pt x="674" y="693" on="1"/>
        <pt x="652" y="673" on="0"/>
        <pt x="626" y="637" on="0"/>
        <pt x="618" y="623" on="1"/>
        <pt x="609" y="607" on="0"/>
        <pt x="606" y="593" on="1"/>
        <pt x="602" y="575" on="0"/>
        <pt x="597" y="494" on="0"/>
        <pt x="592" y="394" on="0"/>
        <pt x="588" y="286" on="0"/>
        <pt x="586" y="241" on="1"/>
        <pt x="586" y="207" on="0"/>
        <pt x="584" y="168" on="1"/>
        <pt x="582" y="135" on="0"/>
        <pt x="578" y="52" on="0"/>
        <pt x="575" y="10" on="1"/>
        <pt x="486" y="8" on="1"/>
        <pt x="447" y="77" on="0"/>
        <pt x="394" y="176" on="0"/>
        <pt x="377" y="208" on="1"/>
        <pt x="358" y="245" on="0"/>
        <pt x="345" y="270" on="1"/>
        <pt x="334" y="294" on="0"/>
        <pt x="316" y="325" on="1"/>
        <pt x="301" y="351" on="0"/>
        <pt x="256" y="427" on="0"/>
        <pt x="225" y="476" on="1"/>
        <pt x="222" y="407" on="0"/>
        <pt x="223" y="310" on="0"/>
        <pt x="225" y="278" on="1"/>
        <pt x="228" y="241" on="0"/>
        <pt x="232" y="216" on="1"/>
        <pt x="237" y="192" on="0"/>
        <pt x="246" y="162" on="1"/>
        <pt x="254" y="136" on="0"/>
        <pt x="277" y="66" on="0"/>
        <pt x="294" y="22" on="1"/>
        <pt x="235" y="25" on="0"/>
        <pt x="206" y="25" on="1"/>
        <pt x="176" y="25" on="1"/>
        <pt x="162" y="25" on="0"/>
        <pt x="138" y="22" on="1"/>
        <pt x="118" y="20" on="0"/>
        <pt x="49" y="12" on="0"/>
        <pt x="-2" y="5" on="1"/>
        <pt x="22" y="34" on="0"/>
        <pt x="51" y="83" on="0"/>
        <pt x="59" y="100" on="1"/>
        <pt x="69" y="120" on="0"/>
        <pt x="73" y="135" on="1"/>
        <pt x="76" y="151" on="0"/>
        <pt x="78" y="230" on="0"/>
        <pt x="77" y="331" on="0"/>
        <pt x="74" y="443" on="0"/>
        <pt x="70" y="539" on="0"/>
        <pt x="65" y="607" on="0"/>
        <pt x="64" y="615" on="1"/>
        <pt x="61" y="628" on="0"/>
        <pt x="52" y="643" on="1"/>
        <pt x="44" y="656" on="0"/>
        <pt x="18" y="689" on="0"/>
      </contour>
    </TTGlyph>
    <TTGlyph name="Ntilde" xMin="-5" yMin="5" xMax="674" yMax="910">
      <component glyphName="N" x="0" y="0" flags="0x204"/>
      <component glyphName="tilde" x="-50" y="123" flags="0x4"/>
    </TTGlyph>
    <TTGlyph name="O" xMin="18" yMin="4" xMax="715" yMax="756">
      <contour>
        <pt x="375" y="754" on="1"/>
        <pt x="429" y="752" on="0"/>
        <pt x="540" y="717" on="0"/>
        <pt x="634" y="640" on="0"/>
        <pt x="700" y="519" on="0"/>
        <pt x="708" y="432" on="1"/>
        <pt x="715" y="361" on="0"/>
        <pt x="666" y="222" on="0"/>
        <pt x="580" y="106" on="0"/>
        <pt x="468" y="25" on="0"/>
        <pt x="412" y="12" on="1"/>
        <pt x="378" y="4" on="0"/>
        <pt x="297" y="17" on="0"/>
        <pt x="214" y="54" on="0"/>
        <pt x="135" y="112" on="0"/>
        <pt x="71" y="187" on="0"/>
        <pt x="28" y="275" on="0"/>
        <pt x="23" y="323" on="1"/>
        <pt x="18" y="363" on="0"/>
        <pt x="27" y="460" on="0"/>
        <pt x="56" y="557" on="0"/>
        <pt x="109" y="648" on="0"/>
        <pt x="191" y="717" on="0"/>
        <pt x="302" y="756" on="0"/>
      </contour>
      <contour>
        <pt x="196" y="349" on="1"/>
        <pt x="182" y="242" on="0"/>
        <pt x="251" y="112" on="0"/>
        <pt x="321" y="98" on="1"/>
        <pt x="355" y="91" on="0"/>
        <pt x="418" y="134" on="0"/>
        <pt x="470" y="216" on="0"/>
        <pt x="508" y="326" on="0"/>
        <pt x="517" y="386" on="1"/>
        <pt x="526" y="446" on="0"/>
        <pt x="511" y="543" on="0"/>
        <pt x="475" y="612" on="0"/>
        <pt x="424" y="650" on="0"/>
        <pt x="397" y="652" on="1"/>
        <pt x="350" y="655" on="0"/>
        <pt x="280" y="600" on="0"/>
        <pt x="232" y="512" on="0"/>
        <pt x="203" y="402" on="0"/>
      </contour>
    </TTGlyph>
    <TTGlyph name="OE" xMin="13" yMin="-14" xMax="1031" yMax="699">
      <contour>
        <pt x="441" y="699" on="1"/>
        <pt x="511" y="698" on="0"/>
        <pt x="605" y="697" on="0"/>
        <pt x="634" y="697" on="1"/>
        <pt x="686" y="697" on="1"/>
        <pt x="984" y="697" on="1"/>
        <pt x="984" y="683" on="0"/>
        <pt x="984" y="654" on="0"/>
        <pt x="983" y="641" on="1"/>
        <pt x="982" y="626" on="0"/>
        <pt x="982" y="612" on="1"/>
        <pt x="981" y="598" on="0"/>
        <pt x="980" y="580" on="1"/>
        <pt x="979" y="565" on="0"/>
        <pt x="977" y="524" on="0"/>
        <pt x="975" y="501" on="1"/>
        <pt x="961" y="555" on="0"/>
        <pt x="913" y="612" on="0"/>
        <pt x="889" y="625" on="1"/>
        <pt x="861" y="640" on="0"/>
        <pt x="830" y="641" on="1"/>
        <pt x="789" y="639" on="0"/>
        <pt x="743" y="629" on="0"/>
        <pt x="717" y="611" on="0"/>
        <pt x="705" y="588" on="0"/>
        <pt x="698" y="574" on="1"/>
        <pt x="692" y="561" on="0"/>
        <pt x="687" y="536" on="1"/>
        <pt x="682" y="515" on="0"/>
        <pt x="672" y="443" on="0"/>
        <pt x="667" y="387" on="1"/>
        <pt x="694" y="395" on="0"/>
        <pt x="727" y="409" on="0"/>
        <pt x="737" y="414" on="1"/>
        <pt x="748" y="420" on="0"/>
        <pt x="753" y="425" on="1"/>
        <pt x="757" y="431" on="0"/>
        <pt x="765" y="447" on="1"/>
        <pt x="771" y="461" on="0"/>
        <pt x="792" y="508" on="0"/>
        <pt x="807" y="550" on="1"/>
        <pt x="809" y="504" on="0"/>
        <pt x="810" y="444" on="0"/>
        <pt x="811" y="425" on="1"/>
        <pt x="812" y="403" on="0"/>
        <pt x="812" y="390" on="1"/>
        <pt x="812" y="352" on="1"/>
        <pt x="812" y="331" on="0"/>
        <pt x="813" y="260" on="0"/>
        <pt x="814" y="206" on="1"/>
        <pt x="803" y="243" on="0"/>
        <pt x="784" y="286" on="0"/>
        <pt x="777" y="297" on="1"/>
        <pt x="769" y="310" on="0"/>
        <pt x="763" y="315" on="1"/>
        <pt x="756" y="317" on="0"/>
        <pt x="744" y="319" on="1"/>
        <pt x="733" y="320" on="0"/>
        <pt x="700" y="320" on="0"/>
        <pt x="674" y="315" on="1"/>
        <pt x="671" y="259" on="0"/>
        <pt x="676" y="193" on="0"/>
        <pt x="681" y="175" on="1"/>
        <pt x="686" y="154" on="0"/>
        <pt x="693" y="145" on="1"/>
        <pt x="702" y="136" on="0"/>
        <pt x="756" y="125" on="0"/>
        <pt x="825" y="128" on="0"/>
        <pt x="898" y="148" on="0"/>
        <pt x="926" y="171" on="1"/>
        <pt x="948" y="189" on="0"/>
        <pt x="966" y="212" on="1"/>
        <pt x="982" y="232" on="0"/>
        <pt x="1014" y="285" on="0"/>
        <pt x="1022" y="317" on="1"/>
        <pt x="1024" y="281" on="0"/>
        <pt x="1027" y="231" on="0"/>
        <pt x="1027" y="215" on="1"/>
        <pt x="1027" y="186" on="1"/>
        <pt x="1027" y="156" on="1"/>
        <pt x="1027" y="140" on="0"/>
        <pt x="1029" y="89" on="0"/>
        <pt x="1031" y="52" on="1"/>
        <pt x="984" y="51" on="0"/>
        <pt x="900" y="50" on="0"/>
        <pt x="868" y="49" on="1"/>
        <pt x="830" y="48" on="0"/>
        <pt x="798" y="47" on="1"/>
        <pt x="764" y="47" on="0"/>
        <pt x="724" y="44" on="1"/>
        <pt x="689" y="42" on="0"/>
        <pt x="594" y="33" on="0"/>
        <pt x="537" y="26" on="1"/>
        <pt x="540" y="141" on="1"/>
        <pt x="532" y="112" on="0"/>
        <pt x="505" y="67" on="0"/>
        <pt x="472" y="34" on="0"/>
        <pt x="434" y="12" on="0"/>
        <pt x="416" y="5" on="1"/>
        <pt x="373" y="-12" on="0"/>
        <pt x="322" y="-14" on="1"/>
        <pt x="267" y="-14" on="0"/>
        <pt x="161" y="24" on="0"/>
        <pt x="76" y="113" on="0"/>
        <pt x="20" y="259" on="0"/>
        <pt x="16" y="367" on="1"/>
        <pt x="13" y="427" on="0"/>
        <pt x="46" y="539" on="0"/>
        <pt x="116" y="625" on="0"/>
        <pt x="224" y="678" on="0"/>
        <pt x="297" y="680" on="1"/>
        <pt x="349" y="679" on="0"/>
        <pt x="396" y="666" on="1"/>
        <pt x="416" y="660" on="0"/>
        <pt x="457" y="643" on="0"/>
        <pt x="495" y="617" on="0"/>
        <pt x="528" y="581" on="0"/>
        <pt x="540" y="557" on="1"/>
        <pt x="536" y="583" on="0"/>
        <pt x="530" y="615" on="0"/>
        <pt x="528" y="624" on="1"/>
        <pt x="525" y="635" on="0"/>
        <pt x="523" y="639" on="1"/>
        <pt x="518" y="646" on="0"/>
        <pt x="507" y="656" on="1"/>
        <pt x="498" y="664" on="0"/>
        <pt x="466" y="686" on="0"/>
      </contour>
      <contour>
        <pt x="177" y="378" on="1"/>
        <pt x="175" y="354" on="0"/>
        <pt x="179" y="291" on="0"/>
        <pt x="193" y="224" on="0"/>
        <pt x="216" y="160" on="0"/>
        <pt x="247" y="109" on="0"/>
        <pt x="287" y="79" on="0"/>
        <pt x="311" y="79" on="1"/>
        <pt x="349" y="80" on="0"/>
        <pt x="408" y="132" on="0"/>
        <pt x="449" y="213" on="0"/>
        <pt x="470" y="313" on="0"/>
        <pt x="470" y="363" on="1"/>
        <pt x="470" y="463" on="0"/>
        <pt x="391" y="577" on="0"/>
        <pt x="325" y="576" on="1"/>
        <pt x="299" y="576" on="0"/>
        <pt x="249" y="542" on="0"/>
        <pt x="208" y="486" on="0"/>
        <pt x="180" y="415" on="0"/>
      </contour>
    </TTGlyph>
    <TTGlyph name="Oacute" xMin="18" yMin="4" xMax="715" yMax="955">
      <component glyphName="O" x="0" y="0" flags="0x204"/>
      <component glyphName="acute" x="51" y="164" flags="0x4"/>
    </TTGlyph>
    <TTGlyph name="Ocircumflex" xMin="18" yMin="4" xMax="715" yMax="959">
      <component glyphName="O" x="0" y="0" flags="0x204"/>
      <component glyphName="circumflex" x="10" y="174" flags="0x4"/>
    </TTGlyph>
    <TTGlyph name="Odieresis" xMin="18" yMin="4" xMax="715" yMax="941">
      <component glyphName="O" x="0" y="0" flags="0x204"/>
      <component glyphName="dieresis" x="10" y="164" flags="0x4"/>
    </TTGlyph>
    <TTGlyph name="Ograve" xMin="18" yMin="4" xMax="715" yMax="965">
      <component glyphName="O" x="0" y="0" flags="0x204"/>
      <component glyphName="grave" x="41" y="164" flags="0x4"/>
    </TTGlyph>
    <TTGlyph name="Oslash" xMin="28" yMin="-84" xMax="729" yMax="790">
      <contour>
        <pt x="622" y="619" on="1"/>
        <pt x="623" y="619" on="0"/>
        <pt x="659" y="583" on="0"/>
        <pt x="699" y="512" on="0"/>
        <pt x="729" y="405" on="0"/>
        <pt x="726" y="334" on="1"/>
        <pt x="724" y="289" on="0"/>
        <pt x="699" y="197" on="0"/>
        <pt x="646" y="111" on="0"/>
        <pt x="564" y="36" on="0"/>
        <pt x="506" y="9" on="1"/>
        <pt x="449" y="-17" on="0"/>
        <pt x="343" y="-22" on="0"/>
        <pt x="260" y="-7" on="0"/>
        <pt x="209" y="13" on="0"/>
        <pt x="208" y="12" on="1"/>
        <pt x="206" y="9" on="0"/>
        <pt x="196" y="-5" on="0"/>
        <pt x="181" y="-26" on="1"/>
        <pt x="175" y="-34" on="0"/>
        <pt x="170" y="-44" on="1"/>
        <pt x="165" y="-52" on="0"/>
        <pt x="155" y="-73" on="0"/>
        <pt x="151" y="-84" on="1"/>
        <pt x="71" y="-16" on="1"/>
        <pt x="133" y="52" on="1"/>
        <pt x="107" y="71" on="0"/>
        <pt x="72" y="120" on="0"/>
        <pt x="49" y="176" on="0"/>
        <pt x="37" y="234" on="0"/>
        <pt x="34" y="261" on="1"/>
        <pt x="28" y="325" on="0"/>
        <pt x="36" y="395" on="1"/>
        <pt x="50" y="486" on="0"/>
        <pt x="115" y="600" on="0"/>
        <pt x="194" y="667" on="0"/>
        <pt x="280" y="697" on="0"/>
        <pt x="315" y="705" on="1"/>
        <pt x="343" y="710" on="0"/>
        <pt x="377" y="709" on="1"/>
        <pt x="406" y="708" on="0"/>
        <pt x="485" y="693" on="0"/>
        <pt x="530" y="673" on="1"/>
        <pt x="539" y="687" on="0"/>
        <pt x="554" y="714" on="0"/>
        <pt x="559" y="724" on="1"/>
        <pt x="565" y="735" on="0"/>
        <pt x="571" y="746" on="1"/>
        <pt x="573" y="752" on="0"/>
        <pt x="577" y="759" on="1"/>
        <pt x="579" y="765" on="0"/>
        <pt x="586" y="781" on="0"/>
        <pt x="589" y="790" on="1"/>
        <pt x="692" y="710" on="1"/>
        <pt x="685" y="706" on="0"/>
        <pt x="674" y="695" on="0"/>
        <pt x="669" y="690" on="1"/>
        <pt x="664" y="684" on="0"/>
        <pt x="658" y="677" on="1"/>
        <pt x="651" y="668" on="0"/>
        <pt x="645" y="658" on="1"/>
        <pt x="640" y="650" on="0"/>
        <pt x="627" y="630" on="0"/>
      </contour>
      <contour>
        <pt x="393" y="316" on="1"/>
        <pt x="382" y="300" on="0"/>
        <pt x="367" y="277" on="1"/>
        <pt x="354" y="257" on="0"/>
        <pt x="316" y="199" on="0"/>
        <pt x="293" y="160" on="1"/>
        <pt x="302" y="134" on="0"/>
        <pt x="327" y="99" on="0"/>
        <pt x="356" y="79" on="0"/>
        <pt x="386" y="70" on="0"/>
        <pt x="401" y="69" on="1"/>
        <pt x="435" y="67" on="0"/>
        <pt x="473" y="83" on="1"/>
        <pt x="509" y="105" on="0"/>
        <pt x="528" y="155" on="1"/>
        <pt x="536" y="176" on="0"/>
        <pt x="548" y="235" on="0"/>
        <pt x="548" y="313" on="0"/>
        <pt x="535" y="412" on="0"/>
        <pt x="519" y="474" on="1"/>
        <pt x="485" y="433" on="0"/>
        <pt x="438" y="374" on="0"/>
        <pt x="423" y="354" on="1"/>
        <pt x="405" y="331" on="0"/>
      </contour>
      <contour>
        <pt x="252" y="234" on="1"/>
        <pt x="277" y="269" on="0"/>
        <pt x="311" y="320" on="0"/>
        <pt x="322" y="337" on="1"/>
        <pt x="334" y="356" on="0"/>
        <pt x="343" y="369" on="1"/>
        <pt x="352" y="383" on="0"/>
        <pt x="368" y="409" on="1"/>
        <pt x="382" y="432" on="0"/>
        <pt x="427" y="508" on="0"/>
        <pt x="462" y="568" on="1"/>
        <pt x="438" y="609" on="0"/>
        <pt x="387" y="636" on="0"/>
        <pt x="366" y="638" on="1"/>
        <pt x="341" y="639" on="0"/>
        <pt x="319" y="628" on="1"/>
        <pt x="272" y="594" on="0"/>
        <pt x="246" y="539" on="1"/>
        <pt x="235" y="515" on="0"/>
        <pt x="219" y="455" on="0"/>
        <pt x="217" y="379" on="0"/>
        <pt x="232" y="288" on="0"/>
      </contour>
    </TTGlyph>
    <TTGlyph name="Otilde" xMin="18" yMin="4" xMax="715" yMax="961">
      <component glyphName="O" x="0" y="0" flags="0x204"/>
      <component glyphName="tilde" x="20" y="174" flags="0x4"/>
    </TTGlyph>
    <TTGlyph name="P" xMin="-36" yMin="-1" xMax="611" yMax="727">
      <contour>
        <pt x="-36" y="716" on="1"/>
        <pt x="2" y="707" on="0"/>
        <pt x="63" y="698" on="0"/>
        <pt x="84" y="696" on="1"/>
        <pt x="109" y="693" on="0"/>
        <pt x="128" y="694" on="1"/>
        <pt x="152" y="695" on="0"/>
        <pt x="224" y="707" on="0"/>
        <pt x="304" y="719" on="0"/>
        <pt x="382" y="727" on="0"/>
        <pt x="411" y="724" on="1"/>
        <pt x="440" y="721" on="0"/>
        <pt x="504" y="700" on="0"/>
        <pt x="560" y="665" on="0"/>
        <pt x="601" y="615" on="0"/>
        <pt x="606" y="582" on="1"/>
        <pt x="611" y="550" on="0"/>
        <pt x="589" y="477" on="0"/>
        <pt x="541" y="408" on="0"/>
        <pt x="469" y="350" on="0"/>
        <pt x="425" y="332" on="1"/>
        <pt x="390" y="319" on="0"/>
        <pt x="349" y="312" on="1"/>
        <pt x="314" y="306" on="0"/>
        <pt x="221" y="303" on="0"/>
        <pt x="169" y="314" on="1"/>
        <pt x="162" y="285" on="0"/>
        <pt x="161" y="236" on="0"/>
        <pt x="163" y="217" on="1"/>
        <pt x="166" y="195" on="0"/>
        <pt x="171" y="177" on="1"/>
        <pt x="177" y="159" on="0"/>
        <pt x="186" y="135" on="1"/>
        <pt x="194" y="115" on="0"/>
        <pt x="215" y="58" on="0"/>
        <pt x="230" y="23" on="1"/>
        <pt x="212" y="23" on="0"/>
        <pt x="178" y="22" on="0"/>
        <pt x="164" y="21" on="1"/>
        <pt x="148" y="20" on="0"/>
        <pt x="134" y="19" on="1"/>
        <pt x="118" y="18" on="0"/>
        <pt x="98" y="15" on="1"/>
        <pt x="81" y="13" on="0"/>
        <pt x="30" y="5" on="0"/>
        <pt x="-2" y="-1" on="1"/>
        <pt x="19" y="29" on="0"/>
        <pt x="44" y="80" on="0"/>
        <pt x="50" y="99" on="1"/>
        <pt x="57" y="121" on="0"/>
        <pt x="59" y="139" on="1"/>
        <pt x="60" y="154" on="0"/>
        <pt x="59" y="230" on="0"/>
        <pt x="57" y="330" on="0"/>
        <pt x="53" y="440" on="0"/>
        <pt x="47" y="537" on="0"/>
        <pt x="40" y="607" on="0"/>
        <pt x="37" y="618" on="1"/>
        <pt x="33" y="631" on="0"/>
        <pt x="23" y="646" on="1"/>
        <pt x="15" y="659" on="0"/>
        <pt x="-14" y="694" on="0"/>
      </contour>
      <contour>
        <pt x="171" y="519" on="1"/>
        <pt x="170" y="509" on="0"/>
        <pt x="170" y="498" on="1"/>
        <pt x="170" y="477" on="0"/>
        <pt x="173" y="444" on="1"/>
        <pt x="180" y="427" on="0"/>
        <pt x="201" y="405" on="0"/>
        <pt x="226" y="393" on="0"/>
        <pt x="252" y="389" on="0"/>
        <pt x="265" y="389" on="1"/>
        <pt x="295" y="390" on="0"/>
        <pt x="328" y="403" on="1"/>
        <pt x="372" y="422" on="0"/>
        <pt x="408" y="492" on="0"/>
        <pt x="410" y="566" on="0"/>
        <pt x="383" y="628" on="0"/>
        <pt x="364" y="639" on="1"/>
        <pt x="348" y="646" on="0"/>
        <pt x="323" y="645" on="1"/>
        <pt x="301" y="644" on="0"/>
        <pt x="235" y="624" on="0"/>
        <pt x="187" y="598" on="1"/>
        <pt x="182" y="580" on="0"/>
        <pt x="176" y="552" on="0"/>
        <pt x="174" y="541" on="1"/>
        <pt x="172" y="529" on="0"/>
      </contour>
    </TTGlyph>
    <TTGlyph name="Q" xMin="12" yMin="-78" xMax="693" yMax="729">
      <contour>
        <pt x="210" y="685" on="1"/>
        <pt x="232" y="697" on="0"/>
        <pt x="288" y="716" on="0"/>
        <pt x="348" y="727" on="0"/>
        <pt x="409" y="729" on="0"/>
        <pt x="436" y="723" on="1"/>
        <pt x="515" y="706" on="0"/>
        <pt x="623" y="610" on="0"/>
        <pt x="682" y="482" on="0"/>
        <pt x="693" y="335" on="0"/>
        <pt x="675" y="267" on="1"/>
        <pt x="669" y="247" on="0"/>
        <pt x="655" y="221" on="1"/>
        <pt x="643" y="199" on="0"/>
        <pt x="601" y="136" on="0"/>
        <pt x="567" y="98" on="1"/>
        <pt x="575" y="80" on="0"/>
        <pt x="592" y="59" on="0"/>
        <pt x="600" y="54" on="1"/>
        <pt x="609" y="48" on="0"/>
        <pt x="617" y="46" on="1"/>
        <pt x="625" y="45" on="0"/>
        <pt x="636" y="45" on="1"/>
        <pt x="645" y="45" on="0"/>
        <pt x="670" y="48" on="0"/>
        <pt x="685" y="52" on="1"/>
        <pt x="529" y="-78" on="1"/>
        <pt x="526" y="-62" on="0"/>
        <pt x="519" y="-39" on="0"/>
        <pt x="517" y="-31" on="1"/>
        <pt x="511" y="-16" on="1"/>
        <pt x="507" y="-11" on="0"/>
        <pt x="503" y="-3" on="1"/>
        <pt x="499" y="3" on="0"/>
        <pt x="489" y="21" on="0"/>
        <pt x="481" y="32" on="1"/>
        <pt x="418" y="8" on="0"/>
        <pt x="315" y="-6" on="0"/>
        <pt x="231" y="5" on="0"/>
        <pt x="165" y="34" on="0"/>
        <pt x="140" y="53" on="1"/>
        <pt x="82" y="98" on="0"/>
        <pt x="49" y="171" on="1"/>
        <pt x="12" y="271" on="0"/>
        <pt x="19" y="438" on="0"/>
        <pt x="75" y="569" on="0"/>
        <pt x="164" y="661" on="0"/>
      </contour>
      <contour>
        <pt x="358" y="177" on="1"/>
        <pt x="343" y="181" on="0"/>
        <pt x="330" y="180" on="1"/>
        <pt x="319" y="179" on="0"/>
        <pt x="297" y="167" on="0"/>
        <pt x="292" y="151" on="1"/>
        <pt x="305" y="138" on="0"/>
        <pt x="328" y="121" on="0"/>
        <pt x="336" y="116" on="1"/>
        <pt x="346" y="110" on="0"/>
        <pt x="354" y="106" on="1"/>
        <pt x="368" y="101" on="0"/>
        <pt x="382" y="98" on="1"/>
        <pt x="394" y="96" on="0"/>
        <pt x="423" y="97" on="0"/>
        <pt x="436" y="104" on="1"/>
        <pt x="426" y="125" on="0"/>
        <pt x="399" y="154" on="0"/>
        <pt x="387" y="162" on="1"/>
        <pt x="373" y="172" on="0"/>
      </contour>
      <contour>
        <pt x="252" y="213" on="1"/>
        <pt x="269" y="239" on="0"/>
        <pt x="309" y="261" on="0"/>
        <pt x="327" y="266" on="1"/>
        <pt x="348" y="270" on="0"/>
        <pt x="370" y="269" on="1"/>
        <pt x="391" y="264" on="0"/>
        <pt x="412" y="252" on="1"/>
        <pt x="430" y="241" on="0"/>
        <pt x="470" y="202" on="0"/>
        <pt x="487" y="169" on="1"/>
        <pt x="503" y="193" on="0"/>
        <pt x="519" y="245" on="0"/>
        <pt x="523" y="266" on="1"/>
        <pt x="527" y="291" on="0"/>
        <pt x="527" y="315" on="1"/>
        <pt x="525" y="352" on="0"/>
        <pt x="513" y="434" on="0"/>
        <pt x="490" y="514" on="0"/>
        <pt x="456" y="586" on="0"/>
        <pt x="409" y="638" on="0"/>
        <pt x="348" y="664" on="0"/>
        <pt x="310" y="658" on="1"/>
        <pt x="268" y="652" on="0"/>
        <pt x="215" y="596" on="0"/>
        <pt x="186" y="521" on="0"/>
        <pt x="179" y="436" on="0"/>
        <pt x="183" y="402" on="1"/>
        <pt x="186" y="374" on="0"/>
        <pt x="195" y="343" on="1"/>
        <pt x="203" y="317" on="0"/>
        <pt x="229" y="249" on="0"/>
      </contour>
    </TTGlyph>
    <TTGlyph name="R" xMin="-36" yMin="2" xMax="655" yMax="751">
      <contour>
        <pt x="-36" y="730" on="1"/>
        <pt x="-4" y="725" on="0"/>
        <pt x="48" y="718" on="0"/>
        <pt x="67" y="716" on="1"/>
        <pt x="89" y="713" on="0"/>
        <pt x="106" y="711" on="1"/>
        <pt x="127" y="708" on="0"/>
        <pt x="211" y="729" on="0"/>
        <pt x="312" y="748" on="0"/>
        <pt x="418" y="751" on="0"/>
        <pt x="462" y="730" on="1"/>
        <pt x="506" y="709" on="0"/>
        <pt x="562" y="667" on="0"/>
        <pt x="595" y="620" on="0"/>
        <pt x="609" y="568" on="0"/>
        <pt x="610" y="537" on="1"/>
        <pt x="609" y="491" on="0"/>
        <pt x="588" y="448" on="1"/>
        <pt x="579" y="430" on="0"/>
        <pt x="550" y="391" on="0"/>
        <pt x="508" y="355" on="0"/>
        <pt x="451" y="323" on="0"/>
        <pt x="413" y="311" on="1"/>
        <pt x="450" y="300" on="0"/>
        <pt x="499" y="270" on="0"/>
        <pt x="514" y="257" on="1"/>
        <pt x="532" y="241" on="0"/>
        <pt x="541" y="226" on="1"/>
        <pt x="552" y="205" on="0"/>
        <pt x="560" y="175" on="0"/>
        <pt x="563" y="148" on="0"/>
        <pt x="569" y="120" on="0"/>
        <pt x="579" y="102" on="1"/>
        <pt x="587" y="88" on="0"/>
        <pt x="598" y="73" on="1"/>
        <pt x="608" y="60" on="0"/>
        <pt x="635" y="30" on="0"/>
        <pt x="655" y="16" on="1"/>
        <pt x="627" y="15" on="0"/>
        <pt x="580" y="15" on="0"/>
        <pt x="563" y="15" on="1"/>
        <pt x="543" y="15" on="0"/>
        <pt x="525" y="16" on="1"/>
        <pt x="507" y="17" on="0"/>
        <pt x="480" y="17" on="1"/>
        <pt x="457" y="17" on="0"/>
        <pt x="386" y="17" on="0"/>
        <pt x="336" y="16" on="1"/>
        <pt x="358" y="33" on="0"/>
        <pt x="386" y="67" on="0"/>
        <pt x="394" y="81" on="1"/>
        <pt x="403" y="97" on="0"/>
        <pt x="407" y="112" on="1"/>
        <pt x="412" y="139" on="0"/>
        <pt x="408" y="168" on="1"/>
        <pt x="405" y="193" on="0"/>
        <pt x="379" y="254" on="0"/>
        <pt x="350" y="285" on="1"/>
        <pt x="321" y="280" on="0"/>
        <pt x="282" y="275" on="0"/>
        <pt x="268" y="273" on="1"/>
        <pt x="252" y="271" on="0"/>
        <pt x="242" y="270" on="1"/>
        <pt x="233" y="269" on="0"/>
        <pt x="222" y="268" on="1"/>
        <pt x="213" y="267" on="0"/>
        <pt x="192" y="264" on="0"/>
        <pt x="183" y="262" on="1"/>
        <pt x="181" y="219" on="0"/>
        <pt x="185" y="156" on="0"/>
        <pt x="188" y="135" on="1"/>
        <pt x="192" y="110" on="0"/>
        <pt x="197" y="92" on="1"/>
        <pt x="202" y="74" on="0"/>
        <pt x="211" y="57" on="1"/>
        <pt x="218" y="43" on="0"/>
        <pt x="240" y="12" on="0"/>
        <pt x="254" y="2" on="1"/>
        <pt x="228" y="2" on="0"/>
        <pt x="181" y="2" on="0"/>
        <pt x="162" y="3" on="1"/>
        <pt x="140" y="3" on="0"/>
        <pt x="120" y="4" on="1"/>
        <pt x="100" y="5" on="0"/>
        <pt x="75" y="5" on="1"/>
        <pt x="54" y="5" on="0"/>
        <pt x="-3" y="5" on="0"/>
        <pt x="-36" y="4" on="1"/>
        <pt x="-10" y="31" on="0"/>
        <pt x="20" y="69" on="0"/>
        <pt x="28" y="82" on="1"/>
        <pt x="37" y="96" on="0"/>
        <pt x="39" y="106" on="1"/>
        <pt x="41" y="122" on="0"/>
        <pt x="44" y="205" on="0"/>
        <pt x="46" y="313" on="0"/>
        <pt x="46" y="431" on="0"/>
        <pt x="44" y="534" on="0"/>
        <pt x="42" y="608" on="0"/>
        <pt x="41" y="618" on="1"/>
        <pt x="38" y="636" on="0"/>
        <pt x="28" y="654" on="1"/>
        <pt x="20" y="670" on="0"/>
        <pt x="-10" y="710" on="0"/>
      </contour>
      <contour>
        <pt x="342" y="378" on="1"/>
        <pt x="352" y="384" on="0"/>
        <pt x="366" y="396" on="0"/>
        <pt x="376" y="423" on="0"/>
        <pt x="383" y="473" on="0"/>
        <pt x="388" y="516" on="1"/>
        <pt x="392" y="559" on="0"/>
        <pt x="373" y="615" on="0"/>
        <pt x="342" y="648" on="0"/>
        <pt x="305" y="661" on="0"/>
        <pt x="291" y="661" on="1"/>
        <pt x="263" y="661" on="0"/>
        <pt x="209" y="627" on="0"/>
        <pt x="195" y="598" on="1"/>
        <pt x="190" y="585" on="0"/>
        <pt x="186" y="555" on="1"/>
        <pt x="183" y="529" on="0"/>
        <pt x="181" y="437" on="0"/>
        <pt x="185" y="362" on="1"/>
        <pt x="223" y="356" on="0"/>
        <pt x="281" y="359" on="0"/>
        <pt x="301" y="364" on="1"/>
        <pt x="325" y="369" on="0"/>
      </contour>
    </TTGlyph>
    <TTGlyph name="S" xMin="-41" yMin="-13" xMax="648" yMax="732">
      <contour>
        <pt x="648" y="732" on="1"/>
        <pt x="634" y="700" on="0"/>
        <pt x="612" y="652" on="0"/>
        <pt x="604" y="635" on="1"/>
        <pt x="595" y="616" on="0"/>
        <pt x="589" y="601" on="1"/>
        <pt x="584" y="590" on="0"/>
        <pt x="576" y="571" on="1"/>
        <pt x="568" y="554" on="0"/>
        <pt x="545" y="499" on="0"/>
        <pt x="527" y="456" on="1"/>
        <pt x="518" y="493" on="0"/>
        <pt x="492" y="549" on="0"/>
        <pt x="462" y="591" on="0"/>
        <pt x="429" y="618" on="0"/>
        <pt x="413" y="627" on="1"/>
        <pt x="376" y="647" on="0"/>
        <pt x="335" y="649" on="1"/>
        <pt x="281" y="646" on="0"/>
        <pt x="220" y="617" on="0"/>
        <pt x="192" y="580" on="0"/>
        <pt x="190" y="541" on="0"/>
        <pt x="196" y="528" on="1"/>
        <pt x="201" y="516" on="0"/>
        <pt x="262" y="484" on="0"/>
        <pt x="349" y="443" on="0"/>
        <pt x="449" y="392" on="0"/>
        <pt x="534" y="331" on="0"/>
        <pt x="593" y="260" on="0"/>
        <pt x="596" y="220" on="1"/>
        <pt x="599" y="169" on="0"/>
        <pt x="591" y="87" on="0"/>
        <pt x="543" y="29" on="0"/>
        <pt x="442" y="-5" on="0"/>
        <pt x="353" y="-9" on="1"/>
        <pt x="261" y="-13" on="0"/>
        <pt x="143" y="15" on="0"/>
        <pt x="70" y="63" on="0"/>
        <pt x="35" y="121" on="0"/>
        <pt x="19" y="174" on="0"/>
        <pt x="13" y="213" on="0"/>
        <pt x="6" y="217" on="1"/>
        <pt x="-2" y="222" on="0"/>
        <pt x="-10" y="226" on="1"/>
        <pt x="-17" y="230" on="0"/>
        <pt x="-33" y="237" on="0"/>
        <pt x="-41" y="240" on="1"/>
        <pt x="250" y="287" on="1"/>
        <pt x="225" y="267" on="0"/>
        <pt x="198" y="233" on="0"/>
        <pt x="191" y="220" on="1"/>
        <pt x="183" y="205" on="0"/>
        <pt x="180" y="192" on="1"/>
        <pt x="178" y="178" on="0"/>
        <pt x="200" y="136" on="0"/>
        <pt x="239" y="97" on="0"/>
        <pt x="291" y="71" on="0"/>
        <pt x="319" y="73" on="1"/>
        <pt x="354" y="76" on="0"/>
        <pt x="398" y="105" on="0"/>
        <pt x="421" y="149" on="0"/>
        <pt x="425" y="201" on="0"/>
        <pt x="412" y="252" on="0"/>
        <pt x="384" y="297" on="0"/>
        <pt x="365" y="312" on="1"/>
        <pt x="348" y="324" on="0"/>
        <pt x="277" y="346" on="0"/>
        <pt x="190" y="372" on="0"/>
        <pt x="99" y="406" on="0"/>
        <pt x="26" y="456" on="0"/>
        <pt x="-17" y="524" on="0"/>
        <pt x="-12" y="572" on="1"/>
        <pt x="-8" y="613" on="0"/>
        <pt x="37" y="668" on="0"/>
        <pt x="106" y="701" on="0"/>
        <pt x="191" y="717" on="0"/>
        <pt x="280" y="720" on="0"/>
        <pt x="367" y="714" on="0"/>
        <pt x="437" y="706" on="0"/>
        <pt x="486" y="699" on="0"/>
        <pt x="492" y="698" on="1"/>
        <pt x="518" y="696" on="0"/>
        <pt x="544" y="699" on="1"/>
        <pt x="567" y="701" on="0"/>
        <pt x="622" y="716" on="0"/>
      </contour>
    </TTGlyph>
    <TTGlyph name="Scaron" xMin="-41" yMin="-13" xMax="648" yMax="918">
      <component glyphName="S" x="0" y="0" flags="0x204"/>
      <component glyphName="caron" x="-60" y="133" flags="0x4"/>
    </TTGlyph>
    <TTGlyph name="T" xMin="-20" yMin="32" xMax="569" yMax="741">
      <contour>
        <pt x="-20" y="730" on="1"/>
        <pt x="47" y="722" on="0"/>
        <pt x="145" y="715" on="0"/>
        <pt x="177" y="713" on="1"/>
        <pt x="214" y="711" on="0"/>
        <pt x="239" y="712" on="1"/>
        <pt x="265" y="713" on="0"/>
        <pt x="310" y="717" on="1"/>
        <pt x="348" y="720" on="0"/>
        <pt x="472" y="731" on="0"/>
        <pt x="565" y="741" on="1"/>
        <pt x="566" y="718" on="0"/>
        <pt x="567" y="675" on="0"/>
        <pt x="568" y="659" on="1"/>
        <pt x="569" y="640" on="0"/>
        <pt x="569" y="624" on="1"/>
        <pt x="569" y="607" on="0"/>
        <pt x="567" y="581" on="1"/>
        <pt x="565" y="559" on="0"/>
        <pt x="556" y="492" on="0"/>
        <pt x="547" y="446" on="1"/>
        <pt x="533" y="500" on="0"/>
        <pt x="507" y="567" on="0"/>
        <pt x="496" y="587" on="1"/>
        <pt x="484" y="610" on="0"/>
        <pt x="472" y="622" on="1"/>
        <pt x="459" y="631" on="0"/>
        <pt x="441" y="637" on="1"/>
        <pt x="425" y="642" on="0"/>
        <pt x="376" y="648" on="0"/>
        <pt x="343" y="644" on="1"/>
        <pt x="338" y="512" on="0"/>
        <pt x="334" y="348" on="0"/>
        <pt x="333" y="302" on="1"/>
        <pt x="332" y="247" on="0"/>
        <pt x="332" y="223" on="1"/>
        <pt x="333" y="189" on="0"/>
        <pt x="343" y="156" on="1"/>
        <pt x="351" y="128" on="0"/>
        <pt x="387" y="68" on="0"/>
        <pt x="421" y="45" on="1"/>
        <pt x="299" y="45" on="1"/>
        <pt x="282" y="45" on="0"/>
        <pt x="257" y="43" on="1"/>
        <pt x="236" y="41" on="0"/>
        <pt x="171" y="37" on="0"/>
        <pt x="128" y="32" on="1"/>
        <pt x="143" y="58" on="0"/>
        <pt x="161" y="100" on="0"/>
        <pt x="166" y="115" on="1"/>
        <pt x="172" y="133" on="0"/>
        <pt x="175" y="147" on="1"/>
        <pt x="176" y="167" on="0"/>
        <pt x="180" y="228" on="1"/>
        <pt x="181" y="253" on="0"/>
        <pt x="184" y="327" on="0"/>
        <pt x="189" y="429" on="0"/>
        <pt x="194" y="562" on="0"/>
        <pt x="197" y="646" on="1"/>
        <pt x="179" y="651" on="0"/>
        <pt x="147" y="640" on="0"/>
        <pt x="135" y="632" on="1"/>
        <pt x="121" y="622" on="0"/>
        <pt x="108" y="608" on="1"/>
        <pt x="95" y="591" on="0"/>
        <pt x="79" y="564" on="1"/>
        <pt x="65" y="541" on="0"/>
        <pt x="29" y="466" on="0"/>
        <pt x="6" y="411" on="1"/>
        <pt x="1" y="469" on="0"/>
        <pt x="-3" y="544" on="0"/>
        <pt x="-4" y="565" on="1"/>
        <pt x="-5" y="590" on="0"/>
        <pt x="-5" y="602" on="1"/>
        <pt x="-5" y="613" on="0"/>
        <pt x="-7" y="631" on="1"/>
        <pt x="-9" y="646" on="0"/>
        <pt x="-15" y="695" on="0"/>
      </contour>
    </TTGlyph>
    <TTGlyph name="Thorn" xMin="-36" yMin="-1" xMax="610" yMax="716">
      <contour>
        <pt x="605" y="435" on="1"/>
        <pt x="610" y="403" on="0"/>
        <pt x="588" y="330" on="0"/>
        <pt x="540" y="261" on="0"/>
        <pt x="468" y="203" on="0"/>
        <pt x="424" y="185" on="1"/>
        <pt x="388" y="171" on="0"/>
        <pt x="312" y="159" on="0"/>
        <pt x="245" y="158" on="0"/>
        <pt x="190" y="163" on="0"/>
        <pt x="175" y="165" on="1"/>
        <pt x="181" y="147" on="0"/>
        <pt x="189" y="125" on="1"/>
        <pt x="196" y="106" on="0"/>
        <pt x="216" y="54" on="0"/>
        <pt x="230" y="23" on="1"/>
        <pt x="212" y="23" on="0"/>
        <pt x="178" y="22" on="0"/>
        <pt x="164" y="21" on="1"/>
        <pt x="148" y="20" on="0"/>
        <pt x="134" y="19" on="1"/>
        <pt x="118" y="18" on="0"/>
        <pt x="98" y="15" on="1"/>
        <pt x="81" y="13" on="0"/>
        <pt x="30" y="5" on="0"/>
        <pt x="-2" y="-1" on="1"/>
        <pt x="19" y="29" on="0"/>
        <pt x="44" y="80" on="0"/>
        <pt x="50" y="99" on="1"/>
        <pt x="57" y="121" on="0"/>
        <pt x="59" y="139" on="1"/>
        <pt x="60" y="154" on="0"/>
        <pt x="59" y="230" on="0"/>
        <pt x="57" y="330" on="0"/>
        <pt x="53" y="440" on="0"/>
        <pt x="47" y="537" on="0"/>
        <pt x="40" y="607" on="0"/>
        <pt x="37" y="618" on="1"/>
        <pt x="33" y="631" on="0"/>
        <pt x="23" y="646" on="1"/>
        <pt x="15" y="659" on="0"/>
        <pt x="-14" y="694" on="0"/>
        <pt x="-36" y="716" on="1"/>
        <pt x="2" y="707" on="0"/>
        <pt x="63" y="698" on="0"/>
        <pt x="84" y="696" on="1"/>
        <pt x="109" y="693" on="0"/>
        <pt x="128" y="694" on="1"/>
        <pt x="137" y="694" on="0"/>
        <pt x="163" y="697" on="0"/>
        <pt x="193" y="700" on="0"/>
        <pt x="225" y="704" on="0"/>
        <pt x="239" y="706" on="1"/>
        <pt x="187" y="598" on="1"/>
        <pt x="184" y="590" on="0"/>
        <pt x="181" y="573" on="0"/>
        <pt x="179" y="567" on="1"/>
        <pt x="177" y="559" on="0"/>
        <pt x="176" y="553" on="1"/>
        <pt x="203" y="557" on="0"/>
        <pt x="265" y="567" on="0"/>
        <pt x="328" y="575" on="0"/>
        <pt x="387" y="579" on="0"/>
        <pt x="410" y="577" on="1"/>
        <pt x="439" y="574" on="0"/>
        <pt x="503" y="553" on="0"/>
        <pt x="559" y="518" on="0"/>
        <pt x="600" y="468" on="0"/>
      </contour>
      <contour>
        <pt x="327" y="256" on="1"/>
        <pt x="356" y="269" on="0"/>
        <pt x="391" y="310" on="0"/>
        <pt x="408" y="357" on="0"/>
        <pt x="408" y="407" on="0"/>
        <pt x="397" y="452" on="0"/>
        <pt x="376" y="485" on="0"/>
        <pt x="363" y="493" on="1"/>
        <pt x="346" y="503" on="0"/>
        <pt x="290" y="496" on="0"/>
        <pt x="232" y="479" on="0"/>
        <pt x="182" y="458" on="0"/>
        <pt x="172" y="454" on="1"/>
        <pt x="172" y="450" on="1"/>
        <pt x="172" y="448" on="0"/>
        <pt x="173" y="446" on="0"/>
        <pt x="173" y="444" on="1"/>
        <pt x="169" y="314" on="1"/>
        <pt x="167" y="309" on="0"/>
        <pt x="166" y="299" on="0"/>
        <pt x="165" y="294" on="1"/>
        <pt x="164" y="289" on="0"/>
        <pt x="164" y="284" on="1"/>
        <pt x="172" y="275" on="0"/>
        <pt x="201" y="253" on="0"/>
        <pt x="242" y="240" on="0"/>
        <pt x="295" y="242" on="0"/>
      </contour>
    </TTGlyph>
    <TTGlyph name="U" xMin="0" yMin="10" xMax="651" yMax="703">
      <contour>
        <pt x="0" y="703" on="1"/>
        <pt x="30" y="697" on="0"/>
        <pt x="72" y="691" on="0"/>
        <pt x="86" y="689" on="1"/>
        <pt x="102" y="687" on="0"/>
        <pt x="113" y="687" on="1"/>
        <pt x="124" y="687" on="0"/>
        <pt x="143" y="688" on="1"/>
        <pt x="160" y="689" on="0"/>
        <pt x="212" y="690" on="0"/>
        <pt x="252" y="692" on="1"/>
        <pt x="229" y="676" on="0"/>
        <pt x="201" y="654" on="0"/>
        <pt x="194" y="646" on="1"/>
        <pt x="185" y="637" on="0"/>
        <pt x="183" y="631" on="1"/>
        <pt x="181" y="627" on="0"/>
        <pt x="177" y="576" on="0"/>
        <pt x="174" y="499" on="0"/>
        <pt x="176" y="404" on="0"/>
        <pt x="185" y="306" on="0"/>
        <pt x="203" y="215" on="0"/>
        <pt x="234" y="147" on="0"/>
        <pt x="279" y="109" on="0"/>
        <pt x="311" y="114" on="1"/>
        <pt x="353" y="120" on="0"/>
        <pt x="405" y="190" on="0"/>
        <pt x="432" y="290" on="0"/>
        <pt x="439" y="405" on="0"/>
        <pt x="434" y="506" on="0"/>
        <pt x="422" y="580" on="0"/>
        <pt x="417" y="589" on="1"/>
        <pt x="411" y="599" on="0"/>
        <pt x="401" y="612" on="1"/>
        <pt x="393" y="623" on="0"/>
        <pt x="367" y="652" on="0"/>
        <pt x="350" y="669" on="1"/>
        <pt x="381" y="668" on="0"/>
        <pt x="431" y="667" on="0"/>
        <pt x="448" y="666" on="1"/>
        <pt x="468" y="665" on="0"/>
        <pt x="484" y="664" on="1"/>
        <pt x="500" y="663" on="0"/>
        <pt x="524" y="661" on="1"/>
        <pt x="544" y="659" on="0"/>
        <pt x="607" y="655" on="0"/>
        <pt x="651" y="651" on="1"/>
        <pt x="634" y="647" on="0"/>
        <pt x="613" y="633" on="0"/>
        <pt x="607" y="625" on="1"/>
        <pt x="600" y="616" on="0"/>
        <pt x="597" y="607" on="1"/>
        <pt x="594" y="599" on="0"/>
        <pt x="591" y="520" on="0"/>
        <pt x="586" y="409" on="0"/>
        <pt x="576" y="280" on="0"/>
        <pt x="555" y="164" on="0"/>
        <pt x="522" y="74" on="0"/>
        <pt x="496" y="57" on="1"/>
        <pt x="458" y="32" on="0"/>
        <pt x="374" y="11" on="0"/>
        <pt x="288" y="10" on="0"/>
        <pt x="205" y="25" on="0"/>
        <pt x="167" y="36" on="1"/>
        <pt x="128" y="48" on="0"/>
        <pt x="77" y="132" on="0"/>
        <pt x="48" y="247" on="0"/>
        <pt x="35" y="380" on="0"/>
        <pt x="32" y="504" on="0"/>
        <pt x="35" y="605" on="0"/>
        <pt x="36" y="631" on="1"/>
        <pt x="36" y="644" on="0"/>
        <pt x="32" y="656" on="1"/>
        <pt x="29" y="667" on="0"/>
        <pt x="14" y="692" on="0"/>
      </contour>
    </TTGlyph>
    <TTGlyph name="Uacute" xMin="0" yMin="10" xMax="651" yMax="873">
      <component glyphName="U" x="0" y="0" flags="0x204"/>
      <component glyphName="acute" x="10" y="82" flags="0x4"/>
    </TTGlyph>
    <TTGlyph name="Ucircumflex" xMin="0" yMin="10" xMax="651" yMax="908">
      <component glyphName="U" x="0" y="0" flags="0x204"/>
      <component glyphName="circumflex" x="-50" y="123" flags="0x4"/>
    </TTGlyph>
    <TTGlyph name="Udieresis" xMin="0" yMin="10" xMax="651" yMax="879">
      <component glyphName="U" x="0" y="0" flags="0x204"/>
      <component glyphName="dieresis" x="-50" y="102" flags="0x4"/>
    </TTGlyph>
    <TTGlyph name="Ugrave" xMin="0" yMin="10" xMax="651" yMax="893">
      <component glyphName="U" x="0" y="0" flags="0x204"/>
      <component glyphName="grave" x="-50" y="92" flags="0x4"/>
    </TTGlyph>
    <TTGlyph name="V" xMin="-97" yMin="-3" xMax="577" yMax="720">
      <contour>
        <pt x="-97" y="718" on="1"/>
        <pt x="-30" y="715" on="0"/>
        <pt x="7" y="715" on="1"/>
        <pt x="44" y="715" on="1"/>
        <pt x="60" y="715" on="0"/>
        <pt x="84" y="716" on="1"/>
        <pt x="104" y="717" on="0"/>
        <pt x="166" y="718" on="0"/>
        <pt x="209" y="720" on="1"/>
        <pt x="189" y="706" on="0"/>
        <pt x="165" y="680" on="0"/>
        <pt x="158" y="670" on="1"/>
        <pt x="150" y="658" on="0"/>
        <pt x="147" y="648" on="1"/>
        <pt x="140" y="622" on="0"/>
        <pt x="143" y="533" on="0"/>
        <pt x="157" y="430" on="0"/>
        <pt x="177" y="324" on="0"/>
        <pt x="198" y="238" on="0"/>
        <pt x="215" y="183" on="0"/>
        <pt x="219" y="183" on="1"/>
        <pt x="223" y="183" on="0"/>
        <pt x="246" y="241" on="0"/>
        <pt x="276" y="330" on="0"/>
        <pt x="308" y="435" on="0"/>
        <pt x="335" y="530" on="0"/>
        <pt x="353" y="599" on="0"/>
        <pt x="353" y="607" on="1"/>
        <pt x="352" y="618" on="0"/>
        <pt x="346" y="630" on="1"/>
        <pt x="341" y="641" on="0"/>
        <pt x="316" y="670" on="0"/>
        <pt x="294" y="689" on="1"/>
        <pt x="325" y="690" on="0"/>
        <pt x="370" y="692" on="0"/>
        <pt x="386" y="692" on="1"/>
        <pt x="417" y="692" on="1"/>
        <pt x="577" y="692" on="1"/>
        <pt x="552" y="675" on="0"/>
        <pt x="517" y="643" on="0"/>
        <pt x="506" y="629" on="1"/>
        <pt x="493" y="613" on="0"/>
        <pt x="484" y="599" on="1"/>
        <pt x="474" y="578" on="0"/>
        <pt x="451" y="508" on="1"/>
        <pt x="441" y="478" on="0"/>
        <pt x="415" y="392" on="0"/>
        <pt x="379" y="272" on="0"/>
        <pt x="335" y="115" on="0"/>
        <pt x="307" y="15" on="1"/>
        <pt x="168" y="-3" on="1"/>
        <pt x="143" y="75" on="0"/>
        <pt x="106" y="204" on="0"/>
        <pt x="92" y="250" on="1"/>
        <pt x="76" y="304" on="0"/>
        <pt x="65" y="347" on="1"/>
        <pt x="50" y="399" on="0"/>
        <pt x="29" y="506" on="0"/>
        <pt x="14" y="593" on="0"/>
        <pt x="2" y="651" on="0"/>
        <pt x="-5" y="656" on="1"/>
        <pt x="-11" y="661" on="0"/>
        <pt x="-23" y="669" on="1"/>
        <pt x="-34" y="676" on="0"/>
        <pt x="-69" y="699" on="0"/>
      </contour>
    </TTGlyph>
    <TTGlyph name="W" xMin="-72" yMin="-2" xMax="916" yMax="739">
      <contour>
        <pt x="-72" y="703" on="1"/>
        <pt x="-39" y="699" on="0"/>
        <pt x="14" y="695" on="0"/>
        <pt x="33" y="693" on="1"/>
        <pt x="55" y="691" on="0"/>
        <pt x="72" y="690" on="1"/>
        <pt x="90" y="690" on="0"/>
        <pt x="118" y="691" on="1"/>
        <pt x="142" y="692" on="0"/>
        <pt x="216" y="696" on="0"/>
        <pt x="270" y="701" on="1"/>
        <pt x="244" y="686" on="0"/>
        <pt x="211" y="656" on="0"/>
        <pt x="202" y="644" on="1"/>
        <pt x="191" y="630" on="0"/>
        <pt x="186" y="616" on="1"/>
        <pt x="183" y="597" on="0"/>
        <pt x="188" y="542" on="1"/>
        <pt x="190" y="519" on="0"/>
        <pt x="199" y="452" on="0"/>
        <pt x="214" y="361" on="0"/>
        <pt x="237" y="243" on="0"/>
        <pt x="252" y="168" on="1"/>
        <pt x="272" y="225" on="0"/>
        <pt x="298" y="314" on="0"/>
        <pt x="307" y="346" on="1"/>
        <pt x="317" y="382" on="0"/>
        <pt x="324" y="410" on="1"/>
        <pt x="331" y="439" on="0"/>
        <pt x="341" y="485" on="1"/>
        <pt x="349" y="524" on="0"/>
        <pt x="375" y="648" on="0"/>
        <pt x="394" y="739" on="1"/>
        <pt x="430" y="734" on="1"/>
        <pt x="435" y="663" on="0"/>
        <pt x="446" y="555" on="0"/>
        <pt x="450" y="517" on="1"/>
        <pt x="454" y="473" on="0"/>
        <pt x="458" y="441" on="1"/>
        <pt x="462" y="412" on="0"/>
        <pt x="470" y="374" on="1"/>
        <pt x="477" y="342" on="0"/>
        <pt x="499" y="249" on="0"/>
        <pt x="517" y="191" on="1"/>
        <pt x="535" y="262" on="0"/>
        <pt x="564" y="374" on="0"/>
        <pt x="585" y="460" on="0"/>
        <pt x="600" y="522" on="0"/>
        <pt x="605" y="543" on="1"/>
        <pt x="616" y="593" on="0"/>
        <pt x="618" y="610" on="1"/>
        <pt x="617" y="629" on="0"/>
        <pt x="609" y="647" on="1"/>
        <pt x="602" y="663" on="0"/>
        <pt x="572" y="701" on="0"/>
        <pt x="543" y="719" on="1"/>
        <pt x="604" y="717" on="0"/>
        <pt x="681" y="716" on="0"/>
        <pt x="704" y="716" on="1"/>
        <pt x="744" y="716" on="1"/>
        <pt x="780" y="716" on="1"/>
        <pt x="800" y="716" on="0"/>
        <pt x="865" y="717" on="0"/>
        <pt x="916" y="719" on="1"/>
        <pt x="872" y="696" on="0"/>
        <pt x="818" y="658" on="0"/>
        <pt x="803" y="645" on="1"/>
        <pt x="785" y="629" on="0"/>
        <pt x="777" y="618" on="1"/>
        <pt x="769" y="598" on="0"/>
        <pt x="751" y="528" on="1"/>
        <pt x="743" y="498" on="0"/>
        <pt x="723" y="409" on="0"/>
        <pt x="696" y="285" on="0"/>
        <pt x="662" y="120" on="0"/>
        <pt x="641" y="14" on="1"/>
        <pt x="468" y="32" on="1"/>
        <pt x="394" y="343" on="1"/>
        <pt x="377" y="258" on="0"/>
        <pt x="357" y="153" on="0"/>
        <pt x="352" y="124" on="1"/>
        <pt x="346" y="89" on="0"/>
        <pt x="345" y="73" on="1"/>
        <pt x="344" y="59" on="0"/>
        <pt x="343" y="46" on="1"/>
        <pt x="342" y="35" on="0"/>
        <pt x="339" y="9" on="0"/>
        <pt x="337" y="-2" on="1"/>
        <pt x="160" y="-2" on="1"/>
        <pt x="134" y="112" on="0"/>
        <pt x="93" y="287" on="0"/>
        <pt x="61" y="419" on="0"/>
        <pt x="38" y="511" on="0"/>
        <pt x="29" y="542" on="1"/>
        <pt x="9" y="614" on="0"/>
        <pt x="0" y="631" on="1"/>
        <pt x="-7" y="639" on="0"/>
        <pt x="-18" y="650" on="1"/>
        <pt x="-27" y="659" on="0"/>
        <pt x="-54" y="686" on="0"/>
      </contour>
    </TTGlyph>
    <TTGlyph name="X" xMin="-87" yMin="16" xMax="713" yMax="703">
      <contour>
        <pt x="-87" y="679" on="1"/>
        <pt x="-43" y="677" on="0"/>
        <pt x="19" y="675" on="0"/>
        <pt x="39" y="674" on="1"/>
        <pt x="63" y="673" on="0"/>
        <pt x="78" y="672" on="1"/>
        <pt x="94" y="671" on="0"/>
        <pt x="118" y="671" on="1"/>
        <pt x="159" y="671" on="0"/>
        <pt x="234" y="677" on="1"/>
        <pt x="218" y="669" on="0"/>
        <pt x="200" y="650" on="0"/>
        <pt x="195" y="641" on="1"/>
        <pt x="189" y="630" on="0"/>
        <pt x="186" y="620" on="1"/>
        <pt x="184" y="608" on="0"/>
        <pt x="195" y="583" on="1"/>
        <pt x="203" y="562" on="0"/>
        <pt x="245" y="490" on="0"/>
        <pt x="286" y="433" on="1"/>
        <pt x="335" y="505" on="0"/>
        <pt x="389" y="587" on="0"/>
        <pt x="402" y="608" on="1"/>
        <pt x="417" y="633" on="0"/>
        <pt x="420" y="641" on="1"/>
        <pt x="419" y="646" on="0"/>
        <pt x="412" y="655" on="1"/>
        <pt x="406" y="663" on="0"/>
        <pt x="379" y="686" on="0"/>
        <pt x="353" y="703" on="1"/>
        <pt x="394" y="697" on="0"/>
        <pt x="449" y="691" on="0"/>
        <pt x="466" y="690" on="1"/>
        <pt x="486" y="689" on="0"/>
        <pt x="499" y="690" on="1"/>
        <pt x="512" y="691" on="0"/>
        <pt x="537" y="692" on="1"/>
        <pt x="558" y="693" on="0"/>
        <pt x="629" y="695" on="0"/>
        <pt x="685" y="697" on="1"/>
        <pt x="663" y="686" on="0"/>
        <pt x="631" y="666" on="0"/>
        <pt x="620" y="658" on="1"/>
        <pt x="607" y="648" on="0"/>
        <pt x="597" y="641" on="1"/>
        <pt x="585" y="629" on="0"/>
        <pt x="553" y="592" on="1"/>
        <pt x="526" y="560" on="0"/>
        <pt x="426" y="437" on="0"/>
        <pt x="342" y="332" on="1"/>
        <pt x="410" y="260" on="0"/>
        <pt x="494" y="176" on="0"/>
        <pt x="518" y="154" on="1"/>
        <pt x="546" y="128" on="0"/>
        <pt x="559" y="119" on="1"/>
        <pt x="571" y="112" on="0"/>
        <pt x="592" y="101" on="1"/>
        <pt x="610" y="91" on="0"/>
        <pt x="668" y="62" on="0"/>
        <pt x="713" y="42" on="1"/>
        <pt x="546" y="42" on="1"/>
        <pt x="525" y="42" on="0"/>
        <pt x="495" y="40" on="1"/>
        <pt x="469" y="38" on="0"/>
        <pt x="393" y="34" on="0"/>
        <pt x="342" y="29" on="1"/>
        <pt x="360" y="40" on="0"/>
        <pt x="377" y="61" on="0"/>
        <pt x="380" y="69" on="1"/>
        <pt x="384" y="78" on="0"/>
        <pt x="381" y="85" on="1"/>
        <pt x="376" y="95" on="0"/>
        <pt x="364" y="115" on="1"/>
        <pt x="353" y="132" on="0"/>
        <pt x="313" y="194" on="0"/>
        <pt x="278" y="245" on="1"/>
        <pt x="238" y="202" on="0"/>
        <pt x="195" y="145" on="0"/>
        <pt x="184" y="128" on="1"/>
        <pt x="172" y="108" on="0"/>
        <pt x="168" y="96" on="1"/>
        <pt x="168" y="85" on="0"/>
        <pt x="173" y="74" on="1"/>
        <pt x="178" y="64" on="0"/>
        <pt x="201" y="40" on="0"/>
        <pt x="224" y="29" on="1"/>
        <pt x="-72" y="16" on="1"/>
        <pt x="-36" y="41" on="0"/>
        <pt x="12" y="82" on="0"/>
        <pt x="27" y="96" on="1"/>
        <pt x="44" y="113" on="0"/>
        <pt x="54" y="126" on="1"/>
        <pt x="64" y="141" on="0"/>
        <pt x="85" y="170" on="1"/>
        <pt x="102" y="195" on="0"/>
        <pt x="163" y="279" on="0"/>
        <pt x="211" y="345" on="1"/>
        <pt x="158" y="430" on="0"/>
        <pt x="93" y="530" on="0"/>
        <pt x="73" y="557" on="1"/>
        <pt x="50" y="588" on="0"/>
        <pt x="39" y="600" on="1"/>
        <pt x="29" y="609" on="0"/>
        <pt x="11" y="620" on="1"/>
        <pt x="-4" y="630" on="0"/>
        <pt x="-52" y="659" on="0"/>
      </contour>
    </TTGlyph>
    <TTGlyph name="Y" xMin="-143" yMin="21" xMax="736" yMax="710">
      <contour>
        <pt x="-143" y="710" on="1"/>
        <pt x="-100" y="706" on="0"/>
        <pt x="-34" y="702" on="0"/>
        <pt x="-12" y="700" on="1"/>
        <pt x="14" y="698" on="0"/>
        <pt x="32" y="697" on="1"/>
        <pt x="50" y="696" on="0"/>
        <pt x="76" y="696" on="1"/>
        <pt x="98" y="695" on="0"/>
        <pt x="164" y="695" on="0"/>
        <pt x="209" y="695" on="1"/>
        <pt x="180" y="681" on="0"/>
        <pt x="149" y="657" on="0"/>
        <pt x="141" y="648" on="1"/>
        <pt x="131" y="637" on="0"/>
        <pt x="129" y="628" on="1"/>
        <pt x="128" y="620" on="0"/>
        <pt x="138" y="582" on="0"/>
        <pt x="156" y="535" on="0"/>
        <pt x="182" y="483" on="0"/>
        <pt x="211" y="442" on="0"/>
        <pt x="241" y="416" on="0"/>
        <pt x="255" y="417" on="1"/>
        <pt x="269" y="418" on="0"/>
        <pt x="309" y="443" on="0"/>
        <pt x="352" y="481" on="0"/>
        <pt x="394" y="525" on="0"/>
        <pt x="427" y="567" on="0"/>
        <pt x="448" y="602" on="0"/>
        <pt x="448" y="610" on="1"/>
        <pt x="447" y="620" on="0"/>
        <pt x="440" y="633" on="1"/>
        <pt x="434" y="644" on="0"/>
        <pt x="406" y="675" on="0"/>
        <pt x="381" y="695" on="1"/>
        <pt x="463" y="692" on="0"/>
        <pt x="501" y="692" on="1"/>
        <pt x="538" y="692" on="1"/>
        <pt x="580" y="692" on="1"/>
        <pt x="603" y="692" on="0"/>
        <pt x="679" y="693" on="0"/>
        <pt x="736" y="695" on="1"/>
        <pt x="697" y="669" on="0"/>
        <pt x="640" y="628" on="0"/>
        <pt x="620" y="614" on="1"/>
        <pt x="597" y="597" on="0"/>
        <pt x="582" y="584" on="1"/>
        <pt x="565" y="570" on="0"/>
        <pt x="535" y="540" on="1"/>
        <pt x="509" y="514" on="0"/>
        <pt x="423" y="427" on="0"/>
        <pt x="358" y="358" on="1"/>
        <pt x="349" y="285" on="0"/>
        <pt x="344" y="195" on="0"/>
        <pt x="344" y="169" on="1"/>
        <pt x="344" y="139" on="0"/>
        <pt x="348" y="124" on="1"/>
        <pt x="353" y="112" on="0"/>
        <pt x="365" y="96" on="1"/>
        <pt x="375" y="82" on="0"/>
        <pt x="412" y="44" on="0"/>
        <pt x="443" y="21" on="1"/>
        <pt x="410" y="29" on="0"/>
        <pt x="353" y="37" on="0"/>
        <pt x="331" y="39" on="1"/>
        <pt x="305" y="42" on="0"/>
        <pt x="284" y="42" on="1"/>
        <pt x="262" y="42" on="0"/>
        <pt x="232" y="40" on="1"/>
        <pt x="206" y="38" on="0"/>
        <pt x="134" y="32" on="0"/>
        <pt x="86" y="26" on="1"/>
        <pt x="111" y="43" on="0"/>
        <pt x="143" y="77" on="0"/>
        <pt x="152" y="91" on="1"/>
        <pt x="163" y="107" on="0"/>
        <pt x="168" y="121" on="1"/>
        <pt x="172" y="137" on="0"/>
        <pt x="174" y="167" on="1"/>
        <pt x="176" y="193" on="0"/>
        <pt x="173" y="279" on="0"/>
        <pt x="168" y="345" on="1"/>
        <pt x="108" y="441" on="0"/>
        <pt x="32" y="552" on="0"/>
        <pt x="11" y="581" on="1"/>
        <pt x="-14" y="614" on="0"/>
        <pt x="-25" y="625" on="1"/>
        <pt x="-35" y="633" on="0"/>
        <pt x="-52" y="645" on="1"/>
        <pt x="-66" y="656" on="0"/>
        <pt x="-111" y="687" on="0"/>
      </contour>
    </TTGlyph>
    <TTGlyph name="Yacute" xMin="-143" yMin="21" xMax="736" yMax="883">
      <component glyphName="Y" x="0" y="0" flags="0x204"/>
      <component glyphName="acute" x="-9" y="92" flags="0x4"/>
    </TTGlyph>
    <TTGlyph name="Ydieresis" xMin="-143" yMin="21" xMax="736" yMax="890">
      <component glyphName="Y" x="0" y="0" flags="0x204"/>
      <component glyphName="dieresis" x="-60" y="113" flags="0x4"/>
    </TTGlyph>
    <TTGlyph name="Z" xMin="5" yMin="4" xMax="592" yMax="706">
      <contour>
        <pt x="5" y="698" on="1"/>
        <pt x="46" y="693" on="0"/>
        <pt x="131" y="689" on="0"/>
        <pt x="166" y="689" on="1"/>
        <pt x="207" y="689" on="0"/>
        <pt x="246" y="691" on="1"/>
        <pt x="286" y="692" on="0"/>
        <pt x="330" y="695" on="1"/>
        <pt x="368" y="697" on="0"/>
        <pt x="464" y="703" on="0"/>
        <pt x="516" y="706" on="1"/>
        <pt x="522" y="619" on="1"/>
        <pt x="522" y="610" on="0"/>
        <pt x="523" y="596" on="1"/>
        <pt x="523" y="584" on="0"/>
        <pt x="524" y="548" on="0"/>
        <pt x="525" y="524" on="1"/>
        <pt x="489" y="493" on="0"/>
        <pt x="432" y="438" on="0"/>
        <pt x="412" y="417" on="1"/>
        <pt x="388" y="392" on="0"/>
        <pt x="370" y="371" on="1"/>
        <pt x="347" y="344" on="0"/>
        <pt x="295" y="267" on="0"/>
        <pt x="250" y="194" on="0"/>
        <pt x="222" y="137" on="0"/>
        <pt x="224" y="130" on="1"/>
        <pt x="225" y="125" on="0"/>
        <pt x="263" y="124" on="0"/>
        <pt x="318" y="128" on="0"/>
        <pt x="385" y="137" on="0"/>
        <pt x="444" y="148" on="0"/>
        <pt x="490" y="160" on="0"/>
        <pt x="497" y="166" on="1"/>
        <pt x="506" y="174" on="0"/>
        <pt x="517" y="195" on="1"/>
        <pt x="527" y="213" on="0"/>
        <pt x="552" y="278" on="0"/>
        <pt x="568" y="333" on="1"/>
        <pt x="569" y="292" on="0"/>
        <pt x="570" y="234" on="0"/>
        <pt x="572" y="214" on="1"/>
        <pt x="573" y="191" on="0"/>
        <pt x="575" y="176" on="1"/>
        <pt x="576" y="160" on="0"/>
        <pt x="579" y="140" on="1"/>
        <pt x="581" y="123" on="0"/>
        <pt x="587" y="71" on="0"/>
        <pt x="592" y="39" on="1"/>
        <pt x="520" y="48" on="0"/>
        <pt x="422" y="55" on="0"/>
        <pt x="392" y="56" on="1"/>
        <pt x="357" y="57" on="0"/>
        <pt x="336" y="56" on="1"/>
        <pt x="314" y="53" on="0"/>
        <pt x="276" y="47" on="1"/>
        <pt x="244" y="42" on="0"/>
        <pt x="138" y="21" on="0"/>
        <pt x="58" y="4" on="1"/>
        <pt x="56" y="23" on="0"/>
        <pt x="52" y="51" on="0"/>
        <pt x="50" y="62" on="1"/>
        <pt x="48" y="73" on="0"/>
        <pt x="46" y="83" on="1"/>
        <pt x="44" y="92" on="0"/>
        <pt x="41" y="108" on="1"/>
        <pt x="39" y="122" on="0"/>
        <pt x="30" y="163" on="0"/>
        <pt x="24" y="194" on="1"/>
        <pt x="84" y="256" on="0"/>
        <pt x="163" y="341" on="0"/>
        <pt x="187" y="368" on="1"/>
        <pt x="215" y="400" on="0"/>
        <pt x="231" y="419" on="1"/>
        <pt x="246" y="438" on="0"/>
        <pt x="270" y="465" on="1"/>
        <pt x="290" y="488" on="0"/>
        <pt x="354" y="557" on="0"/>
        <pt x="399" y="605" on="1"/>
        <pt x="353" y="607" on="0"/>
        <pt x="274" y="603" on="0"/>
        <pt x="245" y="599" on="1"/>
        <pt x="211" y="595" on="0"/>
        <pt x="182" y="588" on="1"/>
        <pt x="155" y="580" on="0"/>
        <pt x="127" y="562" on="1"/>
        <pt x="103" y="547" on="0"/>
        <pt x="47" y="493" on="0"/>
        <pt x="22" y="450" on="1"/>
        <pt x="20" y="483" on="0"/>
        <pt x="18" y="529" on="0"/>
        <pt x="17" y="544" on="1"/>
        <pt x="16" y="561" on="0"/>
        <pt x="15" y="572" on="1"/>
        <pt x="15" y="583" on="0"/>
        <pt x="13" y="601" on="1"/>
        <pt x="11" y="616" on="0"/>
        <pt x="7" y="663" on="0"/>
      </contour>
    </TTGlyph>
    <TTGlyph name="Zcaron" xMin="5" yMin="4" xMax="592" yMax="908">
      <component glyphName="Z" x="0" y="0" flags="0x204"/>
      <component glyphName="caron" x="-112" y="123" flags="0x4"/>
    </TTGlyph>
    <TTGlyph name="a" xMin="27" yMin="19" xMax="575" yMax="580">
      <contour>
        <pt x="90" y="405" on="1"/>
        <pt x="95" y="411" on="0"/>
        <pt x="98" y="444" on="0"/>
        <pt x="111" y="486" on="0"/>
        <pt x="143" y="532" on="0"/>
        <pt x="179" y="552" on="1"/>
        <pt x="214" y="572" on="0"/>
        <pt x="280" y="580" on="0"/>
        <pt x="340" y="566" on="0"/>
        <pt x="393" y="536" on="0"/>
        <pt x="415" y="518" on="1"/>
        <pt x="430" y="506" on="0"/>
        <pt x="448" y="461" on="0"/>
        <pt x="458" y="405" on="0"/>
        <pt x="463" y="344" on="0"/>
        <pt x="465" y="287" on="0"/>
        <pt x="466" y="240" on="0"/>
        <pt x="469" y="225" on="1"/>
        <pt x="473" y="203" on="0"/>
        <pt x="493" y="172" on="0"/>
        <pt x="517" y="151" on="0"/>
        <pt x="541" y="139" on="0"/>
        <pt x="550" y="136" on="1"/>
        <pt x="556" y="133" on="0"/>
        <pt x="561" y="132" on="1"/>
        <pt x="571" y="128" on="0"/>
        <pt x="575" y="132" on="1"/>
        <pt x="569" y="118" on="0"/>
        <pt x="559" y="98" on="0"/>
        <pt x="556" y="91" on="1"/>
        <pt x="552" y="83" on="0"/>
        <pt x="549" y="78" on="1"/>
        <pt x="546" y="72" on="0"/>
        <pt x="542" y="67" on="1"/>
        <pt x="539" y="62" on="0"/>
        <pt x="529" y="50" on="0"/>
        <pt x="524" y="43" on="1"/>
        <pt x="511" y="48" on="0"/>
        <pt x="488" y="62" on="0"/>
        <pt x="479" y="68" on="1"/>
        <pt x="468" y="75" on="0"/>
        <pt x="459" y="82" on="1"/>
        <pt x="450" y="89" on="0"/>
        <pt x="442" y="98" on="1"/>
        <pt x="435" y="106" on="0"/>
        <pt x="420" y="124" on="0"/>
        <pt x="415" y="135" on="1"/>
        <pt x="409" y="122" on="0"/>
        <pt x="364" y="74" on="0"/>
        <pt x="292" y="35" on="0"/>
        <pt x="197" y="19" on="0"/>
        <pt x="140" y="38" on="1"/>
        <pt x="115" y="46" on="0"/>
        <pt x="71" y="77" on="0"/>
        <pt x="40" y="121" on="0"/>
        <pt x="27" y="178" on="0"/>
        <pt x="34" y="213" on="1"/>
        <pt x="41" y="248" on="0"/>
        <pt x="77" y="296" on="0"/>
        <pt x="127" y="326" on="0"/>
        <pt x="189" y="342" on="0"/>
        <pt x="222" y="345" on="1"/>
        <pt x="248" y="346" on="0"/>
        <pt x="274" y="342" on="1"/>
        <pt x="296" y="338" on="0"/>
        <pt x="344" y="317" on="0"/>
        <pt x="361" y="296" on="1"/>
        <pt x="360" y="349" on="0"/>
        <pt x="355" y="412" on="0"/>
        <pt x="353" y="429" on="1"/>
        <pt x="349" y="449" on="0"/>
        <pt x="346" y="457" on="1"/>
        <pt x="341" y="464" on="0"/>
        <pt x="330" y="482" on="0"/>
        <pt x="314" y="497" on="0"/>
        <pt x="290" y="507" on="0"/>
        <pt x="274" y="506" on="1"/>
        <pt x="257" y="505" on="0"/>
        <pt x="237" y="489" on="0"/>
        <pt x="226" y="468" on="0"/>
        <pt x="224" y="444" on="0"/>
        <pt x="226" y="435" on="1"/>
        <pt x="228" y="429" on="0"/>
        <pt x="232" y="422" on="1"/>
        <pt x="236" y="416" on="0"/>
        <pt x="250" y="402" on="0"/>
        <pt x="262" y="397" on="1"/>
        <pt x="239" y="394" on="0"/>
        <pt x="203" y="391" on="0"/>
        <pt x="190" y="389" on="1"/>
        <pt x="175" y="387" on="0"/>
        <pt x="164" y="386" on="1"/>
        <pt x="153" y="385" on="0"/>
        <pt x="138" y="382" on="1"/>
        <pt x="125" y="380" on="0"/>
        <pt x="87" y="374" on="0"/>
        <pt x="62" y="369" on="1"/>
        <pt x="68" y="376" on="0"/>
        <pt x="78" y="389" on="0"/>
        <pt x="82" y="394" on="1"/>
        <pt x="86" y="400" on="0"/>
      </contour>
      <contour>
        <pt x="240" y="286" on="1"/>
        <pt x="222" y="285" on="0"/>
        <pt x="186" y="270" on="0"/>
        <pt x="158" y="243" on="0"/>
        <pt x="139" y="208" on="0"/>
        <pt x="139" y="187" on="1"/>
        <pt x="139" y="166" on="0"/>
        <pt x="160" y="135" on="0"/>
        <pt x="195" y="115" on="0"/>
        <pt x="236" y="111" on="0"/>
        <pt x="256" y="117" on="1"/>
        <pt x="275" y="124" on="0"/>
        <pt x="309" y="155" on="0"/>
        <pt x="333" y="192" on="0"/>
        <pt x="343" y="229" on="0"/>
        <pt x="339" y="241" on="1"/>
        <pt x="331" y="267" on="0"/>
        <pt x="275" y="288" on="0"/>
      </contour>
    </TTGlyph>
    <TTGlyph name="aacute" xMin="27" yMin="19" xMax="575" yMax="782">
      <component glyphName="a" x="0" y="0" flags="0x204"/>
      <component glyphName="acute" x="-91" y="-9" flags="0x4"/>
    </TTGlyph>
    <TTGlyph name="acircumflex" xMin="27" yMin="19" xMax="575" yMax="795">
      <component glyphName="a" x="0" y="0" flags="0x204"/>
      <component glyphName="circumflex" x="-91" y="10" flags="0x4"/>
    </TTGlyph>
    <TTGlyph name="acute" xMin="288" yMin="650" xMax="444" yMax="791">
      <contour>
        <pt x="288" y="688" on="1"/>
        <pt x="394" y="791" on="1"/>
        <pt x="444" y="738" on="1"/>
        <pt x="314" y="650" on="1"/>
      </contour>
    </TTGlyph>
    <TTGlyph name="adieresis" xMin="27" yMin="19" xMax="575" yMax="747">
      <component glyphName="a" x="0" y="0" flags="0x204"/>
      <component glyphName="dieresis" x="-91" y="-30" flags="0x4"/>
    </TTGlyph>
    <TTGlyph name="ae" xMin="22" yMin="18" xMax="800" yMax="586">
      <contour>
        <pt x="85" y="404" on="1"/>
        <pt x="90" y="411" on="0"/>
        <pt x="93" y="444" on="0"/>
        <pt x="106" y="486" on="0"/>
        <pt x="138" y="532" on="0"/>
        <pt x="174" y="552" on="1"/>
        <pt x="198" y="563" on="0"/>
        <pt x="231" y="567" on="1"/>
        <pt x="259" y="570" on="0"/>
        <pt x="337" y="558" on="0"/>
        <pt x="387" y="535" on="1"/>
        <pt x="407" y="552" on="0"/>
        <pt x="463" y="572" on="0"/>
        <pt x="489" y="577" on="1"/>
        <pt x="519" y="583" on="0"/>
        <pt x="550" y="586" on="1"/>
        <pt x="618" y="585" on="0"/>
        <pt x="673" y="557" on="1"/>
        <pt x="696" y="545" on="0"/>
        <pt x="741" y="505" on="0"/>
        <pt x="776" y="447" on="0"/>
        <pt x="799" y="367" on="0"/>
        <pt x="800" y="313" on="1"/>
        <pt x="738" y="307" on="0"/>
        <pt x="643" y="297" on="0"/>
        <pt x="572" y="289" on="0"/>
        <pt x="524" y="284" on="0"/>
        <pt x="509" y="282" on="1"/>
        <pt x="472" y="278" on="0"/>
        <pt x="468" y="275" on="1"/>
        <pt x="468" y="249" on="0"/>
        <pt x="490" y="199" on="0"/>
        <pt x="517" y="160" on="0"/>
        <pt x="542" y="136" on="0"/>
        <pt x="545" y="135" on="1"/>
        <pt x="555" y="134" on="0"/>
        <pt x="581" y="138" on="1"/>
        <pt x="604" y="142" on="0"/>
        <pt x="689" y="159" on="0"/>
        <pt x="764" y="179" on="1"/>
        <pt x="762" y="155" on="0"/>
        <pt x="764" y="141" on="1"/>
        <pt x="765" y="133" on="0"/>
        <pt x="766" y="128" on="1"/>
        <pt x="767" y="121" on="0"/>
        <pt x="769" y="113" on="1"/>
        <pt x="771" y="106" on="0"/>
        <pt x="774" y="87" on="0"/>
        <pt x="777" y="76" on="1"/>
        <pt x="688" y="56" on="0"/>
        <pt x="565" y="53" on="0"/>
        <pt x="527" y="59" on="1"/>
        <pt x="482" y="66" on="0"/>
        <pt x="454" y="81" on="1"/>
        <pt x="445" y="88" on="0"/>
        <pt x="436" y="96" on="1"/>
        <pt x="428" y="103" on="0"/>
        <pt x="414" y="122" on="0"/>
        <pt x="410" y="134" on="1"/>
        <pt x="404" y="121" on="0"/>
        <pt x="359" y="73" on="0"/>
        <pt x="287" y="34" on="0"/>
        <pt x="192" y="18" on="0"/>
        <pt x="135" y="37" on="1"/>
        <pt x="110" y="46" on="0"/>
        <pt x="66" y="77" on="0"/>
        <pt x="35" y="121" on="0"/>
        <pt x="22" y="177" on="0"/>
        <pt x="29" y="212" on="1"/>
        <pt x="36" y="248" on="0"/>
        <pt x="72" y="296" on="0"/>
        <pt x="122" y="326" on="0"/>
        <pt x="184" y="341" on="0"/>
        <pt x="217" y="344" on="1"/>
        <pt x="243" y="345" on="0"/>
        <pt x="269" y="341" on="1"/>
        <pt x="291" y="337" on="0"/>
        <pt x="338" y="317" on="0"/>
        <pt x="355" y="296" on="1"/>
        <pt x="354" y="349" on="0"/>
        <pt x="349" y="411" on="0"/>
        <pt x="347" y="428" on="1"/>
        <pt x="344" y="447" on="0"/>
        <pt x="341" y="456" on="1"/>
        <pt x="336" y="464" on="0"/>
        <pt x="325" y="482" on="0"/>
        <pt x="309" y="497" on="0"/>
        <pt x="285" y="506" on="0"/>
        <pt x="269" y="505" on="1"/>
        <pt x="252" y="504" on="0"/>
        <pt x="232" y="489" on="0"/>
        <pt x="221" y="467" on="0"/>
        <pt x="219" y="444" on="0"/>
        <pt x="221" y="435" on="1"/>
        <pt x="223" y="428" on="0"/>
        <pt x="227" y="421" on="1"/>
        <pt x="231" y="415" on="0"/>
        <pt x="245" y="402" on="0"/>
        <pt x="257" y="396" on="1"/>
        <pt x="234" y="393" on="0"/>
        <pt x="198" y="390" on="0"/>
        <pt x="185" y="388" on="1"/>
        <pt x="170" y="386" on="0"/>
        <pt x="159" y="385" on="1"/>
        <pt x="148" y="383" on="0"/>
        <pt x="133" y="381" on="1"/>
        <pt x="120" y="379" on="0"/>
        <pt x="82" y="374" on="0"/>
        <pt x="57" y="369" on="1"/>
        <pt x="63" y="375" on="0"/>
        <pt x="73" y="388" on="0"/>
        <pt x="77" y="393" on="1"/>
        <pt x="81" y="399" on="0"/>
      </contour>
      <contour>
        <pt x="234" y="285" on="1"/>
        <pt x="216" y="284" on="0"/>
        <pt x="181" y="269" on="0"/>
        <pt x="152" y="243" on="0"/>
        <pt x="134" y="208" on="0"/>
        <pt x="134" y="187" on="1"/>
        <pt x="134" y="166" on="0"/>
        <pt x="155" y="134" on="0"/>
        <pt x="190" y="115" on="0"/>
        <pt x="231" y="110" on="0"/>
        <pt x="251" y="117" on="1"/>
        <pt x="270" y="123" on="0"/>
        <pt x="304" y="154" on="0"/>
        <pt x="328" y="191" on="0"/>
        <pt x="338" y="228" on="0"/>
        <pt x="334" y="241" on="1"/>
        <pt x="326" y="266" on="0"/>
        <pt x="270" y="287" on="0"/>
      </contour>
      <contour>
        <pt x="687" y="367" on="1"/>
        <pt x="688" y="430" on="0"/>
        <pt x="653" y="498" on="0"/>
        <pt x="633" y="514" on="1"/>
        <pt x="608" y="532" on="0"/>
        <pt x="578" y="535" on="1"/>
        <pt x="547" y="532" on="0"/>
        <pt x="523" y="513" on="1"/>
        <pt x="513" y="505" on="0"/>
        <pt x="494" y="479" on="0"/>
        <pt x="479" y="442" on="0"/>
        <pt x="470" y="393" on="0"/>
        <pt x="471" y="360" on="1"/>
      </contour>
    </TTGlyph>
    <TTGlyph name="agrave" xMin="27" yMin="19" xMax="575" yMax="801">
      <component glyphName="a" x="0" y="0" flags="0x204"/>
      <component glyphName="grave" x="-122" y="0" flags="0x4"/>
    </TTGlyph>
    <TTGlyph name="ampersand" xMin="37" yMin="-39" xMax="669" yMax="750">
      <contour>
        <pt x="406" y="384" on="1"/>
        <pt x="426" y="383" on="0"/>
        <pt x="464" y="384" on="0"/>
        <pt x="479" y="385" on="1"/>
        <pt x="496" y="386" on="0"/>
        <pt x="511" y="388" on="1"/>
        <pt x="550" y="391" on="1"/>
        <pt x="570" y="392" on="0"/>
        <pt x="628" y="394" on="0"/>
        <pt x="669" y="395" on="1"/>
        <pt x="647" y="387" on="0"/>
        <pt x="616" y="367" on="0"/>
        <pt x="606" y="359" on="1"/>
        <pt x="595" y="349" on="0"/>
        <pt x="587" y="340" on="1"/>
        <pt x="578" y="328" on="0"/>
        <pt x="559" y="291" on="0"/>
        <pt x="537" y="251" on="0"/>
        <pt x="512" y="210" on="0"/>
        <pt x="497" y="194" on="1"/>
        <pt x="488" y="184" on="0"/>
        <pt x="478" y="173" on="1"/>
        <pt x="470" y="163" on="0"/>
        <pt x="448" y="139" on="0"/>
        <pt x="437" y="128" on="1"/>
        <pt x="462" y="100" on="0"/>
        <pt x="503" y="62" on="0"/>
        <pt x="517" y="51" on="1"/>
        <pt x="534" y="37" on="0"/>
        <pt x="546" y="29" on="1"/>
        <pt x="558" y="21" on="0"/>
        <pt x="574" y="13" on="1"/>
        <pt x="587" y="6" on="0"/>
        <pt x="623" y="-10" on="0"/>
        <pt x="645" y="-18" on="1"/>
        <pt x="534" y="-26" on="0"/>
        <pt x="412" y="-33" on="0"/>
        <pt x="384" y="-35" on="1"/>
        <pt x="351" y="-38" on="0"/>
        <pt x="344" y="-38" on="1"/>
        <pt x="342" y="-39" on="0"/>
        <pt x="354" y="-30" on="0"/>
        <pt x="370" y="-15" on="0"/>
        <pt x="384" y="4" on="0"/>
        <pt x="384" y="14" on="1"/>
        <pt x="384" y="22" on="0"/>
        <pt x="383" y="31" on="1"/>
        <pt x="382" y="39" on="0"/>
        <pt x="378" y="59" on="0"/>
        <pt x="373" y="70" on="1"/>
        <pt x="353" y="38" on="0"/>
        <pt x="293" y="6" on="0"/>
        <pt x="265" y="-1" on="1"/>
        <pt x="232" y="-9" on="0"/>
        <pt x="198" y="-8" on="1"/>
        <pt x="106" y="-2" on="0"/>
        <pt x="37" y="80" on="0"/>
        <pt x="42" y="159" on="1"/>
        <pt x="46" y="190" on="0"/>
        <pt x="61" y="227" on="1"/>
        <pt x="74" y="259" on="0"/>
        <pt x="125" y="341" on="0"/>
        <pt x="172" y="389" on="1"/>
        <pt x="122" y="447" on="0"/>
        <pt x="73" y="540" on="0"/>
        <pt x="63" y="573" on="1"/>
        <pt x="52" y="612" on="0"/>
        <pt x="54" y="641" on="1"/>
        <pt x="61" y="686" on="0"/>
        <pt x="100" y="730" on="0"/>
        <pt x="151" y="746" on="0"/>
        <pt x="209" y="746" on="0"/>
        <pt x="234" y="748" on="1"/>
        <pt x="259" y="750" on="0"/>
        <pt x="324" y="745" on="0"/>
        <pt x="384" y="730" on="0"/>
        <pt x="430" y="703" on="0"/>
        <pt x="437" y="683" on="1"/>
        <pt x="444" y="663" on="0"/>
        <pt x="450" y="626" on="0"/>
        <pt x="441" y="586" on="0"/>
        <pt x="411" y="541" on="0"/>
        <pt x="383" y="514" on="1"/>
        <pt x="362" y="491" on="0"/>
        <pt x="341" y="470" on="1"/>
        <pt x="323" y="452" on="0"/>
        <pt x="279" y="412" on="0"/>
        <pt x="259" y="397" on="1"/>
        <pt x="269" y="378" on="0"/>
        <pt x="291" y="343" on="0"/>
        <pt x="300" y="329" on="1"/>
        <pt x="311" y="312" on="0"/>
        <pt x="321" y="297" on="1"/>
        <pt x="333" y="277" on="0"/>
        <pt x="360" y="239" on="0"/>
        <pt x="383" y="211" on="0"/>
        <pt x="399" y="195" on="0"/>
        <pt x="401" y="197" on="1"/>
        <pt x="402" y="199" on="0"/>
        <pt x="419" y="233" on="0"/>
        <pt x="440" y="276" on="0"/>
        <pt x="457" y="318" on="0"/>
        <pt x="459" y="328" on="1"/>
        <pt x="458" y="336" on="0"/>
        <pt x="453" y="346" on="1"/>
        <pt x="448" y="354" on="0"/>
        <pt x="427" y="373" on="0"/>
      </contour>
      <contour>
        <pt x="212" y="469" on="1"/>
        <pt x="262" y="526" on="0"/>
        <pt x="308" y="596" on="0"/>
        <pt x="316" y="616" on="1"/>
        <pt x="326" y="639" on="0"/>
        <pt x="321" y="650" on="1"/>
        <pt x="312" y="661" on="0"/>
        <pt x="274" y="679" on="0"/>
        <pt x="230" y="680" on="0"/>
        <pt x="185" y="661" on="0"/>
        <pt x="169" y="634" on="1"/>
        <pt x="163" y="621" on="0"/>
        <pt x="165" y="598" on="1"/>
        <pt x="167" y="578" on="0"/>
        <pt x="186" y="516" on="0"/>
      </contour>
      <contour>
        <pt x="192" y="156" on="1"/>
        <pt x="205" y="137" on="0"/>
        <pt x="224" y="130" on="1"/>
        <pt x="241" y="123" on="0"/>
        <pt x="294" y="131" on="0"/>
        <pt x="332" y="157" on="1"/>
        <pt x="317" y="177" on="0"/>
        <pt x="295" y="210" on="0"/>
        <pt x="287" y="221" on="1"/>
        <pt x="278" y="234" on="0"/>
        <pt x="272" y="243" on="1"/>
        <pt x="266" y="252" on="0"/>
        <pt x="257" y="265" on="1"/>
        <pt x="249" y="276" on="0"/>
        <pt x="227" y="308" on="0"/>
        <pt x="212" y="330" on="1"/>
        <pt x="180" y="292" on="0"/>
        <pt x="163" y="207" on="0"/>
      </contour>
    </TTGlyph>
    <TTGlyph name="aring" xMin="27" yMin="19" xMax="575" yMax="746">
      <contour>
        <pt x="240" y="286" on="1"/>
        <pt x="222" y="285" on="0"/>
        <pt x="186" y="270" on="0"/>
        <pt x="158" y="243" on="0"/>
        <pt x="139" y="208" on="0"/>
        <pt x="139" y="187" on="1"/>
        <pt x="139" y="166" on="0"/>
        <pt x="160" y="135" on="0"/>
        <pt x="195" y="115" on="0"/>
        <pt x="236" y="111" on="0"/>
        <pt x="256" y="117" on="1"/>
        <pt x="275" y="124" on="0"/>
        <pt x="309" y="155" on="0"/>
        <pt x="333" y="192" on="0"/>
        <pt x="343" y="229" on="0"/>
        <pt x="339" y="241" on="1"/>
        <pt x="331" y="267" on="0"/>
        <pt x="275" y="288" on="0"/>
      </contour>
      <contour>
        <pt x="158" y="659" on="1"/>
        <pt x="160" y="675" on="0"/>
        <pt x="184" y="707" on="0"/>
        <pt x="218" y="732" on="0"/>
        <pt x="256" y="746" on="0"/>
        <pt x="273" y="743" on="1"/>
        <pt x="289" y="740" on="0"/>
        <pt x="323" y="727" on="0"/>
        <pt x="349" y="704" on="0"/>
        <pt x="366" y="672" on="0"/>
        <pt x="366" y="650" on="1"/>
        <pt x="366" y="620" on="0"/>
        <pt x="333" y="582" on="0"/>
        <pt x="309" y="573" on="1"/>
        <pt x="339" y="567" on="0"/>
        <pt x="393" y="536" on="0"/>
        <pt x="415" y="518" on="1"/>
        <pt x="430" y="506" on="0"/>
        <pt x="448" y="461" on="0"/>
        <pt x="458" y="405" on="0"/>
        <pt x="463" y="344" on="0"/>
        <pt x="465" y="287" on="0"/>
        <pt x="466" y="240" on="0"/>
        <pt x="469" y="225" on="1"/>
        <pt x="473" y="203" on="0"/>
        <pt x="493" y="172" on="0"/>
        <pt x="517" y="151" on="0"/>
        <pt x="541" y="139" on="0"/>
        <pt x="550" y="136" on="1"/>
        <pt x="556" y="133" on="0"/>
        <pt x="561" y="132" on="1"/>
        <pt x="571" y="128" on="0"/>
        <pt x="575" y="132" on="1"/>
        <pt x="569" y="118" on="0"/>
        <pt x="559" y="98" on="0"/>
        <pt x="556" y="91" on="1"/>
        <pt x="552" y="83" on="0"/>
        <pt x="549" y="78" on="1"/>
        <pt x="546" y="72" on="0"/>
        <pt x="542" y="67" on="1"/>
        <pt x="539" y="62" on="0"/>
        <pt x="529" y="50" on="0"/>
        <pt x="524" y="43" on="1"/>
        <pt x="511" y="48" on="0"/>
        <pt x="488" y="62" on="0"/>
        <pt x="479" y="68" on="1"/>
        <pt x="468" y="75" on="0"/>
        <pt x="459" y="82" on="1"/>
        <pt x="450" y="89" on="0"/>
        <pt x="442" y="98" on="1"/>
        <pt x="435" y="106" on="0"/>
        <pt x="420" y="124" on="0"/>
        <pt x="415" y="135" on="1"/>
        <pt x="409" y="122" on="0"/>
        <pt x="364" y="74" on="0"/>
        <pt x="292" y="35" on="0"/>
        <pt x="197" y="19" on="0"/>
        <pt x="140" y="38" on="1"/>
        <pt x="115" y="46" on="0"/>
        <pt x="71" y="77" on="0"/>
        <pt x="40" y="121" on="0"/>
        <pt x="27" y="178" on="0"/>
        <pt x="34" y="213" on="1"/>
        <pt x="41" y="248" on="0"/>
        <pt x="77" y="296" on="0"/>
        <pt x="127" y="326" on="0"/>
        <pt x="189" y="342" on="0"/>
        <pt x="222" y="345" on="1"/>
        <pt x="248" y="346" on="0"/>
        <pt x="274" y="342" on="1"/>
        <pt x="296" y="338" on="0"/>
        <pt x="344" y="317" on="0"/>
        <pt x="361" y="296" on="1"/>
        <pt x="360" y="349" on="0"/>
        <pt x="355" y="412" on="0"/>
        <pt x="353" y="429" on="1"/>
        <pt x="349" y="449" on="0"/>
        <pt x="346" y="457" on="1"/>
        <pt x="341" y="464" on="0"/>
        <pt x="330" y="482" on="0"/>
        <pt x="314" y="497" on="0"/>
        <pt x="290" y="507" on="0"/>
        <pt x="274" y="506" on="1"/>
        <pt x="257" y="505" on="0"/>
        <pt x="237" y="489" on="0"/>
        <pt x="226" y="468" on="0"/>
        <pt x="224" y="444" on="0"/>
        <pt x="226" y="435" on="1"/>
        <pt x="228" y="429" on="0"/>
        <pt x="232" y="422" on="1"/>
        <pt x="236" y="416" on="0"/>
        <pt x="250" y="402" on="0"/>
        <pt x="262" y="397" on="1"/>
        <pt x="164" y="386" on="1"/>
        <pt x="153" y="385" on="0"/>
        <pt x="138" y="382" on="1"/>
        <pt x="125" y="380" on="0"/>
        <pt x="87" y="374" on="0"/>
        <pt x="62" y="369" on="1"/>
        <pt x="68" y="376" on="0"/>
        <pt x="78" y="389" on="0"/>
        <pt x="82" y="394" on="1"/>
        <pt x="86" y="400" on="0"/>
        <pt x="90" y="405" on="1"/>
        <pt x="95" y="411" on="0"/>
        <pt x="98" y="444" on="0"/>
        <pt x="111" y="486" on="0"/>
        <pt x="143" y="532" on="0"/>
        <pt x="179" y="552" on="1"/>
        <pt x="191" y="560" on="0"/>
        <pt x="216" y="569" on="0"/>
        <pt x="228" y="572" on="1"/>
        <pt x="199" y="581" on="0"/>
        <pt x="154" y="624" on="0"/>
      </contour>
      <contour>
        <pt x="268" y="602" on="1"/>
        <pt x="293" y="602" on="0"/>
        <pt x="317" y="636" on="0"/>
        <pt x="316" y="675" on="0"/>
        <pt x="291" y="706" on="0"/>
        <pt x="268" y="703" on="1"/>
        <pt x="250" y="701" on="0"/>
        <pt x="227" y="669" on="0"/>
        <pt x="224" y="632" on="0"/>
        <pt x="243" y="602" on="0"/>
      </contour>
    </TTGlyph>
    <TTGlyph name="asciicircum" xMin="10" yMin="394" xMax="568" yMax="739">
      <contour>
        <pt x="10" y="400" on="1"/>
        <pt x="49" y="452" on="0"/>
        <pt x="104" y="522" on="0"/>
        <pt x="121" y="543" on="1"/>
        <pt x="141" y="568" on="0"/>
        <pt x="155" y="582" on="1"/>
        <pt x="167" y="596" on="0"/>
        <pt x="183" y="618" on="1"/>
        <pt x="197" y="637" on="0"/>
        <pt x="236" y="696" on="0"/>
        <pt x="260" y="739" on="1"/>
        <pt x="341" y="739" on="1"/>
        <pt x="365" y="688" on="0"/>
        <pt x="401" y="620" on="0"/>
        <pt x="413" y="599" on="1"/>
        <pt x="427" y="574" on="0"/>
        <pt x="437" y="560" on="1"/>
        <pt x="447" y="546" on="0"/>
        <pt x="465" y="523" on="1"/>
        <pt x="480" y="503" on="0"/>
        <pt x="530" y="440" on="0"/>
        <pt x="568" y="394" on="1"/>
        <pt x="444" y="394" on="1"/>
        <pt x="422" y="426" on="0"/>
        <pt x="396" y="473" on="0"/>
        <pt x="388" y="487" on="1"/>
        <pt x="379" y="504" on="0"/>
        <pt x="375" y="514" on="1"/>
        <pt x="371" y="524" on="0"/>
        <pt x="363" y="542" on="1"/>
        <pt x="356" y="557" on="0"/>
        <pt x="331" y="604" on="0"/>
        <pt x="311" y="639" on="1"/>
        <pt x="285" y="609" on="0"/>
        <pt x="253" y="569" on="0"/>
        <pt x="243" y="556" on="1"/>
        <pt x="232" y="541" on="0"/>
        <pt x="226" y="533" on="1"/>
        <pt x="221" y="524" on="0"/>
        <pt x="210" y="507" on="1"/>
        <pt x="201" y="493" on="0"/>
        <pt x="172" y="443" on="0"/>
        <pt x="150" y="405" on="1"/>
      </contour>
    </TTGlyph>
    <TTGlyph name="asciitilde" xMin="15" yMin="231" xMax="626" yMax="411">
      <contour>
        <pt x="15" y="358" on="1"/>
        <pt x="72" y="380" on="0"/>
        <pt x="150" y="401" on="0"/>
        <pt x="175" y="406" on="1"/>
        <pt x="204" y="411" on="0"/>
        <pt x="222" y="410" on="1"/>
        <pt x="243" y="407" on="0"/>
        <pt x="289" y="377" on="0"/>
        <pt x="341" y="343" on="0"/>
        <pt x="401" y="316" on="0"/>
        <pt x="436" y="318" on="1"/>
        <pt x="464" y="320" on="0"/>
        <pt x="490" y="328" on="1"/>
        <pt x="513" y="335" on="0"/>
        <pt x="564" y="362" on="0"/>
        <pt x="584" y="386" on="1"/>
        <pt x="584" y="370" on="0"/>
        <pt x="589" y="355" on="1"/>
        <pt x="592" y="347" on="0"/>
        <pt x="595" y="340" on="1"/>
        <pt x="599" y="332" on="0"/>
        <pt x="603" y="322" on="1"/>
        <pt x="607" y="313" on="0"/>
        <pt x="618" y="289" on="0"/>
        <pt x="626" y="272" on="1"/>
        <pt x="622" y="261" on="0"/>
        <pt x="591" y="248" on="0"/>
        <pt x="574" y="243" on="1"/>
        <pt x="554" y="238" on="0"/>
        <pt x="528" y="235" on="1"/>
        <pt x="485" y="231" on="0"/>
        <pt x="416" y="244" on="0"/>
        <pt x="357" y="267" on="0"/>
        <pt x="308" y="295" on="0"/>
        <pt x="264" y="319" on="0"/>
        <pt x="224" y="333" on="0"/>
        <pt x="203" y="331" on="1"/>
        <pt x="179" y="328" on="0"/>
        <pt x="153" y="318" on="1"/>
        <pt x="130" y="310" on="0"/>
        <pt x="76" y="278" on="0"/>
        <pt x="50" y="251" on="1"/>
      </contour>
    </TTGlyph>
    <TTGlyph name="asterisk" xMin="15" yMin="309" xMax="428" yMax="755">
      <contour>
        <pt x="15" y="603" on="1"/>
        <pt x="66" y="663" on="1"/>
        <pt x="189" y="558" on="1"/>
        <pt x="234" y="755" on="1"/>
        <pt x="339" y="702" on="1"/>
        <pt x="234" y="561" on="1"/>
        <pt x="413" y="582" on="1"/>
        <pt x="428" y="471" on="1"/>
        <pt x="246" y="501" on="1"/>
        <pt x="324" y="330" on="1"/>
        <pt x="293" y="323" on="0"/>
        <pt x="258" y="315" on="0"/>
        <pt x="249" y="313" on="1"/>
        <pt x="238" y="310" on="0"/>
        <pt x="234" y="309" on="1"/>
        <pt x="232" y="310" on="0"/>
        <pt x="228" y="328" on="1"/>
        <pt x="225" y="343" on="0"/>
        <pt x="215" y="408" on="0"/>
        <pt x="210" y="471" on="1"/>
        <pt x="87" y="366" on="1"/>
        <pt x="36" y="444" on="1"/>
        <pt x="159" y="507" on="1"/>
        <pt x="103" y="543" on="0"/>
        <pt x="46" y="582" on="0"/>
        <pt x="32" y="591" on="1"/>
        <pt x="16" y="602" on="0"/>
      </contour>
    </TTGlyph>
    <TTGlyph name="at" xMin="13" yMin="35" xMax="677" yMax="717">
      <contour>
        <pt x="445" y="546" on="1"/>
        <pt x="513" y="533" on="1"/>
        <pt x="504" y="471" on="0"/>
        <pt x="496" y="396" on="0"/>
        <pt x="494" y="376" on="1"/>
        <pt x="492" y="352" on="0"/>
        <pt x="494" y="342" on="1"/>
        <pt x="498" y="320" on="0"/>
        <pt x="513" y="294" on="0"/>
        <pt x="535" y="296" on="1"/>
        <pt x="545" y="297" on="0"/>
        <pt x="574" y="334" on="0"/>
        <pt x="598" y="386" on="0"/>
        <pt x="613" y="443" on="0"/>
        <pt x="609" y="463" on="1"/>
        <pt x="605" y="484" on="0"/>
        <pt x="577" y="530" on="0"/>
        <pt x="543" y="571" on="0"/>
        <pt x="510" y="600" on="0"/>
        <pt x="501" y="604" on="1"/>
        <pt x="492" y="608" on="0"/>
        <pt x="432" y="625" on="0"/>
        <pt x="355" y="634" on="0"/>
        <pt x="275" y="624" on="0"/>
        <pt x="246" y="600" on="1"/>
        <pt x="217" y="577" on="0"/>
        <pt x="162" y="510" on="0"/>
        <pt x="123" y="428" on="0"/>
        <pt x="107" y="333" on="0"/>
        <pt x="117" y="281" on="1"/>
        <pt x="127" y="229" on="0"/>
        <pt x="178" y="158" on="0"/>
        <pt x="244" y="114" on="0"/>
        <pt x="317" y="96" on="0"/>
        <pt x="350" y="96" on="1"/>
        <pt x="376" y="97" on="0"/>
        <pt x="409" y="105" on="1"/>
        <pt x="437" y="111" on="0"/>
        <pt x="513" y="138" on="0"/>
        <pt x="558" y="162" on="1"/>
        <pt x="572" y="102" on="1"/>
        <pt x="503" y="70" on="0"/>
        <pt x="394" y="43" on="0"/>
        <pt x="356" y="39" on="1"/>
        <pt x="312" y="35" on="0"/>
        <pt x="279" y="39" on="1"/>
        <pt x="238" y="47" on="0"/>
        <pt x="144" y="82" on="0"/>
        <pt x="65" y="142" on="0"/>
        <pt x="13" y="229" on="0"/>
        <pt x="15" y="291" on="1"/>
        <pt x="17" y="352" on="0"/>
        <pt x="55" y="489" on="0"/>
        <pt x="129" y="608" on="0"/>
        <pt x="241" y="694" on="0"/>
        <pt x="318" y="705" on="1"/>
        <pt x="395" y="717" on="0"/>
        <pt x="503" y="699" on="0"/>
        <pt x="575" y="664" on="0"/>
        <pt x="615" y="622" on="0"/>
        <pt x="623" y="609" on="1"/>
        <pt x="628" y="600" on="0"/>
        <pt x="647" y="559" on="0"/>
        <pt x="665" y="502" on="0"/>
        <pt x="677" y="436" on="0"/>
        <pt x="674" y="369" on="0"/>
        <pt x="653" y="306" on="0"/>
        <pt x="629" y="282" on="1"/>
        <pt x="602" y="255" on="0"/>
        <pt x="579" y="236" on="1"/>
        <pt x="559" y="219" on="0"/>
        <pt x="521" y="196" on="0"/>
        <pt x="513" y="201" on="1"/>
        <pt x="492" y="216" on="0"/>
        <pt x="483" y="225" on="1"/>
        <pt x="478" y="230" on="0"/>
        <pt x="474" y="235" on="1"/>
        <pt x="471" y="240" on="0"/>
        <pt x="468" y="246" on="1"/>
        <pt x="466" y="251" on="0"/>
        <pt x="459" y="266" on="0"/>
        <pt x="457" y="277" on="1"/>
        <pt x="443" y="234" on="0"/>
        <pt x="398" y="192" on="0"/>
        <pt x="376" y="184" on="1"/>
        <pt x="350" y="174" on="0"/>
        <pt x="322" y="176" on="1"/>
        <pt x="285" y="180" on="0"/>
        <pt x="227" y="216" on="0"/>
        <pt x="190" y="272" on="0"/>
        <pt x="175" y="342" on="0"/>
        <pt x="181" y="381" on="1"/>
        <pt x="187" y="420" on="0"/>
        <pt x="223" y="484" on="0"/>
        <pt x="270" y="531" on="0"/>
        <pt x="323" y="556" on="0"/>
        <pt x="347" y="555" on="1"/>
        <pt x="365" y="554" on="0"/>
        <pt x="383" y="545" on="1"/>
        <pt x="398" y="537" on="0"/>
        <pt x="430" y="507" on="0"/>
        <pt x="442" y="479" on="1"/>
      </contour>
      <contour>
        <pt x="327" y="240" on="1"/>
        <pt x="344" y="236" on="0"/>
        <pt x="377" y="259" on="0"/>
        <pt x="405" y="296" on="0"/>
        <pt x="424" y="341" on="0"/>
        <pt x="426" y="359" on="1"/>
        <pt x="429" y="377" on="0"/>
        <pt x="426" y="419" on="0"/>
        <pt x="412" y="456" on="0"/>
        <pt x="385" y="482" on="0"/>
        <pt x="364" y="484" on="1"/>
        <pt x="337" y="485" on="0"/>
        <pt x="286" y="426" on="0"/>
        <pt x="276" y="376" on="1"/>
        <pt x="273" y="362" on="0"/>
        <pt x="275" y="318" on="0"/>
        <pt x="287" y="276" on="0"/>
        <pt x="310" y="244" on="0"/>
      </contour>
    </TTGlyph>
    <TTGlyph name="atilde" xMin="27" yMin="19" xMax="575" yMax="778">
      <component glyphName="a" x="0" y="0" flags="0x204"/>
      <component glyphName="tilde" x="-91" y="-9" flags="0x4"/>
    </TTGlyph>
    <TTGlyph name="b" xMin="15" yMin="-13" xMax="566" yMax="706">
      <contour>
        <pt x="15" y="702" on="1"/>
        <pt x="38" y="696" on="0"/>
        <pt x="77" y="691" on="0"/>
        <pt x="91" y="690" on="1"/>
        <pt x="108" y="689" on="0"/>
        <pt x="122" y="689" on="1"/>
        <pt x="136" y="689" on="0"/>
        <pt x="157" y="691" on="1"/>
        <pt x="194" y="694" on="0"/>
        <pt x="262" y="706" on="1"/>
        <pt x="251" y="698" on="0"/>
        <pt x="232" y="683" on="0"/>
        <pt x="225" y="676" on="1"/>
        <pt x="210" y="661" on="1"/>
        <pt x="197" y="643" on="0"/>
        <pt x="184" y="600" on="1"/>
        <pt x="173" y="563" on="0"/>
        <pt x="148" y="429" on="0"/>
        <pt x="138" y="318" on="1"/>
        <pt x="187" y="366" on="0"/>
        <pt x="274" y="415" on="0"/>
        <pt x="307" y="426" on="1"/>
        <pt x="346" y="438" on="0"/>
        <pt x="378" y="439" on="1"/>
        <pt x="419" y="436" on="0"/>
        <pt x="480" y="409" on="0"/>
        <pt x="523" y="372" on="0"/>
        <pt x="550" y="333" on="0"/>
        <pt x="557" y="318" on="1"/>
        <pt x="561" y="308" on="0"/>
        <pt x="566" y="255" on="0"/>
        <pt x="562" y="187" on="0"/>
        <pt x="545" y="112" on="0"/>
        <pt x="508" y="49" on="0"/>
        <pt x="449" y="7" on="0"/>
        <pt x="405" y="5" on="1"/>
        <pt x="354" y="5" on="0"/>
        <pt x="306" y="17" on="1"/>
        <pt x="265" y="27" on="0"/>
        <pt x="174" y="78" on="0"/>
        <pt x="142" y="126" on="1"/>
        <pt x="142" y="114" on="0"/>
        <pt x="142" y="91" on="0"/>
        <pt x="143" y="83" on="1"/>
        <pt x="144" y="72" on="0"/>
        <pt x="145" y="64" on="1"/>
        <pt x="146" y="55" on="0"/>
        <pt x="150" y="45" on="1"/>
        <pt x="153" y="37" on="0"/>
        <pt x="166" y="14" on="0"/>
        <pt x="177" y="3" on="1"/>
        <pt x="166" y="4" on="0"/>
        <pt x="144" y="5" on="0"/>
        <pt x="133" y="4" on="1"/>
        <pt x="121" y="3" on="0"/>
        <pt x="109" y="2" on="1"/>
        <pt x="97" y="1" on="0"/>
        <pt x="84" y="-1" on="1"/>
        <pt x="73" y="-3" on="0"/>
        <pt x="43" y="-9" on="0"/>
        <pt x="27" y="-13" on="1"/>
        <pt x="30" y="-4" on="0"/>
        <pt x="34" y="31" on="0"/>
        <pt x="39" y="74" on="0"/>
        <pt x="42" y="122" on="0"/>
        <pt x="44" y="146" on="1"/>
        <pt x="48" y="201" on="0"/>
        <pt x="51" y="266" on="1"/>
        <pt x="54" y="367" on="0"/>
        <pt x="52" y="454" on="1"/>
        <pt x="51" y="491" on="0"/>
        <pt x="46" y="567" on="0"/>
        <pt x="38" y="634" on="0"/>
        <pt x="25" y="687" on="0"/>
      </contour>
      <contour>
        <pt x="145" y="215" on="1"/>
        <pt x="161" y="186" on="0"/>
        <pt x="197" y="145" on="0"/>
        <pt x="233" y="117" on="0"/>
        <pt x="268" y="101" on="0"/>
        <pt x="284" y="97" on="1"/>
        <pt x="321" y="87" on="0"/>
        <pt x="357" y="95" on="1"/>
        <pt x="393" y="105" on="0"/>
        <pt x="433" y="165" on="0"/>
        <pt x="444" y="203" on="1"/>
        <pt x="449" y="221" on="0"/>
        <pt x="452" y="277" on="0"/>
        <pt x="437" y="330" on="0"/>
        <pt x="399" y="371" on="0"/>
        <pt x="363" y="375" on="1"/>
        <pt x="338" y="375" on="0"/>
        <pt x="305" y="361" on="1"/>
        <pt x="276" y="349" on="0"/>
        <pt x="196" y="294" on="0"/>
        <pt x="145" y="240" on="1"/>
      </contour>
    </TTGlyph>
    <TTGlyph name="backslash" xMin="-5" yMin="-12" xMax="485" yMax="756">
      <contour>
        <pt x="124" y="756" on="1"/>
        <pt x="166" y="656" on="0"/>
        <pt x="233" y="503" on="0"/>
        <pt x="256" y="450" on="1"/>
        <pt x="283" y="388" on="0"/>
        <pt x="304" y="343" on="1"/>
        <pt x="317" y="315" on="0"/>
        <pt x="341" y="267" on="1"/>
        <pt x="361" y="225" on="0"/>
        <pt x="431" y="91" on="0"/>
        <pt x="485" y="-12" on="1"/>
        <pt x="471" y="-8" on="0"/>
        <pt x="447" y="-4" on="0"/>
        <pt x="437" y="-2" on="1"/>
        <pt x="426" y="0" on="0"/>
        <pt x="416" y="0" on="1"/>
        <pt x="407" y="0" on="0"/>
        <pt x="397" y="1" on="1"/>
        <pt x="389" y="2" on="0"/>
        <pt x="371" y="3" on="0"/>
        <pt x="363" y="3" on="1"/>
        <pt x="312" y="117" on="0"/>
        <pt x="240" y="275" on="0"/>
        <pt x="217" y="325" on="1"/>
        <pt x="191" y="383" on="0"/>
        <pt x="174" y="419" on="1"/>
        <pt x="157" y="453" on="0"/>
        <pt x="131" y="502" on="1"/>
        <pt x="109" y="544" on="0"/>
        <pt x="42" y="668" on="0"/>
        <pt x="-5" y="751" on="1"/>
        <pt x="6" y="753" on="0"/>
        <pt x="25" y="754" on="0"/>
        <pt x="33" y="755" on="1"/>
        <pt x="42" y="756" on="0"/>
        <pt x="50" y="756" on="1"/>
        <pt x="124" y="756" on="1"/>
      </contour>
    </TTGlyph>
    <TTGlyph name="bar" xMin="51" yMin="-12" xMax="192" yMax="756">
      <contour>
        <pt x="51" y="756" on="1"/>
        <pt x="126" y="756" on="1"/>
        <pt x="133" y="756" on="0"/>
        <pt x="142" y="755" on="1"/>
        <pt x="150" y="754" on="0"/>
        <pt x="171" y="753" on="0"/>
        <pt x="183" y="751" on="1"/>
        <pt x="178" y="668" on="0"/>
        <pt x="173" y="544" on="0"/>
        <pt x="172" y="502" on="1"/>
        <pt x="171" y="453" on="0"/>
        <pt x="172" y="419" on="1"/>
        <pt x="172" y="383" on="0"/>
        <pt x="175" y="325" on="1"/>
        <pt x="177" y="275" on="0"/>
        <pt x="185" y="117" on="0"/>
        <pt x="192" y="3" on="1"/>
        <pt x="184" y="3" on="0"/>
        <pt x="166" y="2" on="0"/>
        <pt x="158" y="1" on="1"/>
        <pt x="148" y="0" on="0"/>
        <pt x="140" y="0" on="1"/>
        <pt x="131" y="0" on="0"/>
        <pt x="120" y="-2" on="1"/>
        <pt x="111" y="-4" on="0"/>
        <pt x="89" y="-8" on="0"/>
        <pt x="77" y="-12" on="1"/>
        <pt x="79" y="91" on="0"/>
        <pt x="81" y="225" on="0"/>
        <pt x="81" y="267" on="1"/>
        <pt x="81" y="315" on="0"/>
        <pt x="80" y="343" on="1"/>
        <pt x="78" y="388" on="0"/>
        <pt x="74" y="450" on="1"/>
        <pt x="71" y="503" on="0"/>
        <pt x="59" y="656" on="0"/>
      </contour>
    </TTGlyph>
    <TTGlyph name="braceleft" xMin="51" yMin="-124" xMax="302" yMax="871">
      <contour>
        <pt x="277" y="-124" on="1"/>
        <pt x="217" y="-119" on="0"/>
        <pt x="145" y="-76" on="0"/>
        <pt x="125" y="-52" on="1"/>
        <pt x="102" y="-25" on="0"/>
        <pt x="93" y="9" on="1"/>
        <pt x="84" y="53" on="0"/>
        <pt x="97" y="125" on="0"/>
        <pt x="120" y="185" on="0"/>
        <pt x="142" y="233" on="0"/>
        <pt x="141" y="253" on="1"/>
        <pt x="139" y="269" on="0"/>
        <pt x="128" y="284" on="1"/>
        <pt x="119" y="297" on="0"/>
        <pt x="83" y="326" on="0"/>
        <pt x="51" y="337" on="1"/>
        <pt x="57" y="432" on="1"/>
        <pt x="95" y="427" on="0"/>
        <pt x="138" y="441" on="0"/>
        <pt x="149" y="451" on="1"/>
        <pt x="161" y="462" on="0"/>
        <pt x="165" y="478" on="1"/>
        <pt x="167" y="499" on="0"/>
        <pt x="137" y="555" on="0"/>
        <pt x="102" y="620" on="0"/>
        <pt x="75" y="691" on="0"/>
        <pt x="81" y="727" on="1"/>
        <pt x="88" y="755" on="0"/>
        <pt x="113" y="781" on="1"/>
        <pt x="134" y="804" on="0"/>
        <pt x="218" y="852" on="0"/>
        <pt x="292" y="871" on="1"/>
        <pt x="302" y="746" on="1"/>
        <pt x="254" y="751" on="0"/>
        <pt x="203" y="739" on="0"/>
        <pt x="191" y="730" on="1"/>
        <pt x="177" y="719" on="0"/>
        <pt x="174" y="705" on="1"/>
        <pt x="172" y="684" on="0"/>
        <pt x="195" y="640" on="0"/>
        <pt x="221" y="587" on="0"/>
        <pt x="240" y="525" on="0"/>
        <pt x="236" y="488" on="1"/>
        <pt x="231" y="459" on="0"/>
        <pt x="220" y="434" on="1"/>
        <pt x="210" y="412" on="0"/>
        <pt x="175" y="371" on="0"/>
        <pt x="145" y="360" on="1"/>
        <pt x="182" y="361" on="0"/>
        <pt x="221" y="335" on="0"/>
        <pt x="230" y="319" on="1"/>
        <pt x="240" y="300" on="0"/>
        <pt x="241" y="274" on="1"/>
        <pt x="239" y="240" on="0"/>
        <pt x="218" y="188" on="0"/>
        <pt x="194" y="141" on="0"/>
        <pt x="174" y="96" on="0"/>
        <pt x="174" y="69" on="1"/>
        <pt x="176" y="48" on="0"/>
        <pt x="187" y="31" on="1"/>
        <pt x="197" y="17" on="0"/>
        <pt x="239" y="-10" on="0"/>
        <pt x="281" y="-13" on="1"/>
      </contour>
    </TTGlyph>
    <TTGlyph name="braceright" xMin="51" yMin="-130" xMax="294" yMax="865">
      <contour>
        <pt x="60" y="865" on="1"/>
        <pt x="120" y="860" on="0"/>
        <pt x="193" y="819" on="0"/>
        <pt x="213" y="796" on="1"/>
        <pt x="237" y="769" on="0"/>
        <pt x="247" y="736" on="1"/>
        <pt x="257" y="692" on="0"/>
        <pt x="245" y="619" on="0"/>
        <pt x="222" y="559" on="0"/>
        <pt x="201" y="511" on="0"/>
        <pt x="203" y="490" on="1"/>
        <pt x="205" y="475" on="0"/>
        <pt x="216" y="460" on="1"/>
        <pt x="225" y="447" on="0"/>
        <pt x="262" y="419" on="0"/>
        <pt x="294" y="409" on="1"/>
        <pt x="290" y="313" on="1"/>
        <pt x="252" y="316" on="0"/>
        <pt x="209" y="302" on="0"/>
        <pt x="198" y="292" on="1"/>
        <pt x="186" y="281" on="0"/>
        <pt x="183" y="265" on="1"/>
        <pt x="181" y="244" on="0"/>
        <pt x="212" y="188" on="0"/>
        <pt x="249" y="124" on="0"/>
        <pt x="277" y="54" on="0"/>
        <pt x="272" y="18" on="1"/>
        <pt x="266" y="-11" on="0"/>
        <pt x="241" y="-37" on="1"/>
        <pt x="220" y="-60" on="0"/>
        <pt x="136" y="-110" on="0"/>
        <pt x="63" y="-130" on="1"/>
        <pt x="51" y="-5" on="1"/>
        <pt x="98" y="-10" on="0"/>
        <pt x="149" y="3" on="0"/>
        <pt x="161" y="12" on="1"/>
        <pt x="175" y="23" on="0"/>
        <pt x="178" y="38" on="1"/>
        <pt x="179" y="59" on="0"/>
        <pt x="156" y="103" on="0"/>
        <pt x="129" y="155" on="0"/>
        <pt x="109" y="216" on="0"/>
        <pt x="113" y="254" on="1"/>
        <pt x="116" y="282" on="0"/>
        <pt x="127" y="308" on="1"/>
        <pt x="136" y="330" on="0"/>
        <pt x="171" y="373" on="0"/>
        <pt x="201" y="384" on="1"/>
        <pt x="163" y="381" on="0"/>
        <pt x="123" y="406" on="0"/>
        <pt x="114" y="423" on="1"/>
        <pt x="103" y="442" on="0"/>
        <pt x="103" y="468" on="1"/>
        <pt x="104" y="502" on="0"/>
        <pt x="124" y="554" on="0"/>
        <pt x="148" y="601" on="0"/>
        <pt x="167" y="647" on="0"/>
        <pt x="167" y="674" on="1"/>
        <pt x="165" y="694" on="0"/>
        <pt x="153" y="711" on="1"/>
        <pt x="142" y="725" on="0"/>
        <pt x="99" y="751" on="0"/>
        <pt x="58" y="754" on="1"/>
      </contour>
    </TTGlyph>
    <TTGlyph name="bracketleft" xMin="71" yMin="-128" xMax="253" yMax="877">
      <contour>
        <pt x="228" y="-126" on="1"/>
        <pt x="211" y="-128" on="0"/>
        <pt x="185" y="-126" on="0"/>
        <pt x="175" y="-125" on="1"/>
        <pt x="164" y="-124" on="0"/>
        <pt x="155" y="-122" on="1"/>
        <pt x="146" y="-120" on="0"/>
        <pt x="135" y="-117" on="1"/>
        <pt x="125" y="-115" on="0"/>
        <pt x="99" y="-107" on="0"/>
        <pt x="82" y="-101" on="1"/>
        <pt x="80" y="14" on="0"/>
        <pt x="77" y="188" on="0"/>
        <pt x="76" y="247" on="1"/>
        <pt x="75" y="316" on="0"/>
        <pt x="74" y="365" on="1"/>
        <pt x="74" y="415" on="0"/>
        <pt x="73" y="485" on="1"/>
        <pt x="72" y="545" on="0"/>
        <pt x="71" y="725" on="0"/>
        <pt x="72" y="846" on="1"/>
        <pt x="86" y="851" on="0"/>
        <pt x="114" y="860" on="0"/>
        <pt x="125" y="862" on="1"/>
        <pt x="137" y="865" on="0"/>
        <pt x="149" y="866" on="1"/>
        <pt x="160" y="867" on="0"/>
        <pt x="174" y="869" on="1"/>
        <pt x="186" y="871" on="0"/>
        <pt x="219" y="875" on="0"/>
        <pt x="239" y="877" on="1"/>
        <pt x="253" y="747" on="1"/>
        <pt x="155" y="750" on="1"/>
        <pt x="152" y="664" on="0"/>
        <pt x="150" y="524" on="0"/>
        <pt x="149" y="473" on="1"/>
        <pt x="148" y="413" on="0"/>
        <pt x="149" y="366" on="1"/>
        <pt x="149" y="319" on="0"/>
        <pt x="151" y="260" on="1"/>
        <pt x="153" y="209" on="0"/>
        <pt x="157" y="71" on="0"/>
        <pt x="162" y="-13" on="1"/>
        <pt x="235" y="-3" on="1"/>
      </contour>
    </TTGlyph>
    <TTGlyph name="bracketright" xMin="10" yMin="-128" xMax="197" yMax="875">
      <contour>
        <pt x="51" y="874" on="1"/>
        <pt x="67" y="875" on="0"/>
        <pt x="94" y="874" on="0"/>
        <pt x="104" y="873" on="1"/>
        <pt x="115" y="872" on="0"/>
        <pt x="124" y="870" on="1"/>
        <pt x="133" y="868" on="0"/>
        <pt x="144" y="864" on="1"/>
        <pt x="154" y="861" on="0"/>
        <pt x="180" y="853" on="0"/>
        <pt x="197" y="847" on="1"/>
        <pt x="197" y="381" on="1"/>
        <pt x="197" y="331" on="0"/>
        <pt x="196" y="261" on="1"/>
        <pt x="195" y="143" on="0"/>
        <pt x="190" y="-100" on="1"/>
        <pt x="175" y="-105" on="0"/>
        <pt x="147" y="-113" on="0"/>
        <pt x="136" y="-115" on="1"/>
        <pt x="123" y="-118" on="0"/>
        <pt x="112" y="-119" on="1"/>
        <pt x="100" y="-120" on="0"/>
        <pt x="86" y="-122" on="1"/>
        <pt x="74" y="-124" on="0"/>
        <pt x="42" y="-126" on="0"/>
        <pt x="22" y="-128" on="1"/>
        <pt x="10" y="2" on="1"/>
        <pt x="108" y="-3" on="1"/>
        <pt x="112" y="82" on="0"/>
        <pt x="117" y="223" on="0"/>
        <pt x="119" y="274" on="1"/>
        <pt x="121" y="334" on="0"/>
        <pt x="122" y="381" on="1"/>
        <pt x="123" y="428" on="0"/>
        <pt x="122" y="487" on="1"/>
        <pt x="121" y="538" on="0"/>
        <pt x="118" y="676" on="0"/>
        <pt x="115" y="761" on="1"/>
        <pt x="42" y="752" on="1"/>
      </contour>
    </TTGlyph>
    <TTGlyph name="breve" xMin="212" yMin="662" xMax="520" yMax="785">
      <contour>
        <pt x="520" y="776" on="1"/>
        <pt x="518" y="776" on="0"/>
        <pt x="495" y="740" on="0"/>
        <pt x="456" y="697" on="0"/>
        <pt x="402" y="662" on="0"/>
        <pt x="370" y="662" on="1"/>
        <pt x="338" y="662" on="0"/>
        <pt x="281" y="698" on="0"/>
        <pt x="259" y="721" on="1"/>
        <pt x="233" y="747" on="0"/>
        <pt x="212" y="780" on="1"/>
        <pt x="313" y="785" on="1"/>
        <pt x="324" y="763" on="0"/>
        <pt x="349" y="723" on="0"/>
        <pt x="370" y="723" on="1"/>
        <pt x="395" y="723" on="0"/>
        <pt x="418" y="755" on="0"/>
        <pt x="428" y="778" on="1"/>
      </contour>
    </TTGlyph>
    <TTGlyph name="brokenbar" xMin="61" yMin="5" xMax="176" yMax="756">
      <contour>
        <pt x="61" y="756" on="1"/>
        <pt x="160" y="756" on="1"/>
        <pt x="159" y="716" on="0"/>
        <pt x="158" y="658" on="0"/>
        <pt x="158" y="639" on="1"/>
        <pt x="158" y="601" on="1"/>
        <pt x="157" y="585" on="0"/>
        <pt x="158" y="563" on="1"/>
        <pt x="158" y="544" on="0"/>
        <pt x="160" y="487" on="0"/>
        <pt x="162" y="448" on="1"/>
        <pt x="73" y="454" on="1"/>
        <pt x="70" y="479" on="0"/>
        <pt x="67" y="523" on="0"/>
        <pt x="66" y="540" on="1"/>
        <pt x="65" y="559" on="0"/>
        <pt x="64" y="577" on="1"/>
        <pt x="63" y="595" on="0"/>
        <pt x="62" y="621" on="1"/>
        <pt x="61" y="643" on="0"/>
        <pt x="61" y="710" on="0"/>
      </contour>
      <contour>
        <pt x="73" y="321" on="1"/>
        <pt x="167" y="317" on="1"/>
        <pt x="170" y="254" on="0"/>
        <pt x="170" y="216" on="1"/>
        <pt x="170" y="195" on="0"/>
        <pt x="169" y="178" on="1"/>
        <pt x="168" y="161" on="0"/>
        <pt x="169" y="135" on="1"/>
        <pt x="170" y="113" on="0"/>
        <pt x="172" y="49" on="0"/>
        <pt x="176" y="5" on="1"/>
        <pt x="66" y="9" on="1"/>
        <pt x="68" y="48" on="0"/>
        <pt x="72" y="103" on="0"/>
        <pt x="73" y="121" on="1"/>
        <pt x="74" y="142" on="0"/>
        <pt x="75" y="156" on="1"/>
        <pt x="75" y="193" on="1"/>
        <pt x="75" y="213" on="0"/>
        <pt x="75" y="275" on="0"/>
      </contour>
    </TTGlyph>
    <TTGlyph name="bullet" xMin="28" yMin="275" xMax="238" yMax="455">
      <contour>
        <pt x="126" y="454" on="1"/>
        <pt x="147" y="455" on="0"/>
        <pt x="190" y="440" on="0"/>
        <pt x="222" y="412" on="0"/>
        <pt x="238" y="375" on="0"/>
        <pt x="233" y="354" on="1"/>
        <pt x="228" y="333" on="0"/>
        <pt x="198" y="301" on="0"/>
        <pt x="160" y="282" on="0"/>
        <pt x="120" y="275" on="0"/>
        <pt x="105" y="278" on="1"/>
        <pt x="89" y="281" on="0"/>
        <pt x="59" y="301" on="0"/>
        <pt x="38" y="328" on="0"/>
        <pt x="28" y="361" on="0"/>
        <pt x="33" y="378" on="1"/>
        <pt x="43" y="413" on="0"/>
        <pt x="92" y="452" on="0"/>
      </contour>
    </TTGlyph>
    <TTGlyph name="c" xMin="19" yMin="52" xMax="574" yMax="569">
      <contour>
        <pt x="574" y="355" on="1"/>
        <pt x="562" y="357" on="0"/>
        <pt x="527" y="359" on="0"/>
        <pt x="511" y="359" on="1"/>
        <pt x="493" y="359" on="0"/>
        <pt x="473" y="358" on="1"/>
        <pt x="452" y="357" on="0"/>
        <pt x="431" y="356" on="1"/>
        <pt x="413" y="355" on="0"/>
        <pt x="368" y="352" on="0"/>
        <pt x="347" y="350" on="1"/>
        <pt x="355" y="354" on="0"/>
        <pt x="368" y="368" on="0"/>
        <pt x="373" y="375" on="1"/>
        <pt x="378" y="383" on="0"/>
        <pt x="382" y="392" on="1"/>
        <pt x="387" y="407" on="0"/>
        <pt x="375" y="450" on="0"/>
        <pt x="344" y="486" on="0"/>
        <pt x="297" y="507" on="0"/>
        <pt x="269" y="501" on="1"/>
        <pt x="239" y="494" on="0"/>
        <pt x="192" y="466" on="0"/>
        <pt x="161" y="417" on="0"/>
        <pt x="148" y="346" on="0"/>
        <pt x="151" y="297" on="1"/>
        <pt x="155" y="236" on="0"/>
        <pt x="187" y="164" on="0"/>
        <pt x="233" y="128" on="0"/>
        <pt x="288" y="121" on="0"/>
        <pt x="315" y="124" on="1"/>
        <pt x="334" y="128" on="0"/>
        <pt x="350" y="141" on="1"/>
        <pt x="363" y="152" on="0"/>
        <pt x="385" y="194" on="0"/>
        <pt x="384" y="231" on="1"/>
        <pt x="506" y="236" on="1"/>
        <pt x="485" y="177" on="0"/>
        <pt x="425" y="108" on="0"/>
        <pt x="397" y="89" on="1"/>
        <pt x="364" y="67" on="0"/>
        <pt x="331" y="59" on="1"/>
        <pt x="290" y="52" on="0"/>
        <pt x="226" y="55" on="0"/>
        <pt x="174" y="71" on="0"/>
        <pt x="130" y="95" on="0"/>
        <pt x="110" y="109" on="1"/>
        <pt x="97" y="118" on="0"/>
        <pt x="65" y="160" on="0"/>
        <pt x="37" y="219" on="0"/>
        <pt x="19" y="291" on="0"/>
        <pt x="23" y="368" on="0"/>
        <pt x="55" y="446" on="0"/>
        <pt x="90" y="482" on="1"/>
        <pt x="143" y="536" on="0"/>
        <pt x="264" y="569" on="0"/>
        <pt x="372" y="554" on="0"/>
        <pt x="456" y="506" on="0"/>
        <pt x="473" y="478" on="1"/>
        <pt x="490" y="450" on="0"/>
        <pt x="507" y="421" on="0"/>
        <pt x="516" y="406" on="0"/>
        <pt x="523" y="399" on="0"/>
        <pt x="530" y="393" on="1"/>
        <pt x="535" y="388" on="0"/>
        <pt x="542" y="382" on="1"/>
        <pt x="548" y="377" on="0"/>
        <pt x="564" y="363" on="0"/>
      </contour>
    </TTGlyph>
    <TTGlyph name="caron" xMin="192" yMin="641" xMax="540" yMax="785">
      <contour>
        <pt x="540" y="776" on="1"/>
        <pt x="513" y="758" on="0"/>
        <pt x="478" y="735" on="0"/>
        <pt x="467" y="727" on="1"/>
        <pt x="455" y="718" on="0"/>
        <pt x="448" y="714" on="1"/>
        <pt x="442" y="709" on="0"/>
        <pt x="431" y="699" on="1"/>
        <pt x="422" y="691" on="0"/>
        <pt x="392" y="663" on="0"/>
        <pt x="370" y="641" on="1"/>
        <pt x="352" y="658" on="0"/>
        <pt x="324" y="681" on="0"/>
        <pt x="314" y="689" on="1"/>
        <pt x="303" y="698" on="0"/>
        <pt x="295" y="705" on="1"/>
        <pt x="286" y="711" on="0"/>
        <pt x="272" y="722" on="1"/>
        <pt x="260" y="731" on="0"/>
        <pt x="221" y="759" on="0"/>
        <pt x="192" y="780" on="1"/>
        <pt x="313" y="785" on="1"/>
        <pt x="370" y="703" on="1"/>
        <pt x="428" y="778" on="1"/>
      </contour>
    </TTGlyph>
    <TTGlyph name="ccedilla" xMin="19" yMin="-177" xMax="574" yMax="569">
      <contour>
        <pt x="309" y="56" on="1"/>
        <pt x="295" y="-13" on="1"/>
        <pt x="327" y="-18" on="0"/>
        <pt x="356" y="-42" on="0"/>
        <pt x="361" y="-56" on="1"/>
        <pt x="367" y="-72" on="0"/>
        <pt x="365" y="-91" on="1"/>
        <pt x="358" y="-110" on="0"/>
        <pt x="340" y="-127" on="1"/>
        <pt x="324" y="-141" on="0"/>
        <pt x="262" y="-169" on="0"/>
        <pt x="209" y="-177" on="1"/>
        <pt x="211" y="-131" on="1"/>
        <pt x="240" y="-125" on="0"/>
        <pt x="273" y="-109" on="0"/>
        <pt x="281" y="-102" on="1"/>
        <pt x="290" y="-94" on="0"/>
        <pt x="292" y="-85" on="1"/>
        <pt x="292" y="-76" on="0"/>
        <pt x="282" y="-69" on="1"/>
        <pt x="274" y="-63" on="0"/>
        <pt x="238" y="-51" on="0"/>
        <pt x="203" y="-47" on="1"/>
        <pt x="220" y="58" on="1"/>
        <pt x="187" y="65" on="0"/>
        <pt x="134" y="92" on="0"/>
        <pt x="110" y="109" on="1"/>
        <pt x="97" y="118" on="0"/>
        <pt x="65" y="160" on="0"/>
        <pt x="37" y="219" on="0"/>
        <pt x="19" y="291" on="0"/>
        <pt x="23" y="368" on="0"/>
        <pt x="55" y="446" on="0"/>
        <pt x="90" y="482" on="1"/>
        <pt x="143" y="536" on="0"/>
        <pt x="264" y="569" on="0"/>
        <pt x="372" y="554" on="0"/>
        <pt x="456" y="506" on="0"/>
        <pt x="473" y="478" on="1"/>
        <pt x="490" y="450" on="0"/>
        <pt x="507" y="421" on="0"/>
        <pt x="516" y="406" on="0"/>
        <pt x="523" y="399" on="0"/>
        <pt x="530" y="393" on="1"/>
        <pt x="535" y="388" on="0"/>
        <pt x="542" y="382" on="1"/>
        <pt x="548" y="377" on="0"/>
        <pt x="564" y="363" on="0"/>
        <pt x="574" y="355" on="1"/>
        <pt x="562" y="357" on="0"/>
        <pt x="527" y="359" on="0"/>
        <pt x="511" y="359" on="1"/>
        <pt x="493" y="359" on="0"/>
        <pt x="473" y="358" on="1"/>
        <pt x="452" y="357" on="0"/>
        <pt x="431" y="356" on="1"/>
        <pt x="413" y="355" on="0"/>
        <pt x="368" y="352" on="0"/>
        <pt x="347" y="350" on="1"/>
        <pt x="355" y="354" on="0"/>
        <pt x="368" y="368" on="0"/>
        <pt x="373" y="375" on="1"/>
        <pt x="378" y="383" on="0"/>
        <pt x="382" y="392" on="1"/>
        <pt x="387" y="407" on="0"/>
        <pt x="375" y="450" on="0"/>
        <pt x="344" y="486" on="0"/>
        <pt x="297" y="507" on="0"/>
        <pt x="269" y="501" on="1"/>
        <pt x="239" y="494" on="0"/>
        <pt x="192" y="466" on="0"/>
        <pt x="161" y="417" on="0"/>
        <pt x="148" y="346" on="0"/>
        <pt x="151" y="297" on="1"/>
        <pt x="155" y="236" on="0"/>
        <pt x="187" y="164" on="0"/>
        <pt x="233" y="128" on="0"/>
        <pt x="288" y="121" on="0"/>
        <pt x="315" y="124" on="1"/>
        <pt x="334" y="128" on="0"/>
        <pt x="350" y="141" on="1"/>
        <pt x="363" y="152" on="0"/>
        <pt x="385" y="194" on="0"/>
        <pt x="384" y="231" on="1"/>
        <pt x="506" y="236" on="1"/>
        <pt x="485" y="177" on="0"/>
        <pt x="425" y="108" on="0"/>
        <pt x="397" y="89" on="1"/>
        <pt x="364" y="67" on="0"/>
        <pt x="331" y="59" on="1"/>
        <pt x="326" y="58" on="0"/>
        <pt x="314" y="57" on="0"/>
      </contour>
    </TTGlyph>
    <TTGlyph name="cedilla" xMin="285" yMin="-218" xMax="449" yMax="33">
      <contour>
        <pt x="305" y="33" on="1"/>
        <pt x="394" y="32" on="1"/>
        <pt x="377" y="-54" on="1"/>
        <pt x="409" y="-59" on="0"/>
        <pt x="438" y="-83" on="0"/>
        <pt x="443" y="-97" on="1"/>
        <pt x="449" y="-113" on="0"/>
        <pt x="447" y="-132" on="1"/>
        <pt x="440" y="-151" on="0"/>
        <pt x="422" y="-168" on="1"/>
        <pt x="406" y="-182" on="0"/>
        <pt x="344" y="-210" on="0"/>
        <pt x="291" y="-218" on="1"/>
        <pt x="293" y="-172" on="1"/>
        <pt x="322" y="-166" on="0"/>
        <pt x="355" y="-150" on="0"/>
        <pt x="363" y="-143" on="1"/>
        <pt x="372" y="-135" on="0"/>
        <pt x="374" y="-126" on="1"/>
        <pt x="374" y="-117" on="0"/>
        <pt x="364" y="-110" on="1"/>
        <pt x="356" y="-104" on="0"/>
        <pt x="320" y="-92" on="0"/>
        <pt x="285" y="-88" on="1"/>
      </contour>
    </TTGlyph>
    <TTGlyph name="cent" xMin="17" yMin="42" xMax="429" yMax="674">
      <contour>
        <pt x="429" y="618" on="1"/>
        <pt x="412" y="598" on="0"/>
        <pt x="392" y="565" on="0"/>
        <pt x="386" y="553" on="1"/>
        <pt x="379" y="539" on="0"/>
        <pt x="376" y="528" on="1"/>
        <pt x="372" y="515" on="0"/>
        <pt x="367" y="494" on="1"/>
        <pt x="362" y="476" on="0"/>
        <pt x="346" y="416" on="0"/>
        <pt x="333" y="371" on="1"/>
        <pt x="324" y="387" on="0"/>
        <pt x="308" y="407" on="0"/>
        <pt x="301" y="413" on="1"/>
        <pt x="293" y="420" on="0"/>
        <pt x="286" y="424" on="1"/>
        <pt x="279" y="427" on="0"/>
        <pt x="271" y="430" on="1"/>
        <pt x="264" y="432" on="0"/>
        <pt x="245" y="438" on="0"/>
        <pt x="235" y="440" on="1"/>
        <pt x="232" y="238" on="1"/>
        <pt x="263" y="241" on="0"/>
        <pt x="285" y="246" on="1"/>
        <pt x="296" y="249" on="0"/>
        <pt x="306" y="252" on="1"/>
        <pt x="314" y="255" on="0"/>
        <pt x="325" y="259" on="1"/>
        <pt x="334" y="263" on="0"/>
        <pt x="357" y="272" on="0"/>
        <pt x="370" y="279" on="1"/>
        <pt x="372" y="268" on="0"/>
        <pt x="375" y="253" on="0"/>
        <pt x="376" y="248" on="1"/>
        <pt x="377" y="242" on="0"/>
        <pt x="378" y="238" on="1"/>
        <pt x="379" y="233" on="0"/>
        <pt x="381" y="227" on="1"/>
        <pt x="383" y="222" on="0"/>
        <pt x="389" y="206" on="0"/>
        <pt x="394" y="196" on="1"/>
        <pt x="378" y="189" on="0"/>
        <pt x="347" y="179" on="0"/>
        <pt x="335" y="176" on="1"/>
        <pt x="320" y="172" on="0"/>
        <pt x="307" y="170" on="1"/>
        <pt x="289" y="167" on="1"/>
        <pt x="280" y="165" on="0"/>
        <pt x="255" y="160" on="0"/>
        <pt x="238" y="156" on="1"/>
        <pt x="239" y="143" on="0"/>
        <pt x="239" y="124" on="0"/>
        <pt x="240" y="117" on="1"/>
        <pt x="240" y="109" on="0"/>
        <pt x="241" y="103" on="1"/>
        <pt x="241" y="97" on="0"/>
        <pt x="243" y="89" on="1"/>
        <pt x="244" y="76" on="0"/>
        <pt x="251" y="48" on="1"/>
        <pt x="168" y="42" on="1"/>
        <pt x="169" y="50" on="0"/>
        <pt x="171" y="64" on="0"/>
        <pt x="171" y="69" on="1"/>
        <pt x="171" y="80" on="1"/>
        <pt x="171" y="156" on="1"/>
        <pt x="122" y="158" on="0"/>
        <pt x="64" y="191" on="0"/>
        <pt x="49" y="211" on="1"/>
        <pt x="31" y="234" on="0"/>
        <pt x="25" y="262" on="1"/>
        <pt x="17" y="307" on="0"/>
        <pt x="27" y="380" on="0"/>
        <pt x="52" y="436" on="0"/>
        <pt x="88" y="477" on="0"/>
        <pt x="126" y="507" on="0"/>
        <pt x="160" y="525" on="0"/>
        <pt x="171" y="531" on="1"/>
        <pt x="173" y="562" on="0"/>
        <pt x="173" y="599" on="0"/>
        <pt x="173" y="610" on="1"/>
        <pt x="173" y="622" on="0"/>
        <pt x="172" y="628" on="1"/>
        <pt x="171" y="633" on="0"/>
        <pt x="170" y="638" on="1"/>
        <pt x="169" y="643" on="0"/>
        <pt x="169" y="655" on="0"/>
        <pt x="169" y="663" on="1"/>
        <pt x="251" y="674" on="1"/>
        <pt x="249" y="668" on="0"/>
        <pt x="246" y="654" on="0"/>
        <pt x="244" y="648" on="1"/>
        <pt x="242" y="641" on="0"/>
        <pt x="241" y="634" on="1"/>
        <pt x="240" y="626" on="0"/>
        <pt x="239" y="614" on="1"/>
        <pt x="238" y="603" on="0"/>
        <pt x="236" y="570" on="0"/>
        <pt x="235" y="546" on="1"/>
        <pt x="275" y="550" on="0"/>
        <pt x="297" y="555" on="1"/>
        <pt x="308" y="558" on="0"/>
        <pt x="317" y="560" on="1"/>
        <pt x="328" y="563" on="0"/>
        <pt x="344" y="571" on="1"/>
        <pt x="358" y="578" on="0"/>
        <pt x="400" y="600" on="0"/>
      </contour>
      <contour>
        <pt x="105" y="321" on="1"/>
        <pt x="104" y="301" on="0"/>
        <pt x="111" y="284" on="1"/>
        <pt x="117" y="270" on="0"/>
        <pt x="144" y="243" on="0"/>
        <pt x="171" y="238" on="1"/>
        <pt x="172" y="417" on="1"/>
        <pt x="149" y="407" on="0"/>
        <pt x="122" y="376" on="0"/>
        <pt x="115" y="360" on="1"/>
        <pt x="107" y="342" on="0"/>
      </contour>
    </TTGlyph>
    <TTGlyph name="circumflex" xMin="192" yMin="641" xMax="540" yMax="785">
      <contour>
        <pt x="192" y="650" on="1"/>
        <pt x="219" y="667" on="0"/>
        <pt x="254" y="690" on="0"/>
        <pt x="265" y="698" on="1"/>
        <pt x="277" y="707" on="0"/>
        <pt x="284" y="712" on="1"/>
        <pt x="290" y="717" on="0"/>
        <pt x="301" y="727" on="1"/>
        <pt x="310" y="735" on="0"/>
        <pt x="340" y="763" on="0"/>
        <pt x="362" y="785" on="1"/>
        <pt x="397" y="751" on="0"/>
        <pt x="417" y="736" on="1"/>
        <pt x="428" y="727" on="0"/>
        <pt x="437" y="721" on="1"/>
        <pt x="446" y="715" on="0"/>
        <pt x="460" y="704" on="1"/>
        <pt x="472" y="695" on="0"/>
        <pt x="511" y="666" on="0"/>
        <pt x="540" y="646" on="1"/>
        <pt x="419" y="641" on="1"/>
        <pt x="362" y="723" on="1"/>
        <pt x="304" y="648" on="1"/>
      </contour>
    </TTGlyph>
    <TTGlyph name="colon" xMin="40" yMin="-1" xMax="188" yMax="366">
      <contour>
        <pt x="111" y="110" on="1"/>
        <pt x="147" y="115" on="0"/>
        <pt x="188" y="81" on="0"/>
        <pt x="187" y="51" on="1"/>
        <pt x="186" y="36" on="0"/>
        <pt x="176" y="18" on="0"/>
        <pt x="159" y="9" on="0"/>
        <pt x="136" y="4" on="0"/>
        <pt x="121" y="2" on="1"/>
        <pt x="106" y="-1" on="0"/>
        <pt x="78" y="8" on="0"/>
        <pt x="56" y="26" on="0"/>
        <pt x="43" y="48" on="0"/>
        <pt x="43" y="59" on="1"/>
        <pt x="43" y="71" on="0"/>
        <pt x="56" y="88" on="0"/>
        <pt x="77" y="101" on="0"/>
        <pt x="100" y="108" on="0"/>
      </contour>
      <contour>
        <pt x="175" y="341" on="1"/>
        <pt x="182" y="329" on="0"/>
        <pt x="185" y="302" on="0"/>
        <pt x="177" y="276" on="0"/>
        <pt x="158" y="252" on="0"/>
        <pt x="143" y="245" on="1"/>
        <pt x="111" y="230" on="0"/>
        <pt x="61" y="244" on="0"/>
        <pt x="48" y="263" on="1"/>
        <pt x="41" y="273" on="0"/>
        <pt x="40" y="298" on="0"/>
        <pt x="51" y="323" on="0"/>
        <pt x="73" y="345" on="0"/>
        <pt x="90" y="352" on="1"/>
        <pt x="123" y="366" on="0"/>
        <pt x="166" y="357" on="0"/>
      </contour>
    </TTGlyph>
    <TTGlyph name="comma" xMin="40" yMin="-64" xMax="167" yMax="117">
      <contour>
        <pt x="74" y="2" on="1"/>
        <pt x="59" y="7" on="0"/>
        <pt x="41" y="32" on="0"/>
        <pt x="40" y="62" on="0"/>
        <pt x="57" y="91" on="0"/>
        <pt x="75" y="101" on="1"/>
        <pt x="104" y="117" on="0"/>
        <pt x="148" y="101" on="0"/>
        <pt x="157" y="85" on="1"/>
        <pt x="162" y="77" on="0"/>
        <pt x="167" y="49" on="0"/>
        <pt x="166" y="18" on="0"/>
        <pt x="160" y="-12" on="0"/>
        <pt x="154" y="-22" on="1"/>
        <pt x="149" y="-29" on="0"/>
        <pt x="142" y="-37" on="1"/>
        <pt x="136" y="-44" on="0"/>
        <pt x="119" y="-59" on="0"/>
        <pt x="108" y="-64" on="1"/>
        <pt x="73" y="-61" on="1"/>
        <pt x="80" y="-53" on="0"/>
        <pt x="91" y="-41" on="0"/>
        <pt x="95" y="-36" on="1"/>
        <pt x="99" y="-31" on="0"/>
        <pt x="103" y="-27" on="1"/>
        <pt x="109" y="-20" on="0"/>
        <pt x="113" y="-13" on="1"/>
        <pt x="117" y="-7" on="0"/>
        <pt x="123" y="7" on="0"/>
        <pt x="121" y="14" on="1"/>
        <pt x="114" y="6" on="0"/>
        <pt x="98" y="0" on="0"/>
        <pt x="91" y="0" on="1"/>
        <pt x="82" y="0" on="0"/>
      </contour>
    </TTGlyph>
</ttFont>
